<svg xmlns="http://www.w3.org/2000/svg" width="102.218" height="73.199" viewBox="0 0 102.218 73.199">
  <g id="footer-logo" transform="translate(0.156 -6.994)">
    <path id="Path_1" data-name="Path 1" d="M10.466,492.4l-1.83,5.314c-.512,1.555-.965,3.189-1.319,4.625H7.258c-.335-1.476-.748-3.05-1.22-4.605L4.306,492.4H1.118L.232,505.662H2.5l.3-5.333c.1-1.811.177-3.917.236-5.649h.039c.354,1.653.826,3.464,1.338,5.157L6.176,505.5h1.85l1.948-5.747c.591-1.673,1.142-3.464,1.575-5.078h.059c-.02,1.791.079,3.857.158,5.57l.256,5.412h2.361L13.616,492.4Z" transform="translate(-0.341 -425.686)" fill="#fff"/>
    <path id="Path_2" data-name="Path 2" d="M143,500.132c0,2.6-1.043,3.8-2.795,3.8-1.634,0-2.716-1.2-2.716-3.8V492.4h-2.421v7.6c0,4.173,1.988,5.885,5.058,5.885,3.188,0,5.294-1.811,5.294-5.9V492.4H143Z" transform="translate(-118.592 -425.686)" fill="#fff"/>
    <path id="Path_3" data-name="Path 3" d="M238.977,496.4c-1.771-.689-2.539-1.161-2.539-2.185,0-.787.649-1.594,2.185-1.594a5.779,5.779,0,0,1,2.657.63l.571-1.949a6.913,6.913,0,0,0-3.169-.669c-2.893,0-4.7,1.633-4.7,3.818,0,1.909,1.4,3.071,3.6,3.858,1.673.61,2.342,1.2,2.342,2.2,0,1.083-.866,1.811-2.4,1.811a6.644,6.644,0,0,1-3.208-.846l-.551,2.007a7.637,7.637,0,0,0,3.6.846c3.4,0,5.019-1.85,5.019-4C242.382,498.431,241.28,497.27,238.977,496.4Z" transform="translate(-205.14 -424.142)" fill="#fff"/>
    <rect id="Rectangle_1" data-name="Rectangle 1" width="2.42" height="13.265" transform="translate(39.425 66.711)" fill="#fff"/>
    <path id="Path_4" data-name="Path 4" d="M374.514,492.4l-1.831,5.314c-.512,1.555-.965,3.189-1.319,4.625h-.059c-.334-1.476-.748-3.05-1.221-4.605l-1.732-5.334h-3.188l-.886,13.265h2.264l.3-5.333c.1-1.811.177-3.917.236-5.649h.039c.355,1.653.827,3.464,1.339,5.157l1.771,5.668h1.85l1.948-5.747c.591-1.673,1.141-3.464,1.574-5.078h.059c-.02,1.791.079,3.857.157,5.57l.256,5.412h2.362l-.768-13.265Z" transform="translate(-319.601 -425.686)" fill="#fff"/>
    <path id="Path_5" data-name="Path 5" d="M539.9,492.4l-1.83,5.314c-.512,1.555-.965,3.189-1.319,4.625h-.059c-.335-1.476-.748-3.05-1.22-4.605L533.74,492.4h-3.188l-.886,13.265h2.264l.294-5.333c.1-1.811.178-3.917.236-5.649h.04c.355,1.653.827,3.464,1.338,5.157l1.772,5.668h1.849l1.949-5.747c.59-1.673,1.141-3.464,1.574-5.078h.059c-.02,1.791.078,3.857.157,5.57l.256,5.412h2.362l-.768-13.265Z" transform="translate(-464.639 -425.686)" fill="#fff"/>
    <path id="Path_6" data-name="Path 6" d="M659.963,492.4l-4.251,13.265h2.5l1.141-3.759h4.192l1.2,3.759h2.618l-4.31-13.265Zm-.217,7.676,1.023-3.268c.217-.787.434-1.712.63-2.48h.04c.2.767.413,1.673.669,2.48l1.043,3.268Z" transform="translate(-575.179 -425.686)" fill="#fff"/>
    <path id="Path_7" data-name="Path 7" d="M765.854,496.4c-1.771-.689-2.539-1.161-2.539-2.185,0-.787.649-1.594,2.184-1.594a5.779,5.779,0,0,1,2.657.63l.57-1.949a6.912,6.912,0,0,0-3.169-.669c-2.893,0-4.7,1.633-4.7,3.818,0,1.909,1.4,3.071,3.6,3.858,1.673.61,2.342,1.2,2.342,2.2,0,1.083-.866,1.811-2.4,1.811a6.644,6.644,0,0,1-3.208-.846l-.551,2.007a7.635,7.635,0,0,0,3.6.846c3.4,0,5.019-1.85,5.019-4C769.259,498.431,768.157,497.27,765.854,496.4Z" transform="translate(-667.197 -424.142)" fill="#fff"/>
    <path id="Path_8" data-name="Path 8" d="M594.557,121.069l-3.9,6.211h7.824l-3.919-6.211Z" transform="translate(-518.126 -100.041)" fill="#fff"/>
    <path id="Path_9" data-name="Path 9" d="M546.9,196.907h18.61l-3.918-6.211H550.8Z" transform="translate(-479.752 -161.102)" fill="#fff"/>
    <path id="Path_10" data-name="Path 10" d="M502.718,267.2h29.5l-3.918-6.212H506.622Z" transform="translate(-441.008 -222.749)" fill="#fff"/>
    <path id="Path_11" data-name="Path 11" d="M458.506,337.56h40.4l-3.918-6.211H462.41Z" transform="translate(-402.235 -284.45)" fill="#fff"/>
    <path id="Path_12" data-name="Path 12" d="M466.012,407.28l-3.8-6.031H418.8l-3.859,6.14h51.068Z" transform="translate(-364.032 -345.751)" fill="#fff"/>
    <path id="Path_13" data-name="Path 13" d="M179.458,121.069l-3.9,6.211h7.823l-3.918-6.211Z" transform="translate(-154.095 -100.041)" fill="#fff"/>
    <path id="Path_14" data-name="Path 14" d="M131.8,196.907h18.61l-3.918-6.211H135.7Z" transform="translate(-115.72 -161.102)" fill="#fff"/>
    <path id="Path_15" data-name="Path 15" d="M87.618,267.2h29.5l-3.918-6.212H91.522Z" transform="translate(-76.976 -222.749)" fill="#fff"/>
    <path id="Path_16" data-name="Path 16" d="M43.407,337.56h40.4l-3.918-6.211H47.311Z" transform="translate(-38.204 -284.45)" fill="#fff"/>
    <path id="Path_17" data-name="Path 17" d="M50.912,407.28l-3.8-6.031H3.7l-3.859,6.14H50.912Z" transform="translate(0 -345.751)" fill="#fff"/>
    <path id="Path_18" data-name="Path 18" d="M50.855,48.882,76.3,8.415l25.676,40.53V6.994H-.156V48.942L25.235,8.415Z" transform="translate(0)" fill="#fff"/>
  </g>
</svg>
