<svg xmlns="http://www.w3.org/2000/svg" width="25.063" height="17.469" viewBox="0 0 25.063 17.469">
  <g id="icon-yt" transform="translate(0 -14.676)">
    <path id="Path_18553" data-name="Path 18553" d="M24.63,17.486a3.167,3.167,0,0,0-2.709-2.463,84.213,84.213,0,0,0-9.385-.347,84.227,84.227,0,0,0-9.386.347A3.166,3.166,0,0,0,.442,17.486,26.841,26.841,0,0,0,0,23.411a26.833,26.833,0,0,0,.437,5.924A3.166,3.166,0,0,0,3.145,31.8a84.153,84.153,0,0,0,9.385.347,84.136,84.136,0,0,0,9.385-.347,3.167,3.167,0,0,0,2.709-2.463,26.82,26.82,0,0,0,.439-5.924A26.837,26.837,0,0,0,24.63,17.486ZM9.3,27.3V19.012l7.968,4.157Z" transform="translate(0)" fill="#fff"/>
  </g>
</svg>
