<svg xmlns="http://www.w3.org/2000/svg" width="20" height="16.291" viewBox="0 0 20 16.291">
  <g id="icon-tw" transform="translate(0 -9.053)">
    <path id="Path_18552" data-name="Path 18552" d="M19.976,10.993a.1.1,0,0,0-.116-.027,8,8,0,0,1-1.875.569A4.158,4.158,0,0,0,19.448,9.48a.1.1,0,0,0-.145-.116,8.019,8.019,0,0,1-2.495.963,4.166,4.166,0,0,0-7.082,3.707,11.476,11.476,0,0,1-8.172-4.2A.1.1,0,0,0,1.47,9.8a.1.1,0,0,0-.078.049,4.167,4.167,0,0,0,1,5.349,3.978,3.978,0,0,1-1.452-.469.1.1,0,0,0-.148.085v.053A4.176,4.176,0,0,0,3.72,18.838a4,4,0,0,1-1.383-.02.1.1,0,0,0-.113.128,4.161,4.161,0,0,0,3.613,2.876,8,8,0,0,1-4.768,1.555,8.232,8.232,0,0,1-.957-.056.1.1,0,0,0-.105.065.1.1,0,0,0,.04.117,11.613,11.613,0,0,0,6.281,1.841A11.545,11.545,0,0,0,17.985,13.686q0-.239-.009-.477a8.3,8.3,0,0,0,2.008-2.1A.1.1,0,0,0,19.976,10.993Z" transform="translate(0 0)" fill="#fff"/>
  </g>
</svg>
