<svg id="icon-ig" xmlns="http://www.w3.org/2000/svg" width="19.814" height="19.815" viewBox="0 0 19.814 19.815">
  <path id="Path_18563" data-name="Path 18563" d="M2.543,0H17.271a2.483,2.483,0,0,1,2.543,2.543V17.272a2.483,2.483,0,0,1-2.543,2.543H2.543A2.483,2.483,0,0,1,0,17.272V2.543A2.483,2.483,0,0,1,2.543,0ZM14.434,2.2a.894.894,0,0,0-.892.892V5.229a.894.894,0,0,0,.892.892h2.24a.9.9,0,0,0,.892-.892V3.094a.9.9,0,0,0-.892-.892ZM17.575,8.38H15.831a5.8,5.8,0,0,1,.254,1.7,6.066,6.066,0,0,1-6.159,5.967,6.065,6.065,0,0,1-6.159-5.967,5.786,5.786,0,0,1,.254-1.7H2.2v8.37a.79.79,0,0,0,.788.788h13.8a.79.79,0,0,0,.788-.788V8.38ZM9.926,6.008A3.919,3.919,0,0,0,5.947,9.864,3.919,3.919,0,0,0,9.926,13.72a3.919,3.919,0,0,0,3.98-3.856A3.919,3.919,0,0,0,9.926,6.008Z" fill="#fff"/>
</svg>
