<svg id="Group_3" data-name="Group 3" xmlns="http://www.w3.org/2000/svg" width="21.417" height="22.166" viewBox="0 0 21.417 22.166">
  <path id="Path_1" data-name="Path 1" d="M1574.74,804.942a10.138,10.138,0,0,1-2.63-.357,9.66,9.66,0,0,1-4.045-2.16.23.23,0,1,1,.309-.341,9.2,9.2,0,0,0,3.854,2.056,9.08,9.08,0,0,0,7.121-.937,10.018,10.018,0,0,0,1.578-1.122.23.23,0,1,1,.3.346,10.48,10.48,0,0,1-1.651,1.174A9.564,9.564,0,0,1,1574.74,804.942Zm-.082-2.754a.23.23,0,0,1-.115-.031l-5.8-3.35-1.812,1.048.7,1.214a.23.23,0,0,1-.2.345l-3.257,0h0a.23.23,0,0,1-.2-.345l1.628-2.815a.23.23,0,0,1,.2-.115h0a.23.23,0,0,1,.2.115l.694,1.2,1.808-1.045v-6.719a.23.23,0,0,1,.138-.211l5.8-3.347v-2.074h-1.407a.23.23,0,0,1-.2-.345l1.628-2.826a.23.23,0,0,1,.4,0l1.628,2.826a.23.23,0,0,1-.2.345h-1.39v2.085l5.794,3.352a.23.23,0,0,1,.115.2v6.709l1.8,1.041.694-1.2a.23.23,0,0,1,.2-.115h0a.23.23,0,0,1,.2.115l1.631,2.818a.23.23,0,0,1-.2.345h0l-3.259,0a.23.23,0,0,1-.2-.345l.7-1.216-1.8-1.042-5.8,3.352A.23.23,0,0,1,1574.657,802.188Zm-5.7-3.782,5.7,3.286,5.688-3.288v-6.573l-5.689-3.292-5.693,3.288Zm-3.161.426-1.229,2.125,2.458,0-.62-1.068h0Zm16.469,2.117,2.461,0-1.232-2.128-.609,1.055h0Zm-7.6-15.347h1.222l-1.23-2.135-1.23,2.135Zm-.006,15.3a.23.23,0,0,1-.23-.23v-5.405l-4.678-2.7a.23.23,0,0,1,.23-.4l4.678,2.7,4.678-2.7a.23.23,0,0,1,.23.4l-4.678,2.7v5.405A.23.23,0,0,1,1574.66,800.9Zm1.51-1.332a.23.23,0,0,1-.2-.345l2.89-5.007a.23.23,0,1,1,.4.23l-2.89,5.007A.23.23,0,0,1,1576.169,799.567Zm2.5-1.448a.23.23,0,0,1-.2-.345l.4-.688a.23.23,0,0,1,.4.23l-.4.688A.23.23,0,0,1,1578.674,798.119Zm-13.433-.747a.23.23,0,0,1-.224-.179,9.652,9.652,0,0,1,.134-4.664,9.524,9.524,0,0,1,4.585-5.977,10.538,10.538,0,0,1,1.731-.8.23.23,0,1,1,.154.434,10.07,10.07,0,0,0-1.655.77,9.079,9.079,0,0,0-4.371,5.7,9.193,9.193,0,0,0-.13,4.443.23.23,0,0,1-.174.275A.237.237,0,0,1,1565.241,797.372Zm18.807,0a.236.236,0,0,1-.051-.006.23.23,0,0,1-.174-.275,9.39,9.39,0,0,0-6.169-10.909.23.23,0,1,1,.144-.437,9.85,9.85,0,0,1,6.474,11.448A.23.23,0,0,1,1584.047,797.372Zm-7.878-.693a.23.23,0,0,1-.2-.345l.388-.671a.23.23,0,0,1,.4.23l-.389.671A.23.23,0,0,1,1576.169,796.68Z" transform="translate(-1563.943 -782.776)" fill="#fff"/>
</svg>
