<svg id="bg-quote-start" xmlns="http://www.w3.org/2000/svg" width="36" height="35" viewBox="0 0 36 35">
  <rect id="Rectangle_73" data-name="Rectangle 73" width="36" height="35" fill="#fff"/>
  <path id="Path_342" data-name="Path 342" d="M12.793-25.952a10.812,10.812,0,0,1,.439-3.076,8.268,8.268,0,0,1,1.428-2.759,10.274,10.274,0,0,1,2.551-2.283A14.529,14.529,0,0,1,21-35.742v2.1a9.069,9.069,0,0,0-3.589,1.9A3.52,3.52,0,0,0,16.26-29.15a1.253,1.253,0,0,0,.269.818,2.783,2.783,0,0,0,.671.586q.4.256.879.5a4.592,4.592,0,0,1,.879.586,2.869,2.869,0,0,1,.671.842,2.639,2.639,0,0,1,.269,1.257,2.671,2.671,0,0,1-.928,2.2,3.549,3.549,0,0,1-2.319.757,3.939,3.939,0,0,1-1.465-.281,3.439,3.439,0,0,1-1.233-.83,4.094,4.094,0,0,1-.842-1.367A5.135,5.135,0,0,1,12.793-25.952Zm-9.985,0a10.812,10.812,0,0,1,.439-3.076,8.268,8.268,0,0,1,1.428-2.759A10.273,10.273,0,0,1,7.227-34.07a14.529,14.529,0,0,1,3.784-1.672v2.1a9.075,9.075,0,0,0-3.613,1.9A3.52,3.52,0,0,0,6.25-29.15a1.253,1.253,0,0,0,.269.818,2.7,2.7,0,0,0,.684.586q.415.256.879.5a5.163,5.163,0,0,1,.879.586,2.779,2.779,0,0,1,.684.842,2.639,2.639,0,0,1,.269,1.257,2.655,2.655,0,0,1-.94,2.2,3.6,3.6,0,0,1-2.332.757,3.846,3.846,0,0,1-1.453-.281,3.586,3.586,0,0,1-1.233-.83,3.849,3.849,0,0,1-.842-1.367A5.319,5.319,0,0,1,2.808-25.952Z" transform="translate(7 45)" fill="#f28705"/>
</svg>
