<?xml version="1.0" encoding="utf-8"?>
<svg xmlns="http://www.w3.org/2000/svg" xmlns:xlink="http://www.w3.org/1999/xlink" width="56.157" height="45.928" viewBox="0 0 56.157 45.928">
  <defs>
    <clipPath id="clip-path">
      <path id="Path_23909" data-name="Path 23909" d="M0-4.073H56.157V-50H0Z" transform="translate(0 50.001)" fill="none"/>
    </clipPath>
  </defs>
  <g id="Group_1193" data-name="Group 1193" transform="translate(0 50.001)">
    <g id="Group_1192" data-name="Group 1192" transform="translate(0 -50.001)" clip-path="url(#clip-path)">
      <g id="Group_1189" data-name="Group 1189" transform="translate(36.258 12.032)">
        <path id="Path_23906" data-name="Path 23906" d="M-1.724-1.5V-16.086a2.326,2.326,0,0,0-.683-1.65,2.326,2.326,0,0,0-1.65-.683,2.325,2.325,0,0,0-1.649.683,2.326,2.326,0,0,0-.683,1.65v9.331l-7.776,7.776h-1.555l4.682-4.681A2.176,2.176,0,0,0-10.4-5.2a2.176,2.176,0,0,0-.637-1.539,2.277,2.277,0,0,0-1.572-.669,2.172,2.172,0,0,0-1.539.637l-5.459,5.459a5.026,5.026,0,0,0-1.555,3.888v7H-8.722V8.4a4.648,4.648,0,0,1,.355-1.786A4.641,4.641,0,0,1-7.355,5.1L-2.407.149A2.338,2.338,0,0,0-1.9-.608,2.319,2.319,0,0,0-1.724-1.5" transform="translate(21.164 18.419)" fill="#febb32"/>
      </g>
      <g id="Group_1190" data-name="Group 1190" transform="translate(0.459 12.032)">
        <path id="Path_23907" data-name="Path 23907" d="M0-1.5V-16.086a2.326,2.326,0,0,1,.683-1.65,2.326,2.326,0,0,1,1.65-.683,2.325,2.325,0,0,1,1.649.683,2.326,2.326,0,0,1,.683,1.65v9.331l7.776,7.776H14L9.315-3.66A2.176,2.176,0,0,1,8.678-5.2,2.176,2.176,0,0,1,9.315-6.74a2.277,2.277,0,0,1,1.572-.669,2.172,2.172,0,0,1,1.539.637l5.459,5.459A5.026,5.026,0,0,1,19.44,2.576v7H7V8.4A4.673,4.673,0,0,0,5.632,5.1L.683.149A2.338,2.338,0,0,1,.177-.608,2.319,2.319,0,0,1,0-1.5" transform="translate(0 18.419)" fill="#febb32"/>
      </g>
      <g id="Group_1191" data-name="Group 1191" transform="translate(0.46 0.459)">
        <path id="Path_23908" data-name="Path 23908" d="M-4.9-2.527V-17.112a2.326,2.326,0,0,0-.683-1.65,2.326,2.326,0,0,0-1.65-.683,2.325,2.325,0,0,0-1.649.683,2.326,2.326,0,0,0-.683,1.65v9.331L-17.34-.005H-18.9l4.682-4.681a2.176,2.176,0,0,0,.637-1.54,2.176,2.176,0,0,0-.637-1.539,2.277,2.277,0,0,0-1.572-.669,2.172,2.172,0,0,0-1.539.637l-5.459,5.459A5.026,5.026,0,0,0-24.338,1.55v7H-11.9V7.371a4.648,4.648,0,0,1,.355-1.786A4.641,4.641,0,0,1-10.53,4.07L-5.582-.877a2.338,2.338,0,0,0,.506-.758A2.319,2.319,0,0,0-4.9-2.527Zm-21,11.075h15.552v5.443H-25.894ZM-60.137-2.527V-17.112a2.326,2.326,0,0,1,.683-1.65,2.325,2.325,0,0,1,1.649-.683,2.326,2.326,0,0,1,1.65.683,2.326,2.326,0,0,1,.683,1.65v9.331L-47.7-.005h1.554l-4.681-4.681a2.177,2.177,0,0,1-.637-1.54,2.176,2.176,0,0,1,.637-1.539,2.277,2.277,0,0,1,1.571-.669,2.169,2.169,0,0,1,1.539.637l5.459,5.459A5.024,5.024,0,0,1-40.7,1.55v7H-53.139V7.371a4.666,4.666,0,0,0-.355-1.786A4.656,4.656,0,0,0-54.505,4.07L-59.454-.877a2.324,2.324,0,0,1-.506-.758A2.319,2.319,0,0,1-60.137-2.527Zm21,11.075H-54.694v5.443h15.552Zm15.682,2.332v1.556m-18.117-1.556v1.556m5.393-35.472,0,1.465c0,1.959,1.223,4.394,3.671,4.394s3.672-2.435,3.672-4.394v-1.465M-35.6-15.357l-4.461,2.231A3.078,3.078,0,0,0-41.3-11.989a3.067,3.067,0,0,0-.46,1.62v7.035h18.495v-7.035a3.067,3.067,0,0,0-.46-1.62,3.078,3.078,0,0,0-1.244-1.136l-4.461-2.231m-5.395-3.083v1.675a1.544,1.544,0,0,1-.117.59,1.55,1.55,0,0,1-.334.5l-.319.319a3.083,3.083,0,0,0,3.082,3.084,3.083,3.083,0,0,0,3.083-3.084l-.319-.319a1.535,1.535,0,0,1-.334-.5,1.545,1.545,0,0,1-.118-.59V-18.44m-19.914-4.6v1.465c0,1.959,1.224,4.394,3.672,4.394s3.671-2.435,3.671-4.394l0-1.465m-6.759,7.678-4.461,2.231a3.076,3.076,0,0,0-1.243,1.136m6.475-6.45v1.675a1.545,1.545,0,0,1-.118.59,1.535,1.535,0,0,1-.334.5l-.319.319a3.083,3.083,0,0,0,3.083,3.084,3.083,3.083,0,0,0,3.083-3.084l-.32-.319a1.547,1.547,0,0,1-.333-.5,1.545,1.545,0,0,1-.118-.59V-18.44m4.679,5.037-3.908-1.955m21.111-7.678v1.465c0,1.959,1.224,4.394,3.672,4.394s3.671-2.435,3.671-4.394l0-1.465m-6.759,7.678-3.5,1.749m4.268-4.832v1.675a1.545,1.545,0,0,1-.118.59,1.535,1.535,0,0,1-.334.5l-.319.319a3.083,3.083,0,0,0,3.083,3.084A3.083,3.083,0,0,0-15.5-15.357l-.32-.319a1.547,1.547,0,0,1-.333-.5,1.545,1.545,0,0,1-.118-.59V-18.44m6.463,6.413a3.082,3.082,0,0,0-1.252-1.139L-15.549-15.4m-1.825-14.88a.821.821,0,0,0-.879-.739h-.8a.821.821,0,0,0-.88.739v2.453a.821.821,0,0,0,.88.739h.8a.821.821,0,0,0,.879-.739Zm.757.443a5.136,5.136,0,0,1,2.678,4.473m-9.413,0a5.155,5.155,0,0,1,2.96-4.618m6.939,6.126c0,.35-.187.635-.416.635h-9.5c-.23,0-.417-.285-.417-.635v-.97c0-.349.187-.635.417-.635h9.5c.229,0,.416.286.416.635ZM-31.272-30.28a.821.821,0,0,0-.879-.739h-.8a.82.82,0,0,0-.879.739v2.453a.82.82,0,0,0,.879.739h.8a.821.821,0,0,0,.879-.739Zm.757.443a5.134,5.134,0,0,1,2.678,4.473m-9.413,0a5.154,5.154,0,0,1,2.961-4.618m6.938,6.126c0,.35-.187.635-.416.635h-9.5c-.23,0-.417-.285-.417-.635v-.97c0-.349.187-.635.417-.635h9.5c.229,0,.416.286.416.635ZM-45.234-30.28a.82.82,0,0,0-.879-.739h-.8a.821.821,0,0,0-.879.739v2.453a.821.821,0,0,0,.879.739h.8a.82.82,0,0,0,.879-.739Zm.757.443A5.134,5.134,0,0,1-41.8-25.364m-9.413,0a5.154,5.154,0,0,1,2.961-4.618m6.939,6.126c0,.35-.187.635-.417.635h-9.5c-.23,0-.416-.285-.416-.635v-.97c0-.349.186-.635.416-.635h9.5c.23,0,.417.286.417.635Z" transform="translate(60.137 31.019)" fill="none" stroke="#1a4a42" stroke-width="1"/>
      </g>
    </g>
  </g>
</svg>
