<svg xmlns="http://www.w3.org/2000/svg" width="553.813" height="379.272" viewBox="0 0 553.813 379.272">
  <g id="Group_1107" data-name="Group 1107" transform="translate(1599 -6692)">
    <path id="Receiving" d="M.909,0V-8.935h2.83a2.977,2.977,0,0,1,.954.157,2.957,2.957,0,0,1,.861.458,2.175,2.175,0,0,1,.632.793,2.484,2.484,0,0,1,.239,1.1,2.335,2.335,0,0,1-.434,1.432,2.575,2.575,0,0,1-1.131.865L7.909,0H6.33L3.514-3.917H2.256V0ZM2.256-5.065H3.5a1.717,1.717,0,0,0,1.094-.349,1.209,1.209,0,0,0,.444-1.012A1.207,1.207,0,0,0,4.59-7.434,1.71,1.71,0,0,0,3.5-7.786H2.256Zm6,1.9a3.513,3.513,0,0,1,.284-1.422,2.983,2.983,0,0,1,.742-1.056,3.462,3.462,0,0,1,1.008-.629A2.945,2.945,0,0,1,11.4-6.494a3.156,3.156,0,0,1,1.166.208,2.453,2.453,0,0,1,.868.554,2.584,2.584,0,0,1,.526.772,2.145,2.145,0,0,1,.188.872,2.722,2.722,0,0,1-.041.52l-.718.711H9.57a1.653,1.653,0,0,0,.164.629,2.375,2.375,0,0,0,.417.608,2,2,0,0,0,.708.472,2.48,2.48,0,0,0,.967.185,3.431,3.431,0,0,0,2.03-.649l-.321,1.36a3.965,3.965,0,0,1-1.88.41A3.493,3.493,0,0,1,9.98-.256,3.252,3.252,0,0,1,8.733-1.439,3.218,3.218,0,0,1,8.258-3.165ZM9.652-3.89h3.192a.771.771,0,0,0,.014-.171,1.335,1.335,0,0,0-.39-.926,1.292,1.292,0,0,0-.991-.42,1.825,1.825,0,0,0-1.159.434A1.777,1.777,0,0,0,9.652-3.89Zm5.476.725a3.305,3.305,0,0,1,.294-1.4A3.032,3.032,0,0,1,16.2-5.616a3.65,3.65,0,0,1,1.1-.646,3.569,3.569,0,0,1,1.271-.232,4.139,4.139,0,0,1,2.03.472L20.364-4.9a3.127,3.127,0,0,0-1.709-.472,2.256,2.256,0,0,0-1.579.608,2.068,2.068,0,0,0-.663,1.6A2.121,2.121,0,0,0,16.741-2a2.133,2.133,0,0,0,.841.772,2.4,2.4,0,0,0,1.1.26A4.27,4.27,0,0,0,20.5-1.415L20.234-.171a3.976,3.976,0,0,1-1.668.328,3.643,3.643,0,0,1-1.658-.39A3.252,3.252,0,0,1,15.63-1.395,3.175,3.175,0,0,1,15.128-3.165Zm6.193,0A3.513,3.513,0,0,1,21.6-4.587a2.983,2.983,0,0,1,.742-1.056,3.462,3.462,0,0,1,1.008-.629,2.945,2.945,0,0,1,1.111-.222,3.156,3.156,0,0,1,1.166.208,2.453,2.453,0,0,1,.868.554,2.584,2.584,0,0,1,.526.772,2.145,2.145,0,0,1,.188.872,2.722,2.722,0,0,1-.041.52l-.718.711H22.634a1.653,1.653,0,0,0,.164.629,2.375,2.375,0,0,0,.417.608,2,2,0,0,0,.708.472,2.48,2.48,0,0,0,.967.185,3.431,3.431,0,0,0,2.03-.649L26.6-.253a3.965,3.965,0,0,1-1.88.41,3.493,3.493,0,0,1-1.675-.414A3.252,3.252,0,0,1,21.8-1.439,3.218,3.218,0,0,1,21.321-3.165Zm1.395-.725h3.192a.771.771,0,0,0,.014-.171,1.335,1.335,0,0,0-.39-.926,1.292,1.292,0,0,0-.991-.42,1.825,1.825,0,0,0-1.159.434A1.777,1.777,0,0,0,22.716-3.89Zm5.906-4.443a.793.793,0,0,1,.291-.489.793.793,0,0,1,.482-.291.793.793,0,0,1,.489.291.793.793,0,0,1,.291.489.793.793,0,0,1-.291.482.793.793,0,0,1-.489.291.793.793,0,0,1-.482-.291A.793.793,0,0,1,28.622-8.333ZM28.752,0V-6.344h1.285V0Zm2.68-6.344h1.292l1.148,2.8q.253.595.513,1.388h.027q.239-.718.52-1.388l1.135-2.8h1.189L34.6.109h-.52Zm7.1-1.989a.793.793,0,0,1,.291-.489.793.793,0,0,1,.482-.291.793.793,0,0,1,.489.291.793.793,0,0,1,.291.489.793.793,0,0,1-.291.482.793.793,0,0,1-.489.291.793.793,0,0,1-.482-.291A.793.793,0,0,1,38.527-8.333ZM38.657,0V-6.344h1.285V0Zm3.1,0V-6.344h1.114l.062.629a2.443,2.443,0,0,1,.813-.6,2.96,2.96,0,0,1,1.142-.181,2.457,2.457,0,0,1,1.736.625A2.166,2.166,0,0,1,47.3-4.2V0H46.026V-4.074a1.335,1.335,0,0,0-.362-.943,1.443,1.443,0,0,0-1.107-.39,1.528,1.528,0,0,0-1.125.4,1.275,1.275,0,0,0-.4.937V0Zm6.631.95a1.937,1.937,0,0,1,.386-1.193,1.97,1.97,0,0,1,.933-.708l-.649-.643a.974.974,0,0,1,.212-.6,1.558,1.558,0,0,1,.506-.434,2.277,2.277,0,0,1-.69-.759,1.957,1.957,0,0,1-.246-.964,1.979,1.979,0,0,1,.667-1.538,2.458,2.458,0,0,1,1.712-.6A3.094,3.094,0,0,1,52-6.4a3.364,3.364,0,0,0,.813.082,2.122,2.122,0,0,0,.937-.219l.239,1.046a.919.919,0,0,1-.273.109,1.618,1.618,0,0,1-.355.062,1.9,1.9,0,0,1,.226.964,2.03,2.03,0,0,1-.646,1.514,2.367,2.367,0,0,1-1.719.625,1.787,1.787,0,0,0-.612.079.28.28,0,0,0-.2.277q0,.144.185.219l1.736.6a3.062,3.062,0,0,1,1.33.82,1.984,1.984,0,0,1,.448,1.354,1.814,1.814,0,0,1-.786,1.5,3.3,3.3,0,0,1-2.044.595,3.224,3.224,0,0,1-2.088-.643A2.017,2.017,0,0,1,48.392.95Zm1.135,0a1.123,1.123,0,0,0,.455.889,1.935,1.935,0,0,0,1.268.376,2.019,2.019,0,0,0,1.234-.335.949.949,0,0,0,.448-.759q0-.779-.984-1.08l-1.1-.321a1.32,1.32,0,0,0-.95.352A1.164,1.164,0,0,0,49.526.95ZM50-4.354a1.01,1.01,0,0,0,.349.776,1.24,1.24,0,0,0,.868.318,1.225,1.225,0,0,0,.844-.321,1,1,0,0,0,.359-.772,1.021,1.021,0,0,0-.345-.769,1.2,1.2,0,0,0-.858-.325,1.221,1.221,0,0,0-.865.328A1.016,1.016,0,0,0,50-4.354Z" transform="translate(-1469.999 6753.303)" fill="#797979"/>
    <path id="Assessment_Flowcharts" data-name="Assessment Flowcharts" d="M.28,0,4.088-9.058H4.58L8.388,0H7.014L6.05-2.311H2.577L1.613,0ZM3.035-3.391h2.55L4.7-5.571a9.688,9.688,0,0,1-.376-1.094H4.3a8.006,8.006,0,0,1-.383,1.094Zm6,1.682A3.273,3.273,0,0,0,10-1.142a3.108,3.108,0,0,0,1.131.219,1.171,1.171,0,0,0,.728-.215.656.656,0,0,0,.284-.543.719.719,0,0,0-.226-.543,1.934,1.934,0,0,0-.684-.379,4.138,4.138,0,0,1-1.477-.851,1.647,1.647,0,0,1-.485-1.22,1.649,1.649,0,0,1,.591-1.309A2.268,2.268,0,0,1,11.4-6.494a3.614,3.614,0,0,1,.964.13,2.556,2.556,0,0,1,.69.273l-.239,1.066a2.415,2.415,0,0,0-1.429-.41.968.968,0,0,0-.639.2.641.641,0,0,0-.243.516.6.6,0,0,0,.219.479,2.406,2.406,0,0,0,.711.362,4.066,4.066,0,0,1,1.5.858,1.74,1.74,0,0,1,.485,1.282,1.743,1.743,0,0,1-.6,1.354,2.472,2.472,0,0,1-1.709.54,3.771,3.771,0,0,1-1-.13,2.59,2.59,0,0,1-.772-.335Zm5.168,0a3.273,3.273,0,0,0,.967.567A3.108,3.108,0,0,0,16.3-.923a1.171,1.171,0,0,0,.728-.215.656.656,0,0,0,.284-.543.719.719,0,0,0-.226-.543,1.934,1.934,0,0,0-.684-.379,4.138,4.138,0,0,1-1.477-.851,1.647,1.647,0,0,1-.485-1.22,1.649,1.649,0,0,1,.591-1.309,2.268,2.268,0,0,1,1.535-.509,3.614,3.614,0,0,1,.964.13,2.556,2.556,0,0,1,.69.273l-.239,1.066a2.415,2.415,0,0,0-1.429-.41.968.968,0,0,0-.639.2.641.641,0,0,0-.243.516.6.6,0,0,0,.219.479,2.406,2.406,0,0,0,.711.362,4.066,4.066,0,0,1,1.5.858,1.74,1.74,0,0,1,.485,1.282,1.743,1.743,0,0,1-.6,1.354,2.472,2.472,0,0,1-1.709.54,3.771,3.771,0,0,1-1-.13A2.59,2.59,0,0,1,14.5-.308Zm5.284-1.456a3.513,3.513,0,0,1,.284-1.422,2.983,2.983,0,0,1,.742-1.056,3.462,3.462,0,0,1,1.008-.629,2.945,2.945,0,0,1,1.111-.222,3.156,3.156,0,0,1,1.166.208,2.453,2.453,0,0,1,.868.554,2.584,2.584,0,0,1,.526.772,2.145,2.145,0,0,1,.188.872,2.722,2.722,0,0,1-.041.52l-.718.711H20.8a1.653,1.653,0,0,0,.164.629,2.375,2.375,0,0,0,.417.608,2,2,0,0,0,.708.472,2.48,2.48,0,0,0,.967.185,3.431,3.431,0,0,0,2.03-.649l-.321,1.36a3.965,3.965,0,0,1-1.88.41,3.493,3.493,0,0,1-1.675-.414,3.252,3.252,0,0,1-1.248-1.183A3.218,3.218,0,0,1,19.489-3.165Zm1.395-.725h3.192a.771.771,0,0,0,.014-.171,1.335,1.335,0,0,0-.39-.926,1.292,1.292,0,0,0-.991-.42,1.825,1.825,0,0,0-1.159.434A1.777,1.777,0,0,0,20.884-3.89Zm5.359,2.181a3.273,3.273,0,0,0,.967.567,3.108,3.108,0,0,0,1.131.219,1.171,1.171,0,0,0,.728-.215.656.656,0,0,0,.284-.543.719.719,0,0,0-.226-.543,1.934,1.934,0,0,0-.684-.379,4.138,4.138,0,0,1-1.477-.851,1.647,1.647,0,0,1-.485-1.22,1.649,1.649,0,0,1,.591-1.309,2.268,2.268,0,0,1,1.535-.509,3.614,3.614,0,0,1,.964.13,2.556,2.556,0,0,1,.69.273l-.239,1.066a2.415,2.415,0,0,0-1.429-.41.968.968,0,0,0-.639.2.641.641,0,0,0-.243.516.6.6,0,0,0,.219.479,2.406,2.406,0,0,0,.711.362,4.066,4.066,0,0,1,1.5.858,1.74,1.74,0,0,1,.485,1.282,1.743,1.743,0,0,1-.6,1.354,2.472,2.472,0,0,1-1.709.54,3.771,3.771,0,0,1-1-.13,2.59,2.59,0,0,1-.772-.335Zm5.168,0a3.273,3.273,0,0,0,.967.567,3.108,3.108,0,0,0,1.131.219,1.171,1.171,0,0,0,.728-.215.656.656,0,0,0,.284-.543.719.719,0,0,0-.226-.543,1.934,1.934,0,0,0-.684-.379,4.138,4.138,0,0,1-1.477-.851,1.647,1.647,0,0,1-.485-1.22,1.649,1.649,0,0,1,.591-1.309,2.268,2.268,0,0,1,1.535-.509,3.614,3.614,0,0,1,.964.13,2.556,2.556,0,0,1,.69.273l-.239,1.066a2.415,2.415,0,0,0-1.429-.41.968.968,0,0,0-.639.2.641.641,0,0,0-.243.516.6.6,0,0,0,.219.479,2.406,2.406,0,0,0,.711.362,4.066,4.066,0,0,1,1.5.858,1.74,1.74,0,0,1,.485,1.282,1.743,1.743,0,0,1-.6,1.354,2.472,2.472,0,0,1-1.709.54,3.771,3.771,0,0,1-1-.13,2.59,2.59,0,0,1-.772-.335ZM37.058,0V-6.344h1.114l.062.629a2.4,2.4,0,0,1,.8-.6,2.908,2.908,0,0,1,1.125-.178,2.186,2.186,0,0,1,1.042.256,1.957,1.957,0,0,1,.735.639,2.876,2.876,0,0,1,2.283-.9,2.293,2.293,0,0,1,1.6.581,1.893,1.893,0,0,1,.639,1.463V0H45.192V-4.341a.919.919,0,0,0-.359-.766,1.641,1.641,0,0,0-1.029-.28,1.61,1.61,0,0,0-1.025.3.917.917,0,0,0-.376.749V0H41.132V-4.341a.916.916,0,0,0-.362-.766,1.669,1.669,0,0,0-1.039-.28,1.61,1.61,0,0,0-1.025.3.917.917,0,0,0-.376.749V0ZM47.722-3.165a3.513,3.513,0,0,1,.284-1.422,2.983,2.983,0,0,1,.742-1.056,3.462,3.462,0,0,1,1.008-.629,2.945,2.945,0,0,1,1.111-.222,3.156,3.156,0,0,1,1.166.208,2.453,2.453,0,0,1,.868.554,2.584,2.584,0,0,1,.526.772,2.145,2.145,0,0,1,.188.872,2.722,2.722,0,0,1-.041.52l-.718.711H49.034a1.653,1.653,0,0,0,.164.629,2.375,2.375,0,0,0,.417.608,2,2,0,0,0,.708.472,2.48,2.48,0,0,0,.967.185,3.431,3.431,0,0,0,2.03-.649L53-.253a3.965,3.965,0,0,1-1.88.41,3.493,3.493,0,0,1-1.675-.414A3.252,3.252,0,0,1,48.2-1.439,3.218,3.218,0,0,1,47.722-3.165Zm1.395-.725h3.192a.771.771,0,0,0,.014-.171,1.335,1.335,0,0,0-.39-.926,1.292,1.292,0,0,0-.991-.42,1.825,1.825,0,0,0-1.159.434A1.777,1.777,0,0,0,49.116-3.89ZM54.872,0V-6.344h1.114l.062.629a2.443,2.443,0,0,1,.813-.6A2.96,2.96,0,0,1,58-6.494a2.457,2.457,0,0,1,1.736.625A2.166,2.166,0,0,1,60.416-4.2V0H59.138V-4.074a1.335,1.335,0,0,0-.362-.943,1.443,1.443,0,0,0-1.107-.39,1.528,1.528,0,0,0-1.125.4,1.275,1.275,0,0,0-.4.937V0ZM61.3-5.318V-6.344h1.251V-7.629l1.258-.656v1.941h2.242L65.83-5.318H63.813v3.527a.709.709,0,0,0,.267.588,1.043,1.043,0,0,0,.67.212,2.146,2.146,0,0,0,.7-.1L65.2.041A2.194,2.194,0,0,1,64.627.1,2.181,2.181,0,0,1,63.14-.414a1.782,1.782,0,0,1-.584-1.418V-5.318ZM70.349,0V-8.935h4.942v1.162H71.709v2.707H74.73V-3.9H71.709V0Zm6.187-1.5v-8.47h1.271v8.3a1.012,1.012,0,0,0,.267.7,1.026,1.026,0,0,0,.588.349l-.868.868A1.526,1.526,0,0,1,77.414.1a2.206,2.206,0,0,1-.4-.3,1.417,1.417,0,0,1-.345-.53A2.058,2.058,0,0,1,76.535-1.5Zm3.117-1.668a3.183,3.183,0,0,1,.967-2.4,3.325,3.325,0,0,1,2.4-.933,3.314,3.314,0,0,1,2.4.933,3.189,3.189,0,0,1,.964,2.4,3.343,3.343,0,0,1-.448,1.726A3.11,3.11,0,0,1,84.725-.26a3.5,3.5,0,0,1-1.7.417A3.52,3.52,0,0,1,81.317-.26,3.1,3.1,0,0,1,80.1-1.439,3.343,3.343,0,0,1,79.652-3.165Zm1.285,0a2.156,2.156,0,0,0,.612,1.583,2,2,0,0,0,1.473.619,1.978,1.978,0,0,0,1.463-.619,2.162,2.162,0,0,0,.608-1.583,2.171,2.171,0,0,0-.608-1.589,1.978,1.978,0,0,0-1.463-.619,2,2,0,0,0-1.477.615A2.168,2.168,0,0,0,80.938-3.165Zm6.07-3.179h1.21l.991,2.687q.232.629.431,1.333h.034q.4-1.217.444-1.333l1-2.687h.923l1,2.687q.232.608.438,1.333h.027q.1-.362.444-1.333l1-2.687H96.1L93.7.109h-.458L92.094-2.939q-.267-.69-.533-1.565h-.027q-.273.916-.52,1.538L89.865.109h-.458Zm9.721,3.179a3.305,3.305,0,0,1,.294-1.4A3.032,3.032,0,0,1,97.8-5.616a3.65,3.65,0,0,1,1.1-.646,3.569,3.569,0,0,1,1.271-.232,4.139,4.139,0,0,1,2.03.472L101.965-4.9a3.127,3.127,0,0,0-1.709-.472,2.256,2.256,0,0,0-1.579.608,2.068,2.068,0,0,0-.663,1.6A2.121,2.121,0,0,0,98.342-2a2.133,2.133,0,0,0,.841.772,2.4,2.4,0,0,0,1.1.26,4.27,4.27,0,0,0,1.818-.451l-.267,1.244a3.976,3.976,0,0,1-1.668.328,3.643,3.643,0,0,1-1.658-.39,3.252,3.252,0,0,1-1.278-1.162A3.175,3.175,0,0,1,96.729-3.165ZM103.482,0V-9.967h1.271v4.143a2.246,2.246,0,0,1,.779-.513,3.135,3.135,0,0,1,1.087-.157,2.445,2.445,0,0,1,1.733.625,2.172,2.172,0,0,1,.673,1.671V0h-1.271V-4.074a1.329,1.329,0,0,0-.366-.943,1.454,1.454,0,0,0-1.111-.39,1.528,1.528,0,0,0-1.125.4,1.275,1.275,0,0,0-.4.937V0Zm6.8-1.791a1.8,1.8,0,0,1,.608-1.415,2.484,2.484,0,0,1,1.477-.615l1.483-.144v-.4a1,1,0,0,0-.3-.752,1.3,1.3,0,0,0-.933-.287,3.1,3.1,0,0,0-1.75.506l-.253-1.046a3.7,3.7,0,0,1,2.071-.547,2.54,2.54,0,0,1,1.764.6,2.161,2.161,0,0,1,.67,1.7v2.557a1.058,1.058,0,0,0,.2.673.815.815,0,0,0,.516.311l-.813.813a1.215,1.215,0,0,1-.571-.294,1.25,1.25,0,0,1-.352-.52,2.1,2.1,0,0,1-1.777.813,1.984,1.984,0,0,1-1.477-.574A1.886,1.886,0,0,1,110.284-1.791Zm1.217.014a.825.825,0,0,0,.253.6.848.848,0,0,0,.629.256,1.47,1.47,0,0,0,1-.427,1.312,1.312,0,0,0,.472-1v-.561l-1.258.109a1.223,1.223,0,0,0-.813.345A.964.964,0,0,0,111.5-1.777ZM117.079,0V-6.344h1.2l.055,1a1.54,1.54,0,0,1,.813-.82,3.242,3.242,0,0,1,1.347-.26l.239,1.08h-.13a2.6,2.6,0,0,0-.793.12,2.369,2.369,0,0,0-.714.376,1.771,1.771,0,0,0-.543.735,2.829,2.829,0,0,0-.205,1.121V0Zm4.156-5.318V-6.344h1.251V-7.629l1.258-.656v1.941h2.242l-.226,1.025h-2.017v3.527a.709.709,0,0,0,.267.588,1.043,1.043,0,0,0,.67.212,2.146,2.146,0,0,0,.7-.1L125.132.041a2.194,2.194,0,0,1-.574.055,2.181,2.181,0,0,1-1.487-.509,1.782,1.782,0,0,1-.584-1.418V-5.318Zm5.291,3.609a3.274,3.274,0,0,0,.967.567,3.108,3.108,0,0,0,1.131.219,1.171,1.171,0,0,0,.728-.215.656.656,0,0,0,.284-.543.719.719,0,0,0-.226-.543,1.934,1.934,0,0,0-.684-.379,4.138,4.138,0,0,1-1.477-.851,1.647,1.647,0,0,1-.485-1.22,1.649,1.649,0,0,1,.591-1.309,2.268,2.268,0,0,1,1.535-.509,3.614,3.614,0,0,1,.964.13,2.556,2.556,0,0,1,.69.273l-.239,1.066a2.415,2.415,0,0,0-1.429-.41.968.968,0,0,0-.639.2.641.641,0,0,0-.243.516.6.6,0,0,0,.219.479,2.406,2.406,0,0,0,.711.362,4.066,4.066,0,0,1,1.5.858,1.74,1.74,0,0,1,.485,1.282,1.743,1.743,0,0,1-.6,1.354,2.472,2.472,0,0,1-1.709.54,3.771,3.771,0,0,1-1-.13,2.59,2.59,0,0,1-.772-.335Z" transform="translate(-1508.445 6957.303)" fill="#797979"/>
    <path id="Action_Plan_resolution_and_Monitoring" data-name="Action Plan, resolution and Monitoring" d="M.28,0,4.088-9.058H4.58L8.388,0H7.014L6.05-2.311H2.577L1.613,0ZM3.035-3.391h2.55L4.7-5.571a9.688,9.688,0,0,1-.376-1.094H4.3a8.006,8.006,0,0,1-.383,1.094Zm6.118.226a3.305,3.305,0,0,1,.294-1.4,3.032,3.032,0,0,1,.776-1.053,3.65,3.65,0,0,1,1.1-.646,3.569,3.569,0,0,1,1.271-.232,4.139,4.139,0,0,1,2.03.472L14.39-4.9a3.127,3.127,0,0,0-1.709-.472,2.256,2.256,0,0,0-1.579.608,2.068,2.068,0,0,0-.663,1.6A2.121,2.121,0,0,0,10.767-2a2.133,2.133,0,0,0,.841.772,2.4,2.4,0,0,0,1.1.26,4.27,4.27,0,0,0,1.818-.451L14.26-.171a3.976,3.976,0,0,1-1.668.328,3.643,3.643,0,0,1-1.658-.39A3.252,3.252,0,0,1,9.656-1.395,3.175,3.175,0,0,1,9.153-3.165ZM15.23-5.318V-6.344h1.251V-7.629l1.258-.656v1.941h2.242l-.226,1.025H17.739v3.527a.709.709,0,0,0,.267.588,1.043,1.043,0,0,0,.67.212,2.146,2.146,0,0,0,.7-.1L19.127.041A2.194,2.194,0,0,1,18.553.1a2.181,2.181,0,0,1-1.487-.509,1.782,1.782,0,0,1-.584-1.418V-5.318Zm5.838-3.015a.793.793,0,0,1,.291-.489.793.793,0,0,1,.482-.291.793.793,0,0,1,.489.291.793.793,0,0,1,.291.489.793.793,0,0,1-.291.482.793.793,0,0,1-.489.291.793.793,0,0,1-.482-.291A.793.793,0,0,1,21.068-8.333ZM21.2,0V-6.344h1.285V0Zm2.823-3.165a3.183,3.183,0,0,1,.967-2.4,3.325,3.325,0,0,1,2.4-.933,3.314,3.314,0,0,1,2.4.933,3.189,3.189,0,0,1,.964,2.4,3.343,3.343,0,0,1-.448,1.726A3.11,3.11,0,0,1,29.094-.26a3.5,3.5,0,0,1-1.7.417A3.52,3.52,0,0,1,25.686-.26a3.1,3.1,0,0,1-1.217-1.179A3.343,3.343,0,0,1,24.021-3.165Zm1.285,0a2.156,2.156,0,0,0,.612,1.583,2,2,0,0,0,1.473.619,1.978,1.978,0,0,0,1.463-.619,2.162,2.162,0,0,0,.608-1.583,2.171,2.171,0,0,0-.608-1.589,1.978,1.978,0,0,0-1.463-.619,2,2,0,0,0-1.477.615A2.168,2.168,0,0,0,25.307-3.165ZM32.013,0V-6.344h1.114l.062.629a2.443,2.443,0,0,1,.813-.6,2.96,2.96,0,0,1,1.142-.181,2.457,2.457,0,0,1,1.736.625A2.166,2.166,0,0,1,37.557-4.2V0H36.278V-4.074a1.335,1.335,0,0,0-.362-.943,1.443,1.443,0,0,0-1.107-.39,1.528,1.528,0,0,0-1.125.4,1.275,1.275,0,0,0-.4.937V0ZM42.451,0V-8.935h2.687a2.977,2.977,0,0,1,.954.157,2.956,2.956,0,0,1,.861.458,2.207,2.207,0,0,1,.636.793,2.455,2.455,0,0,1,.243,1.1,2.455,2.455,0,0,1-.243,1.1,2.207,2.207,0,0,1-.636.793,2.956,2.956,0,0,1-.861.458,2.977,2.977,0,0,1-.954.157H43.8V0ZM43.8-5.065h1.107A1.717,1.717,0,0,0,46-5.414a1.209,1.209,0,0,0,.444-1.012A1.207,1.207,0,0,0,46-7.434a1.71,1.71,0,0,0-1.09-.352H43.8ZM49.13-1.5v-8.47H50.4v8.3a1.012,1.012,0,0,0,.267.7,1.026,1.026,0,0,0,.588.349l-.868.868A1.526,1.526,0,0,1,50.008.1a2.206,2.206,0,0,1-.4-.3,1.417,1.417,0,0,1-.345-.53A2.058,2.058,0,0,1,49.13-1.5Zm3.117-.294a1.8,1.8,0,0,1,.608-1.415,2.484,2.484,0,0,1,1.477-.615l1.483-.144v-.4a1,1,0,0,0-.3-.752,1.3,1.3,0,0,0-.933-.287,3.1,3.1,0,0,0-1.75.506l-.253-1.046a3.7,3.7,0,0,1,2.071-.547,2.54,2.54,0,0,1,1.764.6,2.161,2.161,0,0,1,.67,1.7v2.557a1.058,1.058,0,0,0,.2.673.815.815,0,0,0,.516.311l-.813.813a1.215,1.215,0,0,1-.571-.294,1.25,1.25,0,0,1-.352-.52,2.1,2.1,0,0,1-1.777.813,1.984,1.984,0,0,1-1.477-.574A1.886,1.886,0,0,1,52.247-1.791Zm1.217.014a.825.825,0,0,0,.253.6.848.848,0,0,0,.629.256,1.47,1.47,0,0,0,1-.427,1.312,1.312,0,0,0,.472-1v-.561L54.558-2.8a1.223,1.223,0,0,0-.813.345A.964.964,0,0,0,53.464-1.777ZM58.905,0V-6.344H60.02l.062.629a2.443,2.443,0,0,1,.813-.6,2.96,2.96,0,0,1,1.142-.181,2.457,2.457,0,0,1,1.736.625A2.166,2.166,0,0,1,64.449-4.2V0H63.171V-4.074a1.335,1.335,0,0,0-.362-.943,1.443,1.443,0,0,0-1.107-.39,1.528,1.528,0,0,0-1.125.4,1.275,1.275,0,0,0-.4.937V0Zm6.6,1.75A5.39,5.39,0,0,0,66.121.8a3.05,3.05,0,0,0,.3-.824A.923.923,0,0,1,65.98-.3a.638.638,0,0,1-.246-.4.832.832,0,0,1,.325-.533.9.9,0,0,1,.53-.308.926.926,0,0,1,.523.308.828.828,0,0,1,.332.533A2.847,2.847,0,0,1,66.972.543,5.662,5.662,0,0,1,66,1.832ZM72.1,0V-8.935h2.83a2.977,2.977,0,0,1,.954.157,2.957,2.957,0,0,1,.861.458,2.175,2.175,0,0,1,.632.793,2.484,2.484,0,0,1,.239,1.1,2.335,2.335,0,0,1-.434,1.432,2.575,2.575,0,0,1-1.131.865L79.1,0H77.52L74.7-3.917H73.445V0Zm1.347-5.065h1.244a1.717,1.717,0,0,0,1.094-.349,1.209,1.209,0,0,0,.444-1.012,1.207,1.207,0,0,0-.448-1.008,1.71,1.71,0,0,0-1.09-.352H73.445Zm6,1.9a3.513,3.513,0,0,1,.284-1.422,2.983,2.983,0,0,1,.742-1.056,3.462,3.462,0,0,1,1.008-.629,2.945,2.945,0,0,1,1.111-.222,3.156,3.156,0,0,1,1.166.208,2.453,2.453,0,0,1,.868.554,2.584,2.584,0,0,1,.526.772,2.145,2.145,0,0,1,.188.872,2.722,2.722,0,0,1-.041.52l-.718.711H80.76a1.653,1.653,0,0,0,.164.629,2.374,2.374,0,0,0,.417.608,2,2,0,0,0,.708.472,2.48,2.48,0,0,0,.967.185,3.431,3.431,0,0,0,2.03-.649l-.321,1.36a3.965,3.965,0,0,1-1.88.41A3.493,3.493,0,0,1,81.17-.256a3.252,3.252,0,0,1-1.248-1.183A3.218,3.218,0,0,1,79.447-3.165Zm1.395-.725h3.192a.771.771,0,0,0,.014-.171,1.335,1.335,0,0,0-.39-.926,1.292,1.292,0,0,0-.991-.42,1.825,1.825,0,0,0-1.159.434A1.777,1.777,0,0,0,80.842-3.89ZM86.2-1.709a3.274,3.274,0,0,0,.967.567A3.108,3.108,0,0,0,88.3-.923a1.171,1.171,0,0,0,.728-.215.656.656,0,0,0,.284-.543.719.719,0,0,0-.226-.543A1.934,1.934,0,0,0,88.4-2.6a4.138,4.138,0,0,1-1.477-.851,1.647,1.647,0,0,1-.485-1.22,1.649,1.649,0,0,1,.591-1.309,2.268,2.268,0,0,1,1.535-.509,3.614,3.614,0,0,1,.964.13,2.556,2.556,0,0,1,.69.273l-.239,1.066a2.415,2.415,0,0,0-1.429-.41.968.968,0,0,0-.639.2.641.641,0,0,0-.243.516.6.6,0,0,0,.219.479,2.406,2.406,0,0,0,.711.362,4.066,4.066,0,0,1,1.5.858,1.74,1.74,0,0,1,.485,1.282,1.743,1.743,0,0,1-.6,1.354,2.472,2.472,0,0,1-1.709.54,3.771,3.771,0,0,1-1-.13A2.59,2.59,0,0,1,86.5-.308Zm5.284-1.456a3.183,3.183,0,0,1,.967-2.4,3.325,3.325,0,0,1,2.4-.933,3.314,3.314,0,0,1,2.4.933,3.189,3.189,0,0,1,.964,2.4,3.343,3.343,0,0,1-.448,1.726A3.11,3.11,0,0,1,96.558-.26a3.5,3.5,0,0,1-1.7.417A3.52,3.52,0,0,1,93.15-.26a3.1,3.1,0,0,1-1.217-1.179A3.343,3.343,0,0,1,91.485-3.165Zm1.285,0a2.156,2.156,0,0,0,.612,1.583,2,2,0,0,0,1.473.619,1.978,1.978,0,0,0,1.463-.619,2.162,2.162,0,0,0,.608-1.583,2.171,2.171,0,0,0-.608-1.589,1.978,1.978,0,0,0-1.463-.619,2,2,0,0,0-1.477.615A2.168,2.168,0,0,0,92.771-3.165ZM99.757-1.5v-8.47h1.271v8.3a1.012,1.012,0,0,0,.267.7,1.026,1.026,0,0,0,.588.349l-.868.868A1.526,1.526,0,0,1,100.635.1a2.206,2.206,0,0,1-.4-.3,1.417,1.417,0,0,1-.345-.53A2.058,2.058,0,0,1,99.757-1.5Zm3.4-.643v-4.2h1.271V-2.27a1.335,1.335,0,0,0,.362.943,1.443,1.443,0,0,0,1.107.39,1.528,1.528,0,0,0,1.125-.4,1.275,1.275,0,0,0,.4-.937V-6.344H108.7V0h-1.121l-.055-.629a2.476,2.476,0,0,1-.817.6,2.937,2.937,0,0,1-1.145.185,2.445,2.445,0,0,1-1.733-.625A2.172,2.172,0,0,1,103.154-2.14Zm6.433-3.179V-6.344h1.251V-7.629l1.258-.656v1.941h2.242l-.226,1.025H112.1v3.527a.709.709,0,0,0,.267.588,1.043,1.043,0,0,0,.67.212,2.146,2.146,0,0,0,.7-.1L113.483.041a2.194,2.194,0,0,1-.574.055,2.181,2.181,0,0,1-1.487-.509,1.782,1.782,0,0,1-.584-1.418V-5.318Zm5.838-3.015a.793.793,0,0,1,.291-.489.793.793,0,0,1,.482-.291.793.793,0,0,1,.489.291.793.793,0,0,1,.291.489.793.793,0,0,1-.291.482.793.793,0,0,1-.489.291.793.793,0,0,1-.482-.291A.793.793,0,0,1,115.425-8.333ZM115.555,0V-6.344h1.285V0Zm2.823-3.165a3.183,3.183,0,0,1,.967-2.4,3.325,3.325,0,0,1,2.4-.933,3.314,3.314,0,0,1,2.4.933,3.189,3.189,0,0,1,.964,2.4,3.343,3.343,0,0,1-.448,1.726A3.11,3.11,0,0,1,123.45-.26a3.5,3.5,0,0,1-1.7.417,3.52,3.52,0,0,1-1.706-.417,3.1,3.1,0,0,1-1.217-1.179A3.343,3.343,0,0,1,118.378-3.165Zm1.285,0a2.156,2.156,0,0,0,.612,1.583,2,2,0,0,0,1.473.619,1.978,1.978,0,0,0,1.463-.619,2.162,2.162,0,0,0,.608-1.583,2.171,2.171,0,0,0-.608-1.589,1.978,1.978,0,0,0-1.463-.619,2,2,0,0,0-1.477.615A2.168,2.168,0,0,0,119.663-3.165ZM126.369,0V-6.344h1.114l.062.629a2.444,2.444,0,0,1,.813-.6,2.96,2.96,0,0,1,1.142-.181,2.457,2.457,0,0,1,1.736.625,2.166,2.166,0,0,1,.677,1.671V0h-1.278V-4.074a1.336,1.336,0,0,0-.362-.943,1.443,1.443,0,0,0-1.107-.39,1.528,1.528,0,0,0-1.125.4,1.275,1.275,0,0,0-.4.937V0Zm10.021-1.791A1.8,1.8,0,0,1,137-3.206a2.484,2.484,0,0,1,1.477-.615l1.483-.144v-.4a1,1,0,0,0-.3-.752,1.3,1.3,0,0,0-.933-.287,3.1,3.1,0,0,0-1.75.506l-.253-1.046a3.7,3.7,0,0,1,2.071-.547,2.54,2.54,0,0,1,1.764.6,2.161,2.161,0,0,1,.67,1.7v2.557a1.058,1.058,0,0,0,.2.673.815.815,0,0,0,.516.311l-.813.813a1.215,1.215,0,0,1-.571-.294,1.25,1.25,0,0,1-.352-.52,2.1,2.1,0,0,1-1.777.813,1.984,1.984,0,0,1-1.477-.574A1.886,1.886,0,0,1,136.391-1.791Zm1.217.014a.825.825,0,0,0,.253.6.848.848,0,0,0,.629.256,1.47,1.47,0,0,0,1-.427,1.312,1.312,0,0,0,.472-1v-.561L138.7-2.8a1.223,1.223,0,0,0-.813.345A.964.964,0,0,0,137.607-1.777ZM143.049,0V-6.344h1.114l.062.629a2.444,2.444,0,0,1,.813-.6,2.96,2.96,0,0,1,1.142-.181,2.457,2.457,0,0,1,1.736.625,2.166,2.166,0,0,1,.677,1.671V0h-1.278V-4.074a1.336,1.336,0,0,0-.362-.943,1.443,1.443,0,0,0-1.107-.39,1.528,1.528,0,0,0-1.125.4,1.275,1.275,0,0,0-.4.937V0Zm6.8-3.165a3.2,3.2,0,0,1,.957-2.393,3.275,3.275,0,0,1,2.386-.937,2.812,2.812,0,0,1,1.586.417v-3.89h1.271V0h-1.094l-.041-.506a2.577,2.577,0,0,1-1.962.663,2.839,2.839,0,0,1-1.063-.215,3.52,3.52,0,0,1-1-.615,2.956,2.956,0,0,1-.752-1.053A3.5,3.5,0,0,1,149.851-3.165Zm1.285,0a2.187,2.187,0,0,0,.595,1.586,1.955,1.955,0,0,0,1.463.615,2.3,2.3,0,0,0,.909-.178,1.857,1.857,0,0,0,.677-.472V-4.785a2.024,2.024,0,0,0-.687-.424,2.451,2.451,0,0,0-.9-.164,1.955,1.955,0,0,0-1.463.615A2.2,2.2,0,0,0,151.136-3.165ZM160.877,0l.766-8.935h.841l2.379,4.594q.772,1.49,1.121,2.3h.027q.28-.69,1.094-2.3l2.352-4.594h.841L171.1,0H169.8l-.362-4.033q-.1-1.06-.137-2.03h-.034q-.376.834-1,2.071L166.2.068h-.506l-2.1-4.061q-.321-.608-.991-2.044h-.034q-.021.472-.137,2L162.08,0Zm11.334-3.165a3.183,3.183,0,0,1,.967-2.4,3.325,3.325,0,0,1,2.4-.933,3.314,3.314,0,0,1,2.4.933,3.189,3.189,0,0,1,.964,2.4,3.343,3.343,0,0,1-.448,1.726A3.11,3.11,0,0,1,177.283-.26a3.5,3.5,0,0,1-1.7.417,3.52,3.52,0,0,1-1.706-.417,3.1,3.1,0,0,1-1.217-1.179A3.343,3.343,0,0,1,172.211-3.165Zm1.285,0a2.156,2.156,0,0,0,.612,1.583,2,2,0,0,0,1.473.619,1.978,1.978,0,0,0,1.463-.619,2.162,2.162,0,0,0,.608-1.583,2.171,2.171,0,0,0-.608-1.589,1.978,1.978,0,0,0-1.463-.619,2,2,0,0,0-1.477.615A2.168,2.168,0,0,0,173.5-3.165ZM180.2,0V-6.344h1.114l.062.629a2.444,2.444,0,0,1,.813-.6,2.96,2.96,0,0,1,1.142-.181,2.457,2.457,0,0,1,1.736.625,2.166,2.166,0,0,1,.677,1.671V0h-1.278V-4.074a1.336,1.336,0,0,0-.362-.943A1.443,1.443,0,0,0,183-5.407a1.528,1.528,0,0,0-1.125.4,1.275,1.275,0,0,0-.4.937V0Zm7.232-8.333a.793.793,0,0,1,.291-.489.793.793,0,0,1,.482-.291.793.793,0,0,1,.489.291.793.793,0,0,1,.291.489.793.793,0,0,1-.291.482.793.793,0,0,1-.489.291.793.793,0,0,1-.482-.291A.793.793,0,0,1,187.435-8.333ZM187.564,0V-6.344h1.285V0Zm2.454-5.318V-6.344h1.251V-7.629l1.258-.656v1.941h2.242l-.226,1.025h-2.017v3.527a.709.709,0,0,0,.267.588,1.043,1.043,0,0,0,.67.212,2.146,2.146,0,0,0,.7-.1L193.915.041a2.194,2.194,0,0,1-.574.055,2.181,2.181,0,0,1-1.487-.509,1.782,1.782,0,0,1-.584-1.418V-5.318Zm5.271,2.153a3.183,3.183,0,0,1,.967-2.4,3.325,3.325,0,0,1,2.4-.933,3.314,3.314,0,0,1,2.4.933,3.189,3.189,0,0,1,.964,2.4,3.343,3.343,0,0,1-.448,1.726A3.11,3.11,0,0,1,200.361-.26a3.5,3.5,0,0,1-1.7.417,3.52,3.52,0,0,1-1.706-.417,3.1,3.1,0,0,1-1.217-1.179A3.343,3.343,0,0,1,195.289-3.165Zm1.285,0a2.156,2.156,0,0,0,.612,1.583,2,2,0,0,0,1.473.619,1.978,1.978,0,0,0,1.463-.619,2.162,2.162,0,0,0,.608-1.583,2.171,2.171,0,0,0-.608-1.589,1.978,1.978,0,0,0-1.463-.619,2,2,0,0,0-1.477.615A2.168,2.168,0,0,0,196.574-3.165ZM203.417,0V-6.344h1.2l.055,1a1.54,1.54,0,0,1,.813-.82,3.242,3.242,0,0,1,1.347-.26l.239,1.08h-.13a2.6,2.6,0,0,0-.793.12,2.369,2.369,0,0,0-.714.376,1.771,1.771,0,0,0-.543.735,2.829,2.829,0,0,0-.205,1.121V0ZM208.2-8.333a.793.793,0,0,1,.291-.489.793.793,0,0,1,.482-.291.793.793,0,0,1,.489.291.793.793,0,0,1,.291.489.793.793,0,0,1-.291.482.793.793,0,0,1-.489.291.793.793,0,0,1-.482-.291A.793.793,0,0,1,208.2-8.333ZM208.332,0V-6.344h1.285V0Zm3.1,0V-6.344h1.114l.062.629a2.444,2.444,0,0,1,.813-.6,2.96,2.96,0,0,1,1.142-.181,2.457,2.457,0,0,1,1.736.625,2.166,2.166,0,0,1,.677,1.671V0H215.7V-4.074a1.336,1.336,0,0,0-.362-.943,1.443,1.443,0,0,0-1.107-.39,1.528,1.528,0,0,0-1.125.4,1.275,1.275,0,0,0-.4.937V0Zm6.631.95a1.937,1.937,0,0,1,.386-1.193,1.97,1.97,0,0,1,.933-.708l-.649-.643a.974.974,0,0,1,.212-.6,1.558,1.558,0,0,1,.506-.434,2.277,2.277,0,0,1-.69-.759,1.957,1.957,0,0,1-.246-.964,1.979,1.979,0,0,1,.667-1.538,2.458,2.458,0,0,1,1.712-.6,3.094,3.094,0,0,1,.779.1,3.364,3.364,0,0,0,.813.082,2.122,2.122,0,0,0,.937-.219l.239,1.046a.919.919,0,0,1-.273.109,1.618,1.618,0,0,1-.355.062,1.9,1.9,0,0,1,.226.964,2.03,2.03,0,0,1-.646,1.514,2.367,2.367,0,0,1-1.719.625,1.787,1.787,0,0,0-.612.079.28.28,0,0,0-.2.277q0,.144.185.219l1.736.6a3.062,3.062,0,0,1,1.33.82,1.984,1.984,0,0,1,.448,1.354,1.814,1.814,0,0,1-.786,1.5,3.3,3.3,0,0,1-2.044.595,3.224,3.224,0,0,1-2.088-.643A2.017,2.017,0,0,1,218.066.95Zm1.135,0a1.123,1.123,0,0,0,.455.889,1.935,1.935,0,0,0,1.268.376,2.019,2.019,0,0,0,1.234-.335.949.949,0,0,0,.448-.759q0-.779-.984-1.08l-1.1-.321a1.32,1.32,0,0,0-.95.352A1.164,1.164,0,0,0,219.2.95Zm.479-5.3a1.01,1.01,0,0,0,.349.776,1.24,1.24,0,0,0,.868.318,1.225,1.225,0,0,0,.844-.321,1,1,0,0,0,.359-.772,1.021,1.021,0,0,0-.345-.769,1.2,1.2,0,0,0-.858-.325,1.221,1.221,0,0,0-.865.328A1.016,1.016,0,0,0,219.68-4.354Z" transform="translate(-1428.937 7059.303)" fill="#797979"/>
    <path id="Musim_Mas" data-name="Musim Mas" d="M.772,0l.766-8.935h.841L4.758-4.341q.772,1.49,1.121,2.3h.027q.28-.69,1.094-2.3L9.352-8.935h.841L10.992,0H9.7L9.338-4.033q-.1-1.06-.137-2.03H9.167q-.376.834-1,2.071L6.091.068H5.585l-2.1-4.061Q3.165-4.6,2.5-6.036H2.461q-.021.472-.137,2L1.976,0ZM12.387-2.14v-4.2h1.271V-2.27a1.335,1.335,0,0,0,.362.943,1.443,1.443,0,0,0,1.107.39,1.528,1.528,0,0,0,1.125-.4,1.275,1.275,0,0,0,.4-.937V-6.344h1.278V0H16.81l-.055-.629a2.476,2.476,0,0,1-.817.6,2.937,2.937,0,0,1-1.145.185A2.445,2.445,0,0,1,13.06-.468,2.172,2.172,0,0,1,12.387-2.14Zm6.686.431a3.273,3.273,0,0,0,.967.567,3.108,3.108,0,0,0,1.131.219,1.171,1.171,0,0,0,.728-.215.656.656,0,0,0,.284-.543.719.719,0,0,0-.226-.543,1.934,1.934,0,0,0-.684-.379A4.138,4.138,0,0,1,19.8-3.456a1.647,1.647,0,0,1-.485-1.22A1.649,1.649,0,0,1,19.9-5.985a2.268,2.268,0,0,1,1.535-.509,3.614,3.614,0,0,1,.964.13,2.556,2.556,0,0,1,.69.273l-.239,1.066a2.415,2.415,0,0,0-1.429-.41.968.968,0,0,0-.639.2.641.641,0,0,0-.243.516.6.6,0,0,0,.219.479,2.406,2.406,0,0,0,.711.362,4.066,4.066,0,0,1,1.5.858,1.74,1.74,0,0,1,.485,1.282,1.743,1.743,0,0,1-.6,1.354,2.472,2.472,0,0,1-1.709.54,3.771,3.771,0,0,1-1-.13,2.59,2.59,0,0,1-.772-.335Zm5.8-6.624a.793.793,0,0,1,.291-.489.793.793,0,0,1,.482-.291.793.793,0,0,1,.489.291.793.793,0,0,1,.291.489.793.793,0,0,1-.291.482.793.793,0,0,1-.489.291.793.793,0,0,1-.482-.291A.793.793,0,0,1,24.869-8.333ZM25,0V-6.344h1.285V0Zm3.1,0V-6.344h1.114l.062.629a2.4,2.4,0,0,1,.8-.6,2.908,2.908,0,0,1,1.125-.178,2.186,2.186,0,0,1,1.042.256,1.957,1.957,0,0,1,.735.639,2.876,2.876,0,0,1,2.283-.9,2.293,2.293,0,0,1,1.6.581,1.893,1.893,0,0,1,.639,1.463V0H36.237V-4.341a.919.919,0,0,0-.359-.766,1.641,1.641,0,0,0-1.029-.28,1.61,1.61,0,0,0-1.025.3.917.917,0,0,0-.376.749V0H32.177V-4.341a.916.916,0,0,0-.362-.766,1.669,1.669,0,0,0-1.039-.28,1.61,1.61,0,0,0-1.025.3.917.917,0,0,0-.376.749V0ZM42.267,0l.766-8.935h.841l2.379,4.594q.772,1.49,1.121,2.3H47.4q.28-.69,1.094-2.3l2.352-4.594h.841L52.486,0H51.194l-.362-4.033q-.1-1.06-.137-2.03h-.034q-.376.834-1,2.071L47.585.068h-.506l-2.1-4.061q-.321-.608-.991-2.044h-.034q-.021.472-.137,2L43.47,0ZM53.6-1.791a1.8,1.8,0,0,1,.608-1.415,2.484,2.484,0,0,1,1.477-.615l1.483-.144v-.4a1,1,0,0,0-.3-.752,1.3,1.3,0,0,0-.933-.287,3.1,3.1,0,0,0-1.75.506l-.253-1.046a3.7,3.7,0,0,1,2.071-.547,2.54,2.54,0,0,1,1.764.6,2.161,2.161,0,0,1,.67,1.7v2.557a1.058,1.058,0,0,0,.2.673.815.815,0,0,0,.516.311l-.813.813a1.215,1.215,0,0,1-.571-.294,1.25,1.25,0,0,1-.352-.52,2.1,2.1,0,0,1-1.777.813,1.984,1.984,0,0,1-1.477-.574A1.886,1.886,0,0,1,53.6-1.791Zm1.217.014a.825.825,0,0,0,.253.6.848.848,0,0,0,.629.256,1.47,1.47,0,0,0,1-.427,1.312,1.312,0,0,0,.472-1v-.561L55.911-2.8a1.223,1.223,0,0,0-.813.345A.964.964,0,0,0,54.817-1.777Zm5.045.068a3.273,3.273,0,0,0,.967.567,3.108,3.108,0,0,0,1.131.219,1.171,1.171,0,0,0,.728-.215.656.656,0,0,0,.284-.543.719.719,0,0,0-.226-.543,1.934,1.934,0,0,0-.684-.379,4.138,4.138,0,0,1-1.477-.851,1.647,1.647,0,0,1-.485-1.22,1.649,1.649,0,0,1,.591-1.309,2.268,2.268,0,0,1,1.535-.509,3.614,3.614,0,0,1,.964.13,2.556,2.556,0,0,1,.69.273l-.239,1.066a2.415,2.415,0,0,0-1.429-.41.968.968,0,0,0-.639.2.641.641,0,0,0-.243.516.6.6,0,0,0,.219.479,2.406,2.406,0,0,0,.711.362,4.066,4.066,0,0,1,1.5.858,1.74,1.74,0,0,1,.485,1.282,1.743,1.743,0,0,1-.6,1.354,2.472,2.472,0,0,1-1.709.54,3.771,3.771,0,0,1-1-.13,2.59,2.59,0,0,1-.772-.335Z" transform="translate(-1561.77 6855.303)" fill="#797979"/>
    <path id="Musim_Mas-2" data-name="Musim Mas" d="M.772,0l.766-8.935h.841L4.758-4.341q.772,1.49,1.121,2.3h.027q.28-.69,1.094-2.3L9.352-8.935h.841L10.992,0H9.7L9.338-4.033q-.1-1.06-.137-2.03H9.167q-.376.834-1,2.071L6.091.068H5.585l-2.1-4.061Q3.165-4.6,2.5-6.036H2.461q-.021.472-.137,2L1.976,0ZM12.387-2.14v-4.2h1.271V-2.27a1.335,1.335,0,0,0,.362.943,1.443,1.443,0,0,0,1.107.39,1.528,1.528,0,0,0,1.125-.4,1.275,1.275,0,0,0,.4-.937V-6.344h1.278V0H16.81l-.055-.629a2.476,2.476,0,0,1-.817.6,2.937,2.937,0,0,1-1.145.185A2.445,2.445,0,0,1,13.06-.468,2.172,2.172,0,0,1,12.387-2.14Zm6.686.431a3.273,3.273,0,0,0,.967.567,3.108,3.108,0,0,0,1.131.219,1.171,1.171,0,0,0,.728-.215.656.656,0,0,0,.284-.543.719.719,0,0,0-.226-.543,1.934,1.934,0,0,0-.684-.379A4.138,4.138,0,0,1,19.8-3.456a1.647,1.647,0,0,1-.485-1.22A1.649,1.649,0,0,1,19.9-5.985a2.268,2.268,0,0,1,1.535-.509,3.614,3.614,0,0,1,.964.13,2.556,2.556,0,0,1,.69.273l-.239,1.066a2.415,2.415,0,0,0-1.429-.41.968.968,0,0,0-.639.2.641.641,0,0,0-.243.516.6.6,0,0,0,.219.479,2.406,2.406,0,0,0,.711.362,4.066,4.066,0,0,1,1.5.858,1.74,1.74,0,0,1,.485,1.282,1.743,1.743,0,0,1-.6,1.354,2.472,2.472,0,0,1-1.709.54,3.771,3.771,0,0,1-1-.13,2.59,2.59,0,0,1-.772-.335Zm5.8-6.624a.793.793,0,0,1,.291-.489.793.793,0,0,1,.482-.291.793.793,0,0,1,.489.291.793.793,0,0,1,.291.489.793.793,0,0,1-.291.482.793.793,0,0,1-.489.291.793.793,0,0,1-.482-.291A.793.793,0,0,1,24.869-8.333ZM25,0V-6.344h1.285V0Zm3.1,0V-6.344h1.114l.062.629a2.4,2.4,0,0,1,.8-.6,2.908,2.908,0,0,1,1.125-.178,2.186,2.186,0,0,1,1.042.256,1.957,1.957,0,0,1,.735.639,2.876,2.876,0,0,1,2.283-.9,2.293,2.293,0,0,1,1.6.581,1.893,1.893,0,0,1,.639,1.463V0H36.237V-4.341a.919.919,0,0,0-.359-.766,1.641,1.641,0,0,0-1.029-.28,1.61,1.61,0,0,0-1.025.3.917.917,0,0,0-.376.749V0H32.177V-4.341a.916.916,0,0,0-.362-.766,1.669,1.669,0,0,0-1.039-.28,1.61,1.61,0,0,0-1.025.3.917.917,0,0,0-.376.749V0ZM42.267,0l.766-8.935h.841l2.379,4.594q.772,1.49,1.121,2.3H47.4q.28-.69,1.094-2.3l2.352-4.594h.841L52.486,0H51.194l-.362-4.033q-.1-1.06-.137-2.03h-.034q-.376.834-1,2.071L47.585.068h-.506l-2.1-4.061q-.321-.608-.991-2.044h-.034q-.021.472-.137,2L43.47,0ZM53.6-1.791a1.8,1.8,0,0,1,.608-1.415,2.484,2.484,0,0,1,1.477-.615l1.483-.144v-.4a1,1,0,0,0-.3-.752,1.3,1.3,0,0,0-.933-.287,3.1,3.1,0,0,0-1.75.506l-.253-1.046a3.7,3.7,0,0,1,2.071-.547,2.54,2.54,0,0,1,1.764.6,2.161,2.161,0,0,1,.67,1.7v2.557a1.058,1.058,0,0,0,.2.673.815.815,0,0,0,.516.311l-.813.813a1.215,1.215,0,0,1-.571-.294,1.25,1.25,0,0,1-.352-.52,2.1,2.1,0,0,1-1.777.813,1.984,1.984,0,0,1-1.477-.574A1.886,1.886,0,0,1,53.6-1.791Zm1.217.014a.825.825,0,0,0,.253.6.848.848,0,0,0,.629.256,1.47,1.47,0,0,0,1-.427,1.312,1.312,0,0,0,.472-1v-.561L55.911-2.8a1.223,1.223,0,0,0-.813.345A.964.964,0,0,0,54.817-1.777Zm5.045.068a3.273,3.273,0,0,0,.967.567,3.108,3.108,0,0,0,1.131.219,1.171,1.171,0,0,0,.728-.215.656.656,0,0,0,.284-.543.719.719,0,0,0-.226-.543,1.934,1.934,0,0,0-.684-.379,4.138,4.138,0,0,1-1.477-.851,1.647,1.647,0,0,1-.485-1.22,1.649,1.649,0,0,1,.591-1.309,2.268,2.268,0,0,1,1.535-.509,3.614,3.614,0,0,1,.964.13,2.556,2.556,0,0,1,.69.273l-.239,1.066a2.415,2.415,0,0,0-1.429-.41.968.968,0,0,0-.639.2.641.641,0,0,0-.243.516.6.6,0,0,0,.219.479,2.406,2.406,0,0,0,.711.362,4.066,4.066,0,0,1,1.5.858,1.74,1.74,0,0,1,.485,1.282,1.743,1.743,0,0,1-.6,1.354,2.472,2.472,0,0,1-1.709.54,3.771,3.771,0,0,1-1-.13,2.59,2.59,0,0,1-.772-.335Z" transform="translate(-1276.77 6855.303)" fill="#797979"/>
    <path id="Filing" d="M.909,0V-8.935H5.852v1.162H2.27v2.707H5.291V-3.9H2.27V0ZM6.966-8.333a.793.793,0,0,1,.291-.489.793.793,0,0,1,.482-.291.793.793,0,0,1,.489.291.793.793,0,0,1,.291.489.793.793,0,0,1-.291.482.793.793,0,0,1-.489.291.793.793,0,0,1-.482-.291A.793.793,0,0,1,6.966-8.333ZM7.1,0V-6.344H8.381V0Zm3.384-1.5v-8.47h1.271v8.3a1.012,1.012,0,0,0,.267.7,1.026,1.026,0,0,0,.588.349l-.868.868A1.526,1.526,0,0,1,11.358.1a2.206,2.206,0,0,1-.4-.3,1.417,1.417,0,0,1-.345-.53A2.058,2.058,0,0,1,10.479-1.5Zm3.548-6.836a.793.793,0,0,1,.291-.489.793.793,0,0,1,.482-.291.793.793,0,0,1,.489.291.793.793,0,0,1,.291.489.793.793,0,0,1-.291.482.793.793,0,0,1-.489.291.793.793,0,0,1-.482-.291A.793.793,0,0,1,14.027-8.333ZM14.157,0V-6.344h1.285V0Zm3.1,0V-6.344h1.114l.062.629a2.443,2.443,0,0,1,.813-.6,2.96,2.96,0,0,1,1.142-.181,2.457,2.457,0,0,1,1.736.625A2.166,2.166,0,0,1,22.8-4.2V0H21.526V-4.074a1.335,1.335,0,0,0-.362-.943,1.443,1.443,0,0,0-1.107-.39,1.528,1.528,0,0,0-1.125.4,1.275,1.275,0,0,0-.4.937V0Zm6.631.95a1.937,1.937,0,0,1,.386-1.193,1.97,1.97,0,0,1,.933-.708l-.649-.643a.974.974,0,0,1,.212-.6,1.558,1.558,0,0,1,.506-.434,2.277,2.277,0,0,1-.69-.759,1.957,1.957,0,0,1-.246-.964,1.979,1.979,0,0,1,.667-1.538,2.458,2.458,0,0,1,1.712-.6,3.094,3.094,0,0,1,.779.1,3.364,3.364,0,0,0,.813.082,2.122,2.122,0,0,0,.937-.219l.239,1.046a.919.919,0,0,1-.273.109,1.618,1.618,0,0,1-.355.062,1.9,1.9,0,0,1,.226.964,2.03,2.03,0,0,1-.646,1.514,2.367,2.367,0,0,1-1.719.625,1.787,1.787,0,0,0-.612.079.28.28,0,0,0-.2.277q0,.144.185.219l1.736.6a3.062,3.062,0,0,1,1.33.82,1.984,1.984,0,0,1,.448,1.354,1.814,1.814,0,0,1-.786,1.5,3.3,3.3,0,0,1-2.044.595,3.224,3.224,0,0,1-2.088-.643A2.017,2.017,0,0,1,23.892.95Zm1.135,0a1.123,1.123,0,0,0,.455.889,1.935,1.935,0,0,0,1.268.376,2.019,2.019,0,0,0,1.234-.335.949.949,0,0,0,.448-.759q0-.779-.984-1.08l-1.1-.321a1.32,1.32,0,0,0-.95.352A1.164,1.164,0,0,0,25.026.95Zm.479-5.3a1.01,1.01,0,0,0,.349.776,1.24,1.24,0,0,0,.868.318,1.225,1.225,0,0,0,.844-.321,1,1,0,0,0,.359-.772,1.021,1.021,0,0,0-.345-.769,1.2,1.2,0,0,0-.858-.325,1.221,1.221,0,0,0-.865.328A1.016,1.016,0,0,0,25.5-4.354Z" transform="translate(-1209.377 6753.303)" fill="#797979"/>
    <path id="Fact_Finding_and_Conflict_Analysis" data-name="Fact Finding and Conflict Analysis" d="M.909,0V-8.935H5.852v1.162H2.27v2.707H5.291V-3.9H2.27V0ZM6.323-1.791a1.8,1.8,0,0,1,.608-1.415,2.484,2.484,0,0,1,1.477-.615l1.483-.144v-.4a1,1,0,0,0-.3-.752,1.3,1.3,0,0,0-.933-.287,3.1,3.1,0,0,0-1.75.506L6.658-5.947a3.7,3.7,0,0,1,2.071-.547,2.54,2.54,0,0,1,1.764.6,2.161,2.161,0,0,1,.67,1.7v2.557a1.058,1.058,0,0,0,.2.673.815.815,0,0,0,.516.311l-.813.813A1.215,1.215,0,0,1,10.5-.137a1.25,1.25,0,0,1-.352-.52A2.1,2.1,0,0,1,8.367.157,1.984,1.984,0,0,1,6.891-.417,1.886,1.886,0,0,1,6.323-1.791Zm1.217.014a.825.825,0,0,0,.253.6.848.848,0,0,0,.629.256,1.47,1.47,0,0,0,1-.427,1.312,1.312,0,0,0,.472-1v-.561L8.634-2.8a1.223,1.223,0,0,0-.813.345A.964.964,0,0,0,7.54-1.777ZM12.7-3.165A3.305,3.305,0,0,1,13-4.563a3.032,3.032,0,0,1,.776-1.053,3.65,3.65,0,0,1,1.1-.646,3.569,3.569,0,0,1,1.271-.232,4.139,4.139,0,0,1,2.03.472L17.938-4.9a3.127,3.127,0,0,0-1.709-.472,2.256,2.256,0,0,0-1.579.608,2.068,2.068,0,0,0-.663,1.6A2.121,2.121,0,0,0,14.314-2a2.133,2.133,0,0,0,.841.772,2.4,2.4,0,0,0,1.1.26,4.27,4.27,0,0,0,1.818-.451L17.808-.171A3.976,3.976,0,0,1,16.14.157a3.643,3.643,0,0,1-1.658-.39A3.252,3.252,0,0,1,13.2-1.395,3.175,3.175,0,0,1,12.7-3.165Zm6.077-2.153V-6.344h1.251V-7.629l1.258-.656v1.941h2.242L23.3-5.318H21.287v3.527a.709.709,0,0,0,.267.588,1.043,1.043,0,0,0,.67.212,2.146,2.146,0,0,0,.7-.1L22.675.041A2.194,2.194,0,0,1,22.1.1a2.181,2.181,0,0,1-1.487-.509,1.782,1.782,0,0,1-.584-1.418V-5.318ZM27.822,0V-8.935h4.942v1.162H29.183v2.707H32.2V-3.9H29.183V0Zm6.057-8.333a.793.793,0,0,1,.291-.489.793.793,0,0,1,.482-.291.793.793,0,0,1,.489.291.793.793,0,0,1,.291.489.793.793,0,0,1-.291.482.793.793,0,0,1-.489.291.793.793,0,0,1-.482-.291A.793.793,0,0,1,33.879-8.333ZM34.009,0V-6.344h1.285V0Zm3.1,0V-6.344h1.114l.062.629a2.443,2.443,0,0,1,.813-.6,2.96,2.96,0,0,1,1.142-.181,2.457,2.457,0,0,1,1.736.625A2.166,2.166,0,0,1,42.656-4.2V0H41.378V-4.074a1.335,1.335,0,0,0-.362-.943,1.443,1.443,0,0,0-1.107-.39,1.528,1.528,0,0,0-1.125.4,1.275,1.275,0,0,0-.4.937V0Zm6.8-3.165a3.2,3.2,0,0,1,.957-2.393,3.275,3.275,0,0,1,2.386-.937,2.812,2.812,0,0,1,1.586.417v-3.89h1.271V0H49.021l-.041-.506a2.577,2.577,0,0,1-1.962.663,2.839,2.839,0,0,1-1.063-.215,3.52,3.52,0,0,1-1-.615A2.956,2.956,0,0,1,44.2-1.726,3.5,3.5,0,0,1,43.914-3.165Zm1.285,0a2.187,2.187,0,0,0,.595,1.586,1.955,1.955,0,0,0,1.463.615,2.3,2.3,0,0,0,.909-.178,1.857,1.857,0,0,0,.677-.472V-4.785a2.024,2.024,0,0,0-.687-.424,2.451,2.451,0,0,0-.9-.164,1.955,1.955,0,0,0-1.463.615A2.2,2.2,0,0,0,45.2-3.165Zm6.672-5.168a.793.793,0,0,1,.291-.489.793.793,0,0,1,.482-.291.793.793,0,0,1,.489.291.793.793,0,0,1,.291.489.793.793,0,0,1-.291.482.793.793,0,0,1-.489.291.793.793,0,0,1-.482-.291A.793.793,0,0,1,51.871-8.333ZM52,0V-6.344h1.285V0Zm3.1,0V-6.344h1.114l.062.629a2.443,2.443,0,0,1,.813-.6,2.96,2.96,0,0,1,1.142-.181,2.457,2.457,0,0,1,1.736.625A2.166,2.166,0,0,1,60.648-4.2V0H59.37V-4.074a1.335,1.335,0,0,0-.362-.943,1.443,1.443,0,0,0-1.107-.39,1.528,1.528,0,0,0-1.125.4,1.275,1.275,0,0,0-.4.937V0Zm6.631.95a1.937,1.937,0,0,1,.386-1.193,1.97,1.97,0,0,1,.933-.708l-.649-.643a.974.974,0,0,1,.212-.6,1.558,1.558,0,0,1,.506-.434,2.277,2.277,0,0,1-.69-.759,1.957,1.957,0,0,1-.246-.964,1.979,1.979,0,0,1,.667-1.538,2.458,2.458,0,0,1,1.712-.6,3.094,3.094,0,0,1,.779.1,3.364,3.364,0,0,0,.813.082,2.122,2.122,0,0,0,.937-.219l.239,1.046a.919.919,0,0,1-.273.109,1.618,1.618,0,0,1-.355.062,1.9,1.9,0,0,1,.226.964,2.03,2.03,0,0,1-.646,1.514,2.367,2.367,0,0,1-1.719.625,1.787,1.787,0,0,0-.612.079.28.28,0,0,0-.2.277q0,.144.185.219l1.736.6A3.062,3.062,0,0,1,67-.219a1.984,1.984,0,0,1,.448,1.354,1.814,1.814,0,0,1-.786,1.5,3.3,3.3,0,0,1-2.044.595,3.224,3.224,0,0,1-2.088-.643A2.017,2.017,0,0,1,61.735.95Zm1.135,0a1.123,1.123,0,0,0,.455.889,1.935,1.935,0,0,0,1.268.376,2.019,2.019,0,0,0,1.234-.335.949.949,0,0,0,.448-.759q0-.779-.984-1.08l-1.1-.321a1.32,1.32,0,0,0-.95.352A1.164,1.164,0,0,0,62.87.95Zm.479-5.3a1.01,1.01,0,0,0,.349.776,1.24,1.24,0,0,0,.868.318,1.225,1.225,0,0,0,.844-.321,1,1,0,0,0,.359-.772,1.021,1.021,0,0,0-.345-.769,1.2,1.2,0,0,0-.858-.325,1.221,1.221,0,0,0-.865.328A1.016,1.016,0,0,0,63.349-4.354Zm8.217,2.563a1.8,1.8,0,0,1,.608-1.415,2.484,2.484,0,0,1,1.477-.615l1.483-.144v-.4a1,1,0,0,0-.3-.752,1.3,1.3,0,0,0-.933-.287,3.1,3.1,0,0,0-1.75.506L71.9-5.947a3.7,3.7,0,0,1,2.071-.547,2.54,2.54,0,0,1,1.764.6,2.161,2.161,0,0,1,.67,1.7v2.557a1.058,1.058,0,0,0,.2.673.815.815,0,0,0,.516.311L76.31.157a1.215,1.215,0,0,1-.571-.294,1.25,1.25,0,0,1-.352-.52,2.1,2.1,0,0,1-1.777.813,1.984,1.984,0,0,1-1.477-.574A1.886,1.886,0,0,1,71.565-1.791Zm1.217.014a.825.825,0,0,0,.253.6.848.848,0,0,0,.629.256,1.47,1.47,0,0,0,1-.427,1.312,1.312,0,0,0,.472-1v-.561L73.876-2.8a1.223,1.223,0,0,0-.813.345A.964.964,0,0,0,72.782-1.777ZM78.224,0V-6.344h1.114l.062.629a2.443,2.443,0,0,1,.813-.6,2.96,2.96,0,0,1,1.142-.181,2.457,2.457,0,0,1,1.736.625A2.166,2.166,0,0,1,83.768-4.2V0H82.489V-4.074a1.335,1.335,0,0,0-.362-.943,1.443,1.443,0,0,0-1.107-.39,1.528,1.528,0,0,0-1.125.4,1.275,1.275,0,0,0-.4.937V0Zm6.8-3.165a3.2,3.2,0,0,1,.957-2.393,3.275,3.275,0,0,1,2.386-.937,2.812,2.812,0,0,1,1.586.417v-3.89h1.271V0H90.132l-.041-.506a2.577,2.577,0,0,1-1.962.663,2.839,2.839,0,0,1-1.063-.215,3.52,3.52,0,0,1-1-.615,2.956,2.956,0,0,1-.752-1.053A3.5,3.5,0,0,1,85.025-3.165Zm1.285,0a2.187,2.187,0,0,0,.595,1.586,1.955,1.955,0,0,0,1.463.615,2.3,2.3,0,0,0,.909-.178,1.857,1.857,0,0,0,.677-.472V-4.785a2.024,2.024,0,0,0-.687-.424,2.451,2.451,0,0,0-.9-.164,1.955,1.955,0,0,0-1.463.615A2.2,2.2,0,0,0,86.311-3.165Zm9.529-1.3a4.75,4.75,0,0,1,.287-1.668,4.076,4.076,0,0,1,.766-1.309A4.964,4.964,0,0,1,98-8.364a4.875,4.875,0,0,1,1.3-.567,5.2,5.2,0,0,1,1.357-.181,5.317,5.317,0,0,1,2.632.588l-.232,1.176a3.765,3.765,0,0,0-.981-.41,4.546,4.546,0,0,0-1.261-.178,3.956,3.956,0,0,0-1.3.219,3.779,3.779,0,0,0-1.148.636,3,3,0,0,0-.831,1.1,3.582,3.582,0,0,0-.314,1.521,3.73,3.73,0,0,0,.2,1.244,2.987,2.987,0,0,0,.547.974,3.433,3.433,0,0,0,.807.684,3.634,3.634,0,0,0,.978.42A4.133,4.133,0,0,0,100.81-1a4.753,4.753,0,0,0,2.461-.561l-.28,1.3a3.666,3.666,0,0,1-.971.332,7.229,7.229,0,0,1-1.367.106,5.187,5.187,0,0,1-1.364-.185,4.885,4.885,0,0,1-1.3-.571,4.95,4.95,0,0,1-1.1-.926,4.084,4.084,0,0,1-.762-1.306A4.7,4.7,0,0,1,95.84-4.464Zm8.189,1.3a3.183,3.183,0,0,1,.967-2.4,3.325,3.325,0,0,1,2.4-.933,3.314,3.314,0,0,1,2.4.933,3.189,3.189,0,0,1,.964,2.4,3.343,3.343,0,0,1-.448,1.726A3.11,3.11,0,0,1,109.1-.26a3.5,3.5,0,0,1-1.7.417,3.52,3.52,0,0,1-1.706-.417,3.1,3.1,0,0,1-1.217-1.179A3.343,3.343,0,0,1,104.029-3.165Zm1.285,0a2.156,2.156,0,0,0,.612,1.583,2,2,0,0,0,1.473.619,1.978,1.978,0,0,0,1.463-.619,2.162,2.162,0,0,0,.608-1.583,2.171,2.171,0,0,0-.608-1.589,1.978,1.978,0,0,0-1.463-.619,2,2,0,0,0-1.477.615A2.168,2.168,0,0,0,105.314-3.165ZM112.021,0V-6.344h1.114l.062.629a2.443,2.443,0,0,1,.813-.6,2.96,2.96,0,0,1,1.142-.181,2.457,2.457,0,0,1,1.736.625,2.166,2.166,0,0,1,.677,1.671V0h-1.278V-4.074a1.335,1.335,0,0,0-.362-.943,1.443,1.443,0,0,0-1.107-.39,1.528,1.528,0,0,0-1.125.4,1.275,1.275,0,0,0-.4.937V0Zm6.446-5.318V-6.344h1.08v-.588a3.27,3.27,0,0,1,.728-2.314,2.762,2.762,0,0,1,2.116-.776,2.847,2.847,0,0,1,1.08.205l-.226,1.08a2.452,2.452,0,0,0-1.094-.226,1.139,1.139,0,0,0-.974.482,1.911,1.911,0,0,0-.352,1.159v.978h1.832l-.212,1.025h-1.62V0h-1.278V-5.318Zm5.7,3.821v-8.47h1.271v8.3a1.012,1.012,0,0,0,.267.7,1.026,1.026,0,0,0,.588.349l-.868.868A1.526,1.526,0,0,1,125.046.1a2.206,2.206,0,0,1-.4-.3,1.417,1.417,0,0,1-.345-.53A2.058,2.058,0,0,1,124.168-1.5Zm3.548-6.836a.793.793,0,0,1,.291-.489.793.793,0,0,1,.482-.291.793.793,0,0,1,.489.291.793.793,0,0,1,.291.489.793.793,0,0,1-.291.482.793.793,0,0,1-.489.291.793.793,0,0,1-.482-.291A.793.793,0,0,1,127.716-8.333ZM127.846,0V-6.344h1.285V0Zm2.823-3.165a3.305,3.305,0,0,1,.294-1.4,3.032,3.032,0,0,1,.776-1.053,3.65,3.65,0,0,1,1.1-.646,3.569,3.569,0,0,1,1.271-.232,4.139,4.139,0,0,1,2.03.472L135.905-4.9a3.127,3.127,0,0,0-1.709-.472,2.256,2.256,0,0,0-1.579.608,2.068,2.068,0,0,0-.663,1.6A2.121,2.121,0,0,0,132.282-2a2.133,2.133,0,0,0,.841.772,2.4,2.4,0,0,0,1.1.26,4.27,4.27,0,0,0,1.818-.451l-.267,1.244a3.976,3.976,0,0,1-1.668.328,3.643,3.643,0,0,1-1.658-.39,3.252,3.252,0,0,1-1.278-1.162A3.175,3.175,0,0,1,130.669-3.165Zm6.077-2.153V-6.344H138V-7.629l1.258-.656v1.941H141.5l-.226,1.025h-2.017v3.527a.709.709,0,0,0,.267.588,1.043,1.043,0,0,0,.67.212,2.146,2.146,0,0,0,.7-.1L140.643.041a2.194,2.194,0,0,1-.574.055,2.181,2.181,0,0,1-1.487-.509A1.782,1.782,0,0,1,138-1.832V-5.318ZM145.161,0l3.808-9.058h.492L153.269,0h-1.374l-.964-2.311h-3.473L146.494,0Zm2.755-3.391h2.55l-.882-2.181a9.687,9.687,0,0,1-.376-1.094h-.027a8.006,8.006,0,0,1-.383,1.094ZM154.314,0V-6.344h1.114l.062.629a2.444,2.444,0,0,1,.813-.6,2.96,2.96,0,0,1,1.142-.181,2.457,2.457,0,0,1,1.736.625,2.166,2.166,0,0,1,.677,1.671V0H158.58V-4.074a1.336,1.336,0,0,0-.362-.943,1.443,1.443,0,0,0-1.107-.39,1.528,1.528,0,0,0-1.125.4,1.275,1.275,0,0,0-.4.937V0Zm6.8-1.791a1.8,1.8,0,0,1,.608-1.415,2.484,2.484,0,0,1,1.477-.615l1.483-.144v-.4a1,1,0,0,0-.3-.752,1.3,1.3,0,0,0-.933-.287,3.1,3.1,0,0,0-1.75.506l-.253-1.046a3.7,3.7,0,0,1,2.071-.547,2.54,2.54,0,0,1,1.764.6,2.161,2.161,0,0,1,.67,1.7v2.557a1.058,1.058,0,0,0,.2.673.815.815,0,0,0,.516.311l-.813.813a1.215,1.215,0,0,1-.571-.294,1.25,1.25,0,0,1-.352-.52,2.1,2.1,0,0,1-1.777.813,1.984,1.984,0,0,1-1.477-.574A1.886,1.886,0,0,1,161.116-1.791Zm1.217.014a.825.825,0,0,0,.253.6.848.848,0,0,0,.629.256,1.47,1.47,0,0,0,1-.427,1.312,1.312,0,0,0,.472-1v-.561l-1.258.109a1.223,1.223,0,0,0-.813.345A.964.964,0,0,0,162.333-1.777Zm5.722.28v-8.47h1.271v8.3a1.012,1.012,0,0,0,.267.7,1.026,1.026,0,0,0,.588.349l-.868.868A1.526,1.526,0,0,1,168.933.1a2.206,2.206,0,0,1-.4-.3,1.417,1.417,0,0,1-.345-.53A2.058,2.058,0,0,1,168.055-1.5Zm2.639,4.02a3.755,3.755,0,0,0,1.521-1.036,7.131,7.131,0,0,0,1.179-2.047l-2.365-5.783h1.319l1.176,2.885q.246.574.547,1.429h.027q.2-.567.533-1.388l1.189-2.926h1.217L174.7-.615a9.25,9.25,0,0,1-1.456,2.567,5.154,5.154,0,0,1-1.777,1.35Zm6.85-4.231a3.273,3.273,0,0,0,.967.567,3.108,3.108,0,0,0,1.131.219,1.171,1.171,0,0,0,.728-.215.656.656,0,0,0,.284-.543.719.719,0,0,0-.226-.543,1.934,1.934,0,0,0-.684-.379,4.138,4.138,0,0,1-1.477-.851,1.647,1.647,0,0,1-.485-1.22,1.649,1.649,0,0,1,.591-1.309,2.268,2.268,0,0,1,1.535-.509,3.614,3.614,0,0,1,.964.13,2.556,2.556,0,0,1,.69.273l-.239,1.066a2.415,2.415,0,0,0-1.429-.41.968.968,0,0,0-.639.2.641.641,0,0,0-.243.516.6.6,0,0,0,.219.479,2.406,2.406,0,0,0,.711.362,4.066,4.066,0,0,1,1.5.858,1.74,1.74,0,0,1,.485,1.282,1.743,1.743,0,0,1-.6,1.354,2.472,2.472,0,0,1-1.709.54,3.771,3.771,0,0,1-1-.13,2.59,2.59,0,0,1-.772-.335Zm5.8-6.624a.793.793,0,0,1,.291-.489.793.793,0,0,1,.482-.291.793.793,0,0,1,.489.291.793.793,0,0,1,.291.489.793.793,0,0,1-.291.482.793.793,0,0,1-.489.291.793.793,0,0,1-.482-.291A.793.793,0,0,1,183.34-8.333ZM183.47,0V-6.344h1.285V0Zm2.707-1.709a3.273,3.273,0,0,0,.967.567,3.108,3.108,0,0,0,1.131.219A1.171,1.171,0,0,0,189-1.138a.656.656,0,0,0,.284-.543.719.719,0,0,0-.226-.543,1.934,1.934,0,0,0-.684-.379,4.138,4.138,0,0,1-1.477-.851,1.647,1.647,0,0,1-.485-1.22,1.649,1.649,0,0,1,.591-1.309,2.268,2.268,0,0,1,1.535-.509,3.614,3.614,0,0,1,.964.13,2.556,2.556,0,0,1,.69.273l-.239,1.066a2.415,2.415,0,0,0-1.429-.41.968.968,0,0,0-.639.2.641.641,0,0,0-.243.516.6.6,0,0,0,.219.479,2.406,2.406,0,0,0,.711.362,4.066,4.066,0,0,1,1.5.858,1.74,1.74,0,0,1,.485,1.282,1.743,1.743,0,0,1-.6,1.354,2.472,2.472,0,0,1-1.709.54,3.771,3.771,0,0,1-1-.13,2.59,2.59,0,0,1-.772-.335Z" transform="translate(-1273.398 6957.303)" fill="#797979"/>
    <path id="Third-party_Suppliers" data-name="Third-party Suppliers" d="M.068-7.772V-8.935h7.1v1.162H4.3V0H2.939V-7.772ZM8.073,0V-9.967H9.345v4.143a2.245,2.245,0,0,1,.779-.513,3.135,3.135,0,0,1,1.087-.157,2.445,2.445,0,0,1,1.733.625A2.172,2.172,0,0,1,13.617-4.2V0H12.346V-4.074a1.329,1.329,0,0,0-.366-.943,1.454,1.454,0,0,0-1.111-.39,1.528,1.528,0,0,0-1.125.4,1.275,1.275,0,0,0-.4.937V0Zm7.232-8.333a.793.793,0,0,1,.291-.489.793.793,0,0,1,.482-.291.793.793,0,0,1,.489.291.793.793,0,0,1,.291.489.793.793,0,0,1-.291.482.793.793,0,0,1-.489.291.793.793,0,0,1-.482-.291A.793.793,0,0,1,15.306-8.333ZM15.436,0V-6.344h1.285V0Zm3.24,0V-6.344h1.2l.055,1a1.54,1.54,0,0,1,.813-.82,3.242,3.242,0,0,1,1.347-.26l.239,1.08H22.2a2.6,2.6,0,0,0-.793.12,2.369,2.369,0,0,0-.714.376,1.771,1.771,0,0,0-.543.735,2.829,2.829,0,0,0-.205,1.121V0ZM22.75-3.165a3.2,3.2,0,0,1,.957-2.393,3.275,3.275,0,0,1,2.386-.937,2.812,2.812,0,0,1,1.586.417v-3.89H28.95V0H27.856l-.041-.506a2.577,2.577,0,0,1-1.962.663,2.839,2.839,0,0,1-1.063-.215,3.52,3.52,0,0,1-1-.615,2.956,2.956,0,0,1-.752-1.053A3.5,3.5,0,0,1,22.75-3.165Zm1.285,0a2.187,2.187,0,0,0,.595,1.586,1.955,1.955,0,0,0,1.463.615A2.3,2.3,0,0,0,27-1.142a1.857,1.857,0,0,0,.677-.472V-4.785a2.024,2.024,0,0,0-.687-.424,2.451,2.451,0,0,0-.9-.164,1.955,1.955,0,0,0-1.463.615A2.2,2.2,0,0,0,24.035-3.165Zm6.31-.164V-4.423h3.5v1.094Zm4.895,6.563V-6.344h1.094l.041.506a2.57,2.57,0,0,1,1.955-.656,2.926,2.926,0,0,1,.848.13,3.054,3.054,0,0,1,.837.407,3.492,3.492,0,0,1,.725.66,2.974,2.974,0,0,1,.509.933,3.586,3.586,0,0,1,.191,1.186,3.215,3.215,0,0,1-.957,2.4A3.269,3.269,0,0,1,38.1.157a2.819,2.819,0,0,1-1.586-.424v3.5Zm1.271-4.785a2.024,2.024,0,0,0,.687.424,2.451,2.451,0,0,0,.9.164,1.95,1.95,0,0,0,1.463-.619,2.208,2.208,0,0,0,.595-1.6,2.175,2.175,0,0,0-.595-1.583A1.96,1.96,0,0,0,38.1-5.373a2.327,2.327,0,0,0-.913.174,1.829,1.829,0,0,0-.673.468Zm5.906-.239a1.8,1.8,0,0,1,.608-1.415A2.484,2.484,0,0,1,44.5-3.821l1.483-.144v-.4a1,1,0,0,0-.3-.752,1.3,1.3,0,0,0-.933-.287A3.1,3.1,0,0,0,43-4.9l-.253-1.046a3.7,3.7,0,0,1,2.071-.547,2.54,2.54,0,0,1,1.764.6,2.161,2.161,0,0,1,.67,1.7v2.557a1.058,1.058,0,0,0,.2.673.815.815,0,0,0,.516.311l-.813.813a1.215,1.215,0,0,1-.571-.294,1.25,1.25,0,0,1-.352-.52,2.1,2.1,0,0,1-1.777.813,1.984,1.984,0,0,1-1.477-.574A1.886,1.886,0,0,1,42.417-1.791Zm1.217.014a.825.825,0,0,0,.253.6.848.848,0,0,0,.629.256,1.47,1.47,0,0,0,1-.427,1.312,1.312,0,0,0,.472-1v-.561L44.728-2.8a1.223,1.223,0,0,0-.813.345A.964.964,0,0,0,43.634-1.777ZM49.212,0V-6.344h1.2l.055,1a1.54,1.54,0,0,1,.813-.82,3.242,3.242,0,0,1,1.347-.26l.239,1.08h-.13a2.6,2.6,0,0,0-.793.12,2.369,2.369,0,0,0-.714.376,1.771,1.771,0,0,0-.543.735,2.829,2.829,0,0,0-.205,1.121V0Zm4.156-5.318V-6.344h1.251V-7.629l1.258-.656v1.941h2.242l-.226,1.025H55.877v3.527a.709.709,0,0,0,.267.588,1.043,1.043,0,0,0,.67.212,2.146,2.146,0,0,0,.7-.1L57.265.041A2.194,2.194,0,0,1,56.69.1,2.181,2.181,0,0,1,55.2-.414a1.782,1.782,0,0,1-.584-1.418V-5.318ZM58.3,2.522a3.755,3.755,0,0,0,1.521-1.036A7.131,7.131,0,0,0,61-.561L58.632-6.344h1.319l1.176,2.885q.246.574.547,1.429H61.7q.2-.567.533-1.388l1.189-2.926h1.217L62.3-.615a9.25,9.25,0,0,1-1.456,2.567A5.154,5.154,0,0,1,59.069,3.3ZM68.633-1.921A4.613,4.613,0,0,0,71.326-1a1.787,1.787,0,0,0,1.2-.383,1.254,1.254,0,0,0,.451-1,1.385,1.385,0,0,0-.373-.981,2.738,2.738,0,0,0-1.179-.66q-2.434-.793-2.434-2.646a2.36,2.36,0,0,1,.178-.909,2.382,2.382,0,0,1,.516-.772,2.415,2.415,0,0,1,.889-.547,3.534,3.534,0,0,1,1.241-.205,4.018,4.018,0,0,1,1.142.157,2.585,2.585,0,0,1,.807.362l-.267,1.114a2.838,2.838,0,0,0-.752-.352,3.114,3.114,0,0,0-.984-.161,1.564,1.564,0,0,0-1.066.352,1.1,1.1,0,0,0-.4.865,1.08,1.08,0,0,0,.369.793,2.859,2.859,0,0,0,1.073.595,4.951,4.951,0,0,1,1.928,1.111,2.38,2.38,0,0,1,.677,1.753,2.526,2.526,0,0,1-.8,1.958,3.257,3.257,0,0,1-2.28.735A4.78,4.78,0,0,1,69.949,0a3.59,3.59,0,0,1-1-.427Zm7.014-.219v-4.2h1.271V-2.27a1.335,1.335,0,0,0,.362.943,1.443,1.443,0,0,0,1.107.39,1.528,1.528,0,0,0,1.125-.4,1.275,1.275,0,0,0,.4-.937V-6.344H81.19V0H80.069l-.055-.629a2.476,2.476,0,0,1-.817.6,2.937,2.937,0,0,1-1.145.185A2.445,2.445,0,0,1,76.32-.468,2.172,2.172,0,0,1,75.646-2.14ZM82.8,3.233V-6.344h1.094l.041.506a2.57,2.57,0,0,1,1.955-.656,2.926,2.926,0,0,1,.848.13,3.054,3.054,0,0,1,.837.407,3.492,3.492,0,0,1,.725.66,2.974,2.974,0,0,1,.509.933A3.586,3.586,0,0,1,89-3.179a3.215,3.215,0,0,1-.957,2.4,3.269,3.269,0,0,1-2.386.94,2.819,2.819,0,0,1-1.586-.424v3.5Zm1.271-4.785a2.024,2.024,0,0,0,.687.424,2.451,2.451,0,0,0,.9.164,1.95,1.95,0,0,0,1.463-.619,2.208,2.208,0,0,0,.595-1.6,2.175,2.175,0,0,0-.595-1.583,1.96,1.96,0,0,0-1.463-.612,2.327,2.327,0,0,0-.913.174,1.829,1.829,0,0,0-.673.468Zm6.255,4.785V-6.344h1.094l.041.506a2.57,2.57,0,0,1,1.955-.656,2.926,2.926,0,0,1,.848.13,3.054,3.054,0,0,1,.837.407,3.492,3.492,0,0,1,.725.66,2.974,2.974,0,0,1,.509.933,3.586,3.586,0,0,1,.191,1.186,3.215,3.215,0,0,1-.957,2.4,3.269,3.269,0,0,1-2.386.94,2.819,2.819,0,0,1-1.586-.424v3.5Zm1.271-4.785a2.024,2.024,0,0,0,.687.424,2.451,2.451,0,0,0,.9.164,1.95,1.95,0,0,0,1.463-.619,2.208,2.208,0,0,0,.595-1.6,2.175,2.175,0,0,0-.595-1.583,1.96,1.96,0,0,0-1.463-.612,2.327,2.327,0,0,0-.913.174,1.829,1.829,0,0,0-.673.468Zm6.467.055v-8.47h1.271v8.3a1.012,1.012,0,0,0,.267.7,1.026,1.026,0,0,0,.588.349l-.868.868A1.526,1.526,0,0,1,98.94.1a2.206,2.206,0,0,1-.4-.3,1.417,1.417,0,0,1-.345-.53A2.058,2.058,0,0,1,98.062-1.5Zm3.548-6.836a.793.793,0,0,1,.291-.489.793.793,0,0,1,.482-.291.793.793,0,0,1,.489.291.793.793,0,0,1,.291.489.793.793,0,0,1-.291.482.793.793,0,0,1-.489.291.793.793,0,0,1-.482-.291A.793.793,0,0,1,101.609-8.333ZM101.739,0V-6.344h1.285V0Zm2.823-3.165a3.513,3.513,0,0,1,.284-1.422,2.983,2.983,0,0,1,.742-1.056,3.462,3.462,0,0,1,1.008-.629,2.945,2.945,0,0,1,1.111-.222,3.156,3.156,0,0,1,1.166.208,2.453,2.453,0,0,1,.868.554,2.584,2.584,0,0,1,.526.772,2.145,2.145,0,0,1,.188.872,2.722,2.722,0,0,1-.041.52l-.718.711h-3.821a1.653,1.653,0,0,0,.164.629,2.374,2.374,0,0,0,.417.608,2,2,0,0,0,.708.472,2.48,2.48,0,0,0,.967.185,3.431,3.431,0,0,0,2.03-.649l-.321,1.36a3.965,3.965,0,0,1-1.88.41,3.493,3.493,0,0,1-1.675-.414,3.252,3.252,0,0,1-1.248-1.183A3.218,3.218,0,0,1,104.563-3.165Zm1.395-.725h3.192a.771.771,0,0,0,.014-.171,1.335,1.335,0,0,0-.39-.926,1.292,1.292,0,0,0-.991-.42,1.825,1.825,0,0,0-1.159.434A1.777,1.777,0,0,0,105.957-3.89ZM111.85,0V-6.344h1.2l.055,1a1.54,1.54,0,0,1,.813-.82,3.242,3.242,0,0,1,1.347-.26l.239,1.08h-.13a2.6,2.6,0,0,0-.793.12,2.369,2.369,0,0,0-.714.376,1.771,1.771,0,0,0-.543.735,2.829,2.829,0,0,0-.205,1.121V0Zm4.238-1.709a3.274,3.274,0,0,0,.967.567,3.108,3.108,0,0,0,1.131.219,1.171,1.171,0,0,0,.728-.215.656.656,0,0,0,.284-.543.719.719,0,0,0-.226-.543,1.934,1.934,0,0,0-.684-.379,4.138,4.138,0,0,1-1.477-.851,1.647,1.647,0,0,1-.485-1.22,1.649,1.649,0,0,1,.591-1.309,2.268,2.268,0,0,1,1.535-.509,3.614,3.614,0,0,1,.964.13,2.556,2.556,0,0,1,.69.273l-.239,1.066a2.415,2.415,0,0,0-1.429-.41.968.968,0,0,0-.639.2.641.641,0,0,0-.243.516.6.6,0,0,0,.219.479,2.406,2.406,0,0,0,.711.362,4.066,4.066,0,0,1,1.5.858,1.74,1.74,0,0,1,.485,1.282,1.743,1.743,0,0,1-.6,1.354,2.472,2.472,0,0,1-1.709.54,3.771,3.771,0,0,1-1-.13,2.59,2.59,0,0,1-.772-.335Z" transform="translate(-1459.586 6855.303)" fill="#797979"/>
    <path id="Third-party_Suppliers-2" data-name="Third-party Suppliers" d="M.068-7.772V-8.935h7.1v1.162H4.3V0H2.939V-7.772ZM8.073,0V-9.967H9.345v4.143a2.245,2.245,0,0,1,.779-.513,3.135,3.135,0,0,1,1.087-.157,2.445,2.445,0,0,1,1.733.625A2.172,2.172,0,0,1,13.617-4.2V0H12.346V-4.074a1.329,1.329,0,0,0-.366-.943,1.454,1.454,0,0,0-1.111-.39,1.528,1.528,0,0,0-1.125.4,1.275,1.275,0,0,0-.4.937V0Zm7.232-8.333a.793.793,0,0,1,.291-.489.793.793,0,0,1,.482-.291.793.793,0,0,1,.489.291.793.793,0,0,1,.291.489.793.793,0,0,1-.291.482.793.793,0,0,1-.489.291.793.793,0,0,1-.482-.291A.793.793,0,0,1,15.306-8.333ZM15.436,0V-6.344h1.285V0Zm3.24,0V-6.344h1.2l.055,1a1.54,1.54,0,0,1,.813-.82,3.242,3.242,0,0,1,1.347-.26l.239,1.08H22.2a2.6,2.6,0,0,0-.793.12,2.369,2.369,0,0,0-.714.376,1.771,1.771,0,0,0-.543.735,2.829,2.829,0,0,0-.205,1.121V0ZM22.75-3.165a3.2,3.2,0,0,1,.957-2.393,3.275,3.275,0,0,1,2.386-.937,2.812,2.812,0,0,1,1.586.417v-3.89H28.95V0H27.856l-.041-.506a2.577,2.577,0,0,1-1.962.663,2.839,2.839,0,0,1-1.063-.215,3.52,3.52,0,0,1-1-.615,2.956,2.956,0,0,1-.752-1.053A3.5,3.5,0,0,1,22.75-3.165Zm1.285,0a2.187,2.187,0,0,0,.595,1.586,1.955,1.955,0,0,0,1.463.615A2.3,2.3,0,0,0,27-1.142a1.857,1.857,0,0,0,.677-.472V-4.785a2.024,2.024,0,0,0-.687-.424,2.451,2.451,0,0,0-.9-.164,1.955,1.955,0,0,0-1.463.615A2.2,2.2,0,0,0,24.035-3.165Zm6.31-.164V-4.423h3.5v1.094Zm4.895,6.563V-6.344h1.094l.041.506a2.57,2.57,0,0,1,1.955-.656,2.926,2.926,0,0,1,.848.13,3.054,3.054,0,0,1,.837.407,3.492,3.492,0,0,1,.725.66,2.974,2.974,0,0,1,.509.933,3.586,3.586,0,0,1,.191,1.186,3.215,3.215,0,0,1-.957,2.4A3.269,3.269,0,0,1,38.1.157a2.819,2.819,0,0,1-1.586-.424v3.5Zm1.271-4.785a2.024,2.024,0,0,0,.687.424,2.451,2.451,0,0,0,.9.164,1.95,1.95,0,0,0,1.463-.619,2.208,2.208,0,0,0,.595-1.6,2.175,2.175,0,0,0-.595-1.583A1.96,1.96,0,0,0,38.1-5.373a2.327,2.327,0,0,0-.913.174,1.829,1.829,0,0,0-.673.468Zm5.906-.239a1.8,1.8,0,0,1,.608-1.415A2.484,2.484,0,0,1,44.5-3.821l1.483-.144v-.4a1,1,0,0,0-.3-.752,1.3,1.3,0,0,0-.933-.287A3.1,3.1,0,0,0,43-4.9l-.253-1.046a3.7,3.7,0,0,1,2.071-.547,2.54,2.54,0,0,1,1.764.6,2.161,2.161,0,0,1,.67,1.7v2.557a1.058,1.058,0,0,0,.2.673.815.815,0,0,0,.516.311l-.813.813a1.215,1.215,0,0,1-.571-.294,1.25,1.25,0,0,1-.352-.52,2.1,2.1,0,0,1-1.777.813,1.984,1.984,0,0,1-1.477-.574A1.886,1.886,0,0,1,42.417-1.791Zm1.217.014a.825.825,0,0,0,.253.6.848.848,0,0,0,.629.256,1.47,1.47,0,0,0,1-.427,1.312,1.312,0,0,0,.472-1v-.561L44.728-2.8a1.223,1.223,0,0,0-.813.345A.964.964,0,0,0,43.634-1.777ZM49.212,0V-6.344h1.2l.055,1a1.54,1.54,0,0,1,.813-.82,3.242,3.242,0,0,1,1.347-.26l.239,1.08h-.13a2.6,2.6,0,0,0-.793.12,2.369,2.369,0,0,0-.714.376,1.771,1.771,0,0,0-.543.735,2.829,2.829,0,0,0-.205,1.121V0Zm4.156-5.318V-6.344h1.251V-7.629l1.258-.656v1.941h2.242l-.226,1.025H55.877v3.527a.709.709,0,0,0,.267.588,1.043,1.043,0,0,0,.67.212,2.146,2.146,0,0,0,.7-.1L57.265.041A2.194,2.194,0,0,1,56.69.1,2.181,2.181,0,0,1,55.2-.414a1.782,1.782,0,0,1-.584-1.418V-5.318ZM58.3,2.522a3.755,3.755,0,0,0,1.521-1.036A7.131,7.131,0,0,0,61-.561L58.632-6.344h1.319l1.176,2.885q.246.574.547,1.429H61.7q.2-.567.533-1.388l1.189-2.926h1.217L62.3-.615a9.25,9.25,0,0,1-1.456,2.567A5.154,5.154,0,0,1,59.069,3.3ZM68.633-1.921A4.613,4.613,0,0,0,71.326-1a1.787,1.787,0,0,0,1.2-.383,1.254,1.254,0,0,0,.451-1,1.385,1.385,0,0,0-.373-.981,2.738,2.738,0,0,0-1.179-.66q-2.434-.793-2.434-2.646a2.36,2.36,0,0,1,.178-.909,2.382,2.382,0,0,1,.516-.772,2.415,2.415,0,0,1,.889-.547,3.534,3.534,0,0,1,1.241-.205,4.018,4.018,0,0,1,1.142.157,2.585,2.585,0,0,1,.807.362l-.267,1.114a2.838,2.838,0,0,0-.752-.352,3.114,3.114,0,0,0-.984-.161,1.564,1.564,0,0,0-1.066.352,1.1,1.1,0,0,0-.4.865,1.08,1.08,0,0,0,.369.793,2.859,2.859,0,0,0,1.073.595,4.951,4.951,0,0,1,1.928,1.111,2.38,2.38,0,0,1,.677,1.753,2.526,2.526,0,0,1-.8,1.958,3.257,3.257,0,0,1-2.28.735A4.78,4.78,0,0,1,69.949,0a3.59,3.59,0,0,1-1-.427Zm7.014-.219v-4.2h1.271V-2.27a1.335,1.335,0,0,0,.362.943,1.443,1.443,0,0,0,1.107.39,1.528,1.528,0,0,0,1.125-.4,1.275,1.275,0,0,0,.4-.937V-6.344H81.19V0H80.069l-.055-.629a2.476,2.476,0,0,1-.817.6,2.937,2.937,0,0,1-1.145.185A2.445,2.445,0,0,1,76.32-.468,2.172,2.172,0,0,1,75.646-2.14ZM82.8,3.233V-6.344h1.094l.041.506a2.57,2.57,0,0,1,1.955-.656,2.926,2.926,0,0,1,.848.13,3.054,3.054,0,0,1,.837.407,3.492,3.492,0,0,1,.725.66,2.974,2.974,0,0,1,.509.933A3.586,3.586,0,0,1,89-3.179a3.215,3.215,0,0,1-.957,2.4,3.269,3.269,0,0,1-2.386.94,2.819,2.819,0,0,1-1.586-.424v3.5Zm1.271-4.785a2.024,2.024,0,0,0,.687.424,2.451,2.451,0,0,0,.9.164,1.95,1.95,0,0,0,1.463-.619,2.208,2.208,0,0,0,.595-1.6,2.175,2.175,0,0,0-.595-1.583,1.96,1.96,0,0,0-1.463-.612,2.327,2.327,0,0,0-.913.174,1.829,1.829,0,0,0-.673.468Zm6.255,4.785V-6.344h1.094l.041.506a2.57,2.57,0,0,1,1.955-.656,2.926,2.926,0,0,1,.848.13,3.054,3.054,0,0,1,.837.407,3.492,3.492,0,0,1,.725.66,2.974,2.974,0,0,1,.509.933,3.586,3.586,0,0,1,.191,1.186,3.215,3.215,0,0,1-.957,2.4,3.269,3.269,0,0,1-2.386.94,2.819,2.819,0,0,1-1.586-.424v3.5Zm1.271-4.785a2.024,2.024,0,0,0,.687.424,2.451,2.451,0,0,0,.9.164,1.95,1.95,0,0,0,1.463-.619,2.208,2.208,0,0,0,.595-1.6,2.175,2.175,0,0,0-.595-1.583,1.96,1.96,0,0,0-1.463-.612,2.327,2.327,0,0,0-.913.174,1.829,1.829,0,0,0-.673.468Zm6.467.055v-8.47h1.271v8.3a1.012,1.012,0,0,0,.267.7,1.026,1.026,0,0,0,.588.349l-.868.868A1.526,1.526,0,0,1,98.94.1a2.206,2.206,0,0,1-.4-.3,1.417,1.417,0,0,1-.345-.53A2.058,2.058,0,0,1,98.062-1.5Zm3.548-6.836a.793.793,0,0,1,.291-.489.793.793,0,0,1,.482-.291.793.793,0,0,1,.489.291.793.793,0,0,1,.291.489.793.793,0,0,1-.291.482.793.793,0,0,1-.489.291.793.793,0,0,1-.482-.291A.793.793,0,0,1,101.609-8.333ZM101.739,0V-6.344h1.285V0Zm2.823-3.165a3.513,3.513,0,0,1,.284-1.422,2.983,2.983,0,0,1,.742-1.056,3.462,3.462,0,0,1,1.008-.629,2.945,2.945,0,0,1,1.111-.222,3.156,3.156,0,0,1,1.166.208,2.453,2.453,0,0,1,.868.554,2.584,2.584,0,0,1,.526.772,2.145,2.145,0,0,1,.188.872,2.722,2.722,0,0,1-.041.52l-.718.711h-3.821a1.653,1.653,0,0,0,.164.629,2.374,2.374,0,0,0,.417.608,2,2,0,0,0,.708.472,2.48,2.48,0,0,0,.967.185,3.431,3.431,0,0,0,2.03-.649l-.321,1.36a3.965,3.965,0,0,1-1.88.41,3.493,3.493,0,0,1-1.675-.414,3.252,3.252,0,0,1-1.248-1.183A3.218,3.218,0,0,1,104.563-3.165Zm1.395-.725h3.192a.771.771,0,0,0,.014-.171,1.335,1.335,0,0,0-.39-.926,1.292,1.292,0,0,0-.991-.42,1.825,1.825,0,0,0-1.159.434A1.777,1.777,0,0,0,105.957-3.89ZM111.85,0V-6.344h1.2l.055,1a1.54,1.54,0,0,1,.813-.82,3.242,3.242,0,0,1,1.347-.26l.239,1.08h-.13a2.6,2.6,0,0,0-.793.12,2.369,2.369,0,0,0-.714.376,1.771,1.771,0,0,0-.543.735,2.829,2.829,0,0,0-.205,1.121V0Zm4.238-1.709a3.274,3.274,0,0,0,.967.567,3.108,3.108,0,0,0,1.131.219,1.171,1.171,0,0,0,.728-.215.656.656,0,0,0,.284-.543.719.719,0,0,0-.226-.543,1.934,1.934,0,0,0-.684-.379,4.138,4.138,0,0,1-1.477-.851,1.647,1.647,0,0,1-.485-1.22,1.649,1.649,0,0,1,.591-1.309,2.268,2.268,0,0,1,1.535-.509,3.614,3.614,0,0,1,.964.13,2.556,2.556,0,0,1,.69.273l-.239,1.066a2.415,2.415,0,0,0-1.429-.41.968.968,0,0,0-.639.2.641.641,0,0,0-.243.516.6.6,0,0,0,.219.479,2.406,2.406,0,0,0,.711.362,4.066,4.066,0,0,1,1.5.858,1.74,1.74,0,0,1,.485,1.282,1.743,1.743,0,0,1-.6,1.354,2.472,2.472,0,0,1-1.709.54,3.771,3.771,0,0,1-1-.13,2.59,2.59,0,0,1-.772-.335Z" transform="translate(-1174.586 6855.303)" fill="#797979"/>
    <rect id="Rectangle_164" data-name="Rectangle 164" width="553.813" height="38" transform="translate(-1599 6692)" fill="#25428c"/>
    <rect id="Rectangle_382" data-name="Rectangle 382" width="553.813" height="38" transform="translate(-1599 6896)" fill="#317302"/>
    <rect id="Rectangle_385" data-name="Rectangle 385" width="552.975" height="38" transform="translate(-1599 6998)" fill="#f2bd1d"/>
    <rect id="Rectangle_377" data-name="Rectangle 377" width="268.813" height="38" transform="translate(-1599 6794)" fill="#f26a1b"/>
    <rect id="Rectangle_388" data-name="Rectangle 388" width="268.813" height="38" transform="translate(-1314 6794)" fill="#f26a1b"/>
    <g id="Rectangle_165" data-name="Rectangle 165" transform="translate(-1599 6729.789)" fill="none" stroke="rgba(112,112,112,0.13)" stroke-width="1">
      <rect width="276.907" height="35.483" stroke="none"/>
      <rect x="0.5" y="0.5" width="275.907" height="34.483" fill="none"/>
    </g>
    <g id="Rectangle_381" data-name="Rectangle 381" transform="translate(-1599 6933.789)" fill="none" stroke="rgba(112,112,112,0.13)" stroke-width="1">
      <rect width="276.907" height="35.483" stroke="none"/>
      <rect x="0.5" y="0.5" width="275.907" height="34.483" fill="none"/>
    </g>
    <g id="Rectangle_384" data-name="Rectangle 384" transform="translate(-1599 7035.789)" fill="none" stroke="rgba(112,112,112,0.13)" stroke-width="1">
      <rect width="551.488" height="35.483" stroke="none"/>
      <rect x="0.5" y="0.5" width="550.488" height="34.483" fill="none"/>
    </g>
    <g id="Rectangle_378" data-name="Rectangle 378" transform="translate(-1322.932 6729.789)" fill="none" stroke="rgba(112,112,112,0.13)" stroke-width="1">
      <rect width="276.907" height="35.483" stroke="none"/>
      <rect x="0.5" y="0.5" width="275.907" height="34.483" fill="none"/>
    </g>
    <g id="Rectangle_380" data-name="Rectangle 380" transform="translate(-1322.932 6933.789)" fill="none" stroke="rgba(112,112,112,0.13)" stroke-width="1">
      <rect width="276.907" height="35.483" stroke="none"/>
      <rect x="0.5" y="0.5" width="275.907" height="34.483" fill="none"/>
    </g>
    <g id="Rectangle_376" data-name="Rectangle 376" transform="translate(-1599 6831.789)" fill="none" stroke="rgba(112,112,112,0.13)" stroke-width="1">
      <rect width="134.407" height="35.483" stroke="none"/>
      <rect x="0.5" y="0.5" width="133.407" height="34.483" fill="none"/>
    </g>
    <g id="Rectangle_387" data-name="Rectangle 387" transform="translate(-1314 6831.789)" fill="none" stroke="rgba(112,112,112,0.13)" stroke-width="1">
      <rect width="134.407" height="35.483" stroke="none"/>
      <rect x="0.5" y="0.5" width="133.407" height="34.483" fill="none"/>
    </g>
    <g id="Rectangle_379" data-name="Rectangle 379" transform="translate(-1465 6831.789)" fill="none" stroke="rgba(112,112,112,0.13)" stroke-width="1">
      <rect width="134.407" height="35.483" stroke="none"/>
      <rect x="0.5" y="0.5" width="133.407" height="34.483" fill="none"/>
    </g>
    <g id="Rectangle_386" data-name="Rectangle 386" transform="translate(-1180 6831.789)" fill="none" stroke="rgba(112,112,112,0.13)" stroke-width="1">
      <rect width="134.407" height="35.483" stroke="none"/>
      <rect x="0.5" y="0.5" width="133.407" height="34.483" fill="none"/>
    </g>
    <path id="INCOMING_GRIEVANCES" data-name="INCOMING GRIEVANCES" d="M-104,0V-12.764h3.105V0Zm5.5,0V-12.764h2.5L-91.689-8q1.377,1.533,2.08,2.441l.039-.02q-.059-1.143-.059-2.383v-4.8h3.1V.137h-1.553L-93.047-5.3Q-94.072-6.426-95.43-8.1l-.039.02q.059,1.348.059,2.676V0Zm13.779-6.377a6.934,6.934,0,0,1,.4-2.383,5.805,5.805,0,0,1,1.084-1.88,6.961,6.961,0,0,1,1.577-1.328,7.111,7.111,0,0,1,1.885-.82,7.642,7.642,0,0,1,2.007-.269,7.244,7.244,0,0,1,3.623.781l-.215,2.7a5.594,5.594,0,0,0-3.047-.8,4.226,4.226,0,0,0-2.979,1.108,3.756,3.756,0,0,0-1.2,2.9A3.693,3.693,0,0,0-80.376-3.5a4.394,4.394,0,0,0,3.062,1.1,5.675,5.675,0,0,0,3.145-.762l-.264,2.783A6.694,6.694,0,0,1-77.773.3,7.7,7.7,0,0,1-79.785.034a7.007,7.007,0,0,1-1.89-.825,6.969,6.969,0,0,1-1.572-1.333A5.855,5.855,0,0,1-84.326-4,6.905,6.905,0,0,1-84.727-6.377Zm11.553-.02A6.585,6.585,0,0,1-72.6-9.15a6.182,6.182,0,0,1,1.533-2.114,7.148,7.148,0,0,1,2.192-1.318,7.075,7.075,0,0,1,2.554-.474,7.32,7.32,0,0,1,2.07.3,6.827,6.827,0,0,1,1.885.879,7.048,7.048,0,0,1,1.523,1.372,6.032,6.032,0,0,1,1.03,1.855A6.723,6.723,0,0,1-59.434-6.4a6.675,6.675,0,0,1-.576,2.773,6.179,6.179,0,0,1-1.538,2.129,7.145,7.145,0,0,1-2.2,1.323A7.14,7.14,0,0,1-66.318.3a7.075,7.075,0,0,1-2.554-.474,7.1,7.1,0,0,1-2.192-1.323A6.21,6.21,0,0,1-72.6-3.623,6.675,6.675,0,0,1-73.174-6.4Zm3.135,0A3.854,3.854,0,0,0-68.931-3.55a3.574,3.574,0,0,0,2.612,1.108A3.606,3.606,0,0,0-63.7-3.55,3.836,3.836,0,0,0-62.578-6.4a4.023,4.023,0,0,0-.537-2.07,3.709,3.709,0,0,0-1.387-1.4,3.643,3.643,0,0,0-1.816-.479,3.483,3.483,0,0,0-1.392.288,3.9,3.9,0,0,0-1.187.791,3.715,3.715,0,0,0-.83,1.25A4.146,4.146,0,0,0-70.039-6.4Zm12.2,6.4,1.1-12.764h2.52L-51.436-7.4q.82,1.6,1.279,2.725h.039Q-49.648-5.9-48.9-7.4l2.754-5.361H-43.6L-42.461,0H-45.5l-.42-4.7q-.127-1.611-.127-2.363h-.039a21.309,21.309,0,0,1-1.074,2.422l-2.4,4.678H-50.8l-2.422-4.678q-.557-1.084-1.074-2.4h-.039q0,.781-.127,2.344l-.4,4.7Zm17.471,0V-12.764h3.105V0Zm5.5,0V-12.764h2.5L-28.057-8q1.377,1.533,2.08,2.441l.039-.02Q-26-6.719-26-7.959v-4.8h3.1V.137h-1.553L-29.414-5.3Q-30.439-6.426-31.8-8.1l-.039.02q.059,1.348.059,2.676V0Zm13.779-6.377a6.859,6.859,0,0,1,.405-2.383A5.874,5.874,0,0,1-19.6-10.64a6.874,6.874,0,0,1,1.587-1.328,7.265,7.265,0,0,1,1.895-.82,7.678,7.678,0,0,1,2.017-.269,7.308,7.308,0,0,1,4.063,1.016l-.234,2.725a5.775,5.775,0,0,0-3.506-1.064,4.616,4.616,0,0,0-2.129.488,3.789,3.789,0,0,0-1.533,1.431A4.063,4.063,0,0,0-18.018-6.3a3.717,3.717,0,0,0,1.182,2.861,4.188,4.188,0,0,0,2.959,1.094,3.375,3.375,0,0,0,1.738-.381v-1.8h-2.314V-6.9H-9.3v5.889A7.423,7.423,0,0,1-14.014.3,8.021,8.021,0,0,1-16.1.029,7.2,7.2,0,0,1-18.022-.8a6.913,6.913,0,0,1-1.587-1.338,5.885,5.885,0,0,1-1.084-1.875A6.823,6.823,0,0,1-21.094-6.377Zm17.949,0A6.859,6.859,0,0,1-2.739-8.76,5.874,5.874,0,0,1-1.65-10.64,6.874,6.874,0,0,1-.063-11.968a7.265,7.265,0,0,1,1.895-.82,7.678,7.678,0,0,1,2.017-.269A7.308,7.308,0,0,1,7.91-12.041L7.676-9.316A5.775,5.775,0,0,0,4.17-10.381a4.616,4.616,0,0,0-2.129.488A3.789,3.789,0,0,0,.508-8.462,4.063,4.063,0,0,0-.068-6.3,3.717,3.717,0,0,0,1.113-3.437,4.188,4.188,0,0,0,4.072-2.344a3.375,3.375,0,0,0,1.738-.381v-1.8H3.5V-6.9H8.652v5.889A7.423,7.423,0,0,1,3.936.3,8.021,8.021,0,0,1,1.851.029,7.2,7.2,0,0,1-.073-.8,6.913,6.913,0,0,1-1.66-2.139,5.885,5.885,0,0,1-2.744-4.014,6.823,6.823,0,0,1-3.145-6.377ZM10.713,0V-12.764h4.756a4.258,4.258,0,0,1,2.91,1.064A3.551,3.551,0,0,1,19.59-8.9a3.5,3.5,0,0,1-.557,1.943A3.314,3.314,0,0,1,17.627-5.7L21.689,0H18.232L14.785-5.02H13.691V0Zm2.979-7.461H15.01a1.784,1.784,0,0,0,1.133-.366A1.275,1.275,0,0,0,16.611-8.9a1.265,1.265,0,0,0-.474-1.05,1.759,1.759,0,0,0-1.128-.376H13.691ZM22.559,0V-12.764h3.105V0Zm5.5,0V-12.764h7.432v2.539H31.152v2.549H34.7V-5.1H31.152v2.559h4.9V0Zm8.33-12.764h3.174l2,5.625q.391,1.094.84,2.842h.039q.449-1.748.84-2.842l2-5.625h2.939L43.584.078H41.045ZM47.354,0l5.029-12.861h2.139L59.541,0H56.455l-1-2.656h-4.2L50.273,0Zm4.668-5H54.7l-.918-2.559a11.142,11.142,0,0,1-.4-1.3H53.34a9.339,9.339,0,0,1-.4,1.3ZM60.84,0V-12.764h2.5L67.656-8q1.377,1.533,2.08,2.441l.039-.02q-.059-1.143-.059-2.383v-4.8h3.1V.137H71.26L66.3-5.3Q65.273-6.426,63.916-8.1l-.039.02q.059,1.348.059,2.676V0ZM74.619-6.377a6.934,6.934,0,0,1,.4-2.383A5.805,5.805,0,0,1,76.1-10.64a6.961,6.961,0,0,1,1.577-1.328,7.111,7.111,0,0,1,1.885-.82,7.642,7.642,0,0,1,2.007-.269,7.244,7.244,0,0,1,3.623.781l-.215,2.7a5.594,5.594,0,0,0-3.047-.8,4.226,4.226,0,0,0-2.979,1.108,3.756,3.756,0,0,0-1.2,2.9A3.693,3.693,0,0,0,78.97-3.5a4.394,4.394,0,0,0,3.062,1.1,5.675,5.675,0,0,0,3.145-.762L84.912-.381A6.694,6.694,0,0,1,81.572.3,7.7,7.7,0,0,1,79.561.034a7.007,7.007,0,0,1-1.89-.825A6.969,6.969,0,0,1,76.1-2.124,5.855,5.855,0,0,1,75.02-4,6.905,6.905,0,0,1,74.619-6.377ZM86.875,0V-12.764h7.432v2.539H89.971v2.549h3.545V-5.1H89.971v2.559h4.9V0ZM95.84-3.76a6.336,6.336,0,0,0,4,1.455,2.257,2.257,0,0,0,1.313-.327,1.045,1.045,0,0,0,.464-.9,1.179,1.179,0,0,0-.42-.937,5.334,5.334,0,0,0-1.6-.771,5.785,5.785,0,0,1-2.524-1.606A3.505,3.505,0,0,1,96.2-9.2a3.62,3.62,0,0,1,1.191-2.773,4.57,4.57,0,0,1,3.232-1.1,5.671,5.671,0,0,1,3.115.752l-.234,2.607a4.749,4.749,0,0,0-1.216-.566,4.649,4.649,0,0,0-1.431-.234,2.006,2.006,0,0,0-1.2.3.939.939,0,0,0-.41.791.984.984,0,0,0,.42.791,5.3,5.3,0,0,0,1.533.693,6,6,0,0,1,2.573,1.6,3.583,3.583,0,0,1,.972,2.5,3.886,3.886,0,0,1-1.226,3.027A5.09,5.09,0,0,1,99.98.3,6.3,6.3,0,0,1,96.123-.781Z" transform="translate(-1322 6718.831)" fill="#fff"/>
    <path id="INCOMING_GRIEVANCES-2" data-name="INCOMING GRIEVANCES" d="M.2,0,5.225-12.861H7.363L12.383,0H9.3l-1-2.656H4.1L3.115,0ZM4.863-5H7.539L6.621-7.559a11.142,11.142,0,0,1-.4-1.3H6.182a9.339,9.339,0,0,1-.4,1.3Zm8.291,1.24a6.336,6.336,0,0,0,4,1.455,2.257,2.257,0,0,0,1.313-.327,1.045,1.045,0,0,0,.464-.9,1.179,1.179,0,0,0-.42-.937,5.334,5.334,0,0,0-1.6-.771A5.785,5.785,0,0,1,14.39-6.851,3.505,3.505,0,0,1,13.516-9.2a3.62,3.62,0,0,1,1.191-2.773,4.57,4.57,0,0,1,3.232-1.1,5.671,5.671,0,0,1,3.115.752L20.82-9.717a4.749,4.749,0,0,0-1.216-.566,4.649,4.649,0,0,0-1.431-.234,2.006,2.006,0,0,0-1.2.3.939.939,0,0,0-.41.791.984.984,0,0,0,.42.791,5.3,5.3,0,0,0,1.533.693,6,6,0,0,1,2.573,1.6,3.583,3.583,0,0,1,.972,2.5A3.886,3.886,0,0,1,20.835-.811,5.09,5.09,0,0,1,17.295.3,6.3,6.3,0,0,1,13.438-.781Zm9.9,0a6.336,6.336,0,0,0,4,1.455,2.257,2.257,0,0,0,1.313-.327,1.045,1.045,0,0,0,.464-.9,1.179,1.179,0,0,0-.42-.937,5.334,5.334,0,0,0-1.6-.771,5.785,5.785,0,0,1-2.524-1.606A3.505,3.505,0,0,1,23.418-9.2a3.62,3.62,0,0,1,1.191-2.773,4.57,4.57,0,0,1,3.232-1.1,5.671,5.671,0,0,1,3.115.752l-.234,2.607a4.749,4.749,0,0,0-1.216-.566,4.649,4.649,0,0,0-1.431-.234,2.006,2.006,0,0,0-1.2.3.939.939,0,0,0-.41.791.984.984,0,0,0,.42.791,5.3,5.3,0,0,0,1.533.693,6,6,0,0,1,2.573,1.6,3.583,3.583,0,0,1,.972,2.5A3.886,3.886,0,0,1,30.737-.811,5.09,5.09,0,0,1,27.2.3,6.3,6.3,0,0,1,23.34-.781ZM33.623,0V-12.764h7.432v2.539H36.719v2.549h3.545V-5.1H36.719v2.559h4.9V0Zm8.965-3.76a6.336,6.336,0,0,0,4,1.455,2.257,2.257,0,0,0,1.313-.327,1.045,1.045,0,0,0,.464-.9,1.179,1.179,0,0,0-.42-.937,5.334,5.334,0,0,0-1.6-.771,5.785,5.785,0,0,1-2.524-1.606A3.505,3.505,0,0,1,42.949-9.2a3.62,3.62,0,0,1,1.191-2.773,4.57,4.57,0,0,1,3.232-1.1,5.671,5.671,0,0,1,3.115.752l-.234,2.607a4.749,4.749,0,0,0-1.216-.566,4.649,4.649,0,0,0-1.431-.234,2.006,2.006,0,0,0-1.2.3.939.939,0,0,0-.41.791.984.984,0,0,0,.42.791,5.3,5.3,0,0,0,1.533.693,6,6,0,0,1,2.573,1.6,3.583,3.583,0,0,1,.972,2.5A3.886,3.886,0,0,1,50.269-.811,5.09,5.09,0,0,1,46.729.3,6.3,6.3,0,0,1,42.871-.781Zm9.9,0a6.336,6.336,0,0,0,4,1.455,2.257,2.257,0,0,0,1.313-.327,1.045,1.045,0,0,0,.464-.9,1.179,1.179,0,0,0-.42-.937,5.334,5.334,0,0,0-1.6-.771,5.785,5.785,0,0,1-2.524-1.606A3.505,3.505,0,0,1,52.852-9.2a3.62,3.62,0,0,1,1.191-2.773,4.57,4.57,0,0,1,3.232-1.1,5.671,5.671,0,0,1,3.115.752l-.234,2.607a4.749,4.749,0,0,0-1.216-.566,4.649,4.649,0,0,0-1.431-.234,2.006,2.006,0,0,0-1.2.3.939.939,0,0,0-.41.791.984.984,0,0,0,.42.791,5.3,5.3,0,0,0,1.533.693,6,6,0,0,1,2.573,1.6,3.583,3.583,0,0,1,.972,2.5A3.886,3.886,0,0,1,60.171-.811,5.09,5.09,0,0,1,56.631.3,6.3,6.3,0,0,1,52.773-.781ZM63.252,0V-12.764h3.105V0Zm5.5,0V-12.764h2.5L75.566-8q1.377,1.533,2.08,2.441l.039-.02q-.059-1.143-.059-2.383v-4.8h3.1V.137H79.17L74.209-5.3Q73.184-6.426,71.826-8.1l-.039.02q.059,1.348.059,2.676V0ZM82.529-6.377a6.859,6.859,0,0,1,.405-2.383,5.874,5.874,0,0,1,1.089-1.88,6.874,6.874,0,0,1,1.587-1.328,7.265,7.265,0,0,1,1.895-.82,7.678,7.678,0,0,1,2.017-.269,7.308,7.308,0,0,1,4.063,1.016L93.35-9.316a5.775,5.775,0,0,0-3.506-1.064,4.616,4.616,0,0,0-2.129.488,3.789,3.789,0,0,0-1.533,1.431A4.063,4.063,0,0,0,85.605-6.3a3.717,3.717,0,0,0,1.182,2.861,4.188,4.188,0,0,0,2.959,1.094,3.375,3.375,0,0,0,1.738-.381v-1.8H89.17V-6.9h5.156v5.889A7.423,7.423,0,0,1,89.609.3,8.021,8.021,0,0,1,87.524.029,7.2,7.2,0,0,1,85.6-.8a6.913,6.913,0,0,1-1.587-1.338A5.885,5.885,0,0,1,82.93-4.014,6.823,6.823,0,0,1,82.529-6.377Zm17.949,0a6.859,6.859,0,0,1,.405-2.383,5.874,5.874,0,0,1,1.089-1.88,6.874,6.874,0,0,1,1.587-1.328,7.265,7.265,0,0,1,1.895-.82,7.678,7.678,0,0,1,2.017-.269,7.308,7.308,0,0,1,4.063,1.016L111.3-9.316a5.775,5.775,0,0,0-3.506-1.064,4.616,4.616,0,0,0-2.129.488,3.789,3.789,0,0,0-1.533,1.431,4.063,4.063,0,0,0-.576,2.163,3.717,3.717,0,0,0,1.182,2.861A4.188,4.188,0,0,0,107.7-2.344a3.375,3.375,0,0,0,1.738-.381v-1.8h-2.314V-6.9h5.156v5.889A7.423,7.423,0,0,1,107.559.3a8.021,8.021,0,0,1-2.085-.273A7.2,7.2,0,0,1,103.55-.8a6.913,6.913,0,0,1-1.587-1.338,5.885,5.885,0,0,1-1.084-1.875A6.823,6.823,0,0,1,100.479-6.377ZM114.336,0V-12.764h4.756A4.258,4.258,0,0,1,122-11.7a3.551,3.551,0,0,1,1.211,2.8,3.5,3.5,0,0,1-.557,1.943A3.314,3.314,0,0,1,121.25-5.7L125.313,0h-3.457l-3.447-5.02h-1.094V0Zm2.979-7.461h1.318a1.784,1.784,0,0,0,1.133-.366,1.275,1.275,0,0,0,.469-1.069,1.265,1.265,0,0,0-.474-1.05,1.759,1.759,0,0,0-1.128-.376h-1.318ZM126.182,0V-12.764h3.105V0Zm5.5,0V-12.764h7.432v2.539h-4.336v2.549h3.545V-5.1h-3.545v2.559h4.9V0Zm8.33-12.764h3.174l2,5.625q.391,1.094.84,2.842h.039q.449-1.748.84-2.842l2-5.625h2.939L147.207.078h-2.539ZM150.977,0l5.029-12.861h2.139L163.164,0h-3.086l-1-2.656h-4.2L153.9,0Zm4.668-5h2.676L157.4-7.559a11.142,11.142,0,0,1-.4-1.3h-.039a9.339,9.339,0,0,1-.4,1.3Zm8.818,5V-12.764h2.5L171.279-8q1.377,1.533,2.08,2.441l.039-.02q-.059-1.143-.059-2.383v-4.8h3.1V.137h-1.553L169.922-5.3Q168.9-6.426,167.539-8.1l-.039.02q.059,1.348.059,2.676V0Zm13.779-6.377a6.935,6.935,0,0,1,.4-2.383,5.8,5.8,0,0,1,1.084-1.88,6.961,6.961,0,0,1,1.577-1.328,7.111,7.111,0,0,1,1.885-.82,7.642,7.642,0,0,1,2.007-.269,7.244,7.244,0,0,1,3.623.781l-.215,2.7a5.594,5.594,0,0,0-3.047-.8,4.226,4.226,0,0,0-2.979,1.108,3.756,3.756,0,0,0-1.2,2.9A3.693,3.693,0,0,0,182.593-3.5a4.394,4.394,0,0,0,3.062,1.1,5.675,5.675,0,0,0,3.145-.762l-.264,2.783A6.694,6.694,0,0,1,185.2.3a7.7,7.7,0,0,1-2.012-.269,7.007,7.007,0,0,1-1.89-.825,6.969,6.969,0,0,1-1.572-1.333A5.855,5.855,0,0,1,178.643-4,6.905,6.905,0,0,1,178.242-6.377ZM190.5,0V-12.764h7.432v2.539h-4.336v2.549h3.545V-5.1h-3.545v2.559h4.9V0Zm8.965-3.76a6.336,6.336,0,0,0,4,1.455,2.257,2.257,0,0,0,1.313-.327,1.045,1.045,0,0,0,.464-.9,1.179,1.179,0,0,0-.42-.937,5.334,5.334,0,0,0-1.6-.771A5.785,5.785,0,0,1,200.7-6.851a3.505,3.505,0,0,1-.874-2.349,3.62,3.62,0,0,1,1.191-2.773,4.57,4.57,0,0,1,3.232-1.1,5.671,5.671,0,0,1,3.115.752l-.234,2.607a4.749,4.749,0,0,0-1.216-.566,4.649,4.649,0,0,0-1.431-.234,2.006,2.006,0,0,0-1.2.3.939.939,0,0,0-.41.791.984.984,0,0,0,.42.791,5.3,5.3,0,0,0,1.533.693,6,6,0,0,1,2.573,1.6,3.583,3.583,0,0,1,.972,2.5,3.886,3.886,0,0,1-1.226,3.027A5.09,5.09,0,0,1,203.6.3a6.3,6.3,0,0,1-3.857-1.084Z" transform="translate(-1428 6922.831)" fill="#fff"/>
    <path id="INCOMING_GRIEVANCES-3" data-name="INCOMING GRIEVANCES" d="M.2,0,5.225-12.861H7.363L12.383,0H9.3l-1-2.656H4.1L3.115,0ZM4.863-5H7.539L6.621-7.559a11.142,11.142,0,0,1-.4-1.3H6.182a9.339,9.339,0,0,1-.4,1.3Zm8.818,5V-12.764h4.3a7.688,7.688,0,0,1,2.622.444,6.861,6.861,0,0,1,2.173,1.25,5.758,5.758,0,0,1,1.489,2.021,6.387,6.387,0,0,1,.552,2.671,6.387,6.387,0,0,1-.552,2.671,5.71,5.71,0,0,1-1.489,2.017A6.912,6.912,0,0,1,20.6-.444,7.688,7.688,0,0,1,17.979,0ZM16.66-2.656h.957a4.436,4.436,0,0,0,2.93-.972,3.371,3.371,0,0,0,1.172-2.749,3.371,3.371,0,0,0-1.172-2.749,4.436,4.436,0,0,0-2.93-.972H16.66ZM26.621,0V-12.764h4.3a7.688,7.688,0,0,1,2.622.444,6.861,6.861,0,0,1,2.173,1.25A5.758,5.758,0,0,1,37.2-9.048a6.387,6.387,0,0,1,.552,2.671A6.387,6.387,0,0,1,37.2-3.706a5.71,5.71,0,0,1-1.489,2.017A6.912,6.912,0,0,1,33.54-.444,7.688,7.688,0,0,1,30.918,0ZM29.6-2.656h.957a4.436,4.436,0,0,0,2.93-.972,3.371,3.371,0,0,0,1.172-2.749,3.371,3.371,0,0,0-1.172-2.749,4.436,4.436,0,0,0-2.93-.972H29.6ZM39.561,0V-12.764h4.756a4.258,4.258,0,0,1,2.91,1.064,3.551,3.551,0,0,1,1.211,2.8,3.5,3.5,0,0,1-.557,1.943A3.314,3.314,0,0,1,46.475-5.7L50.537,0H47.08L43.633-5.02H42.539V0Zm2.979-7.461h1.318a1.784,1.784,0,0,0,1.133-.366A1.275,1.275,0,0,0,45.459-8.9a1.265,1.265,0,0,0-.474-1.05,1.759,1.759,0,0,0-1.128-.376H42.539ZM51.211,0V-12.764h7.432v2.539H54.307v2.549h3.545V-5.1H54.307v2.559h4.9V0Zm8.965-3.76a6.336,6.336,0,0,0,4,1.455,2.257,2.257,0,0,0,1.313-.327,1.045,1.045,0,0,0,.464-.9,1.179,1.179,0,0,0-.42-.937,5.334,5.334,0,0,0-1.6-.771,5.785,5.785,0,0,1-2.524-1.606A3.505,3.505,0,0,1,60.537-9.2a3.62,3.62,0,0,1,1.191-2.773,4.57,4.57,0,0,1,3.232-1.1,5.671,5.671,0,0,1,3.115.752l-.234,2.607a4.749,4.749,0,0,0-1.216-.566,4.649,4.649,0,0,0-1.431-.234,2.006,2.006,0,0,0-1.2.3.939.939,0,0,0-.41.791.984.984,0,0,0,.42.791,5.3,5.3,0,0,0,1.533.693,6,6,0,0,1,2.573,1.6,3.583,3.583,0,0,1,.972,2.5A3.886,3.886,0,0,1,67.856-.811,5.09,5.09,0,0,1,64.316.3,6.3,6.3,0,0,1,60.459-.781Zm9.9,0a6.336,6.336,0,0,0,4,1.455A2.257,2.257,0,0,0,75.4-2.632a1.045,1.045,0,0,0,.464-.9,1.179,1.179,0,0,0-.42-.937,5.334,5.334,0,0,0-1.6-.771,5.785,5.785,0,0,1-2.524-1.606A3.505,3.505,0,0,1,70.439-9.2a3.62,3.62,0,0,1,1.191-2.773,4.57,4.57,0,0,1,3.232-1.1,5.671,5.671,0,0,1,3.115.752l-.234,2.607a4.749,4.749,0,0,0-1.216-.566,4.649,4.649,0,0,0-1.431-.234,2.006,2.006,0,0,0-1.2.3.939.939,0,0,0-.41.791.984.984,0,0,0,.42.791,5.3,5.3,0,0,0,1.533.693,6,6,0,0,1,2.573,1.6,3.583,3.583,0,0,1,.972,2.5A3.886,3.886,0,0,1,77.759-.811,5.09,5.09,0,0,1,74.219.3,6.3,6.3,0,0,1,70.361-.781ZM80.84,0V-12.764h3.105V0Zm5.5,0V-12.764h2.5L93.154-8q1.377,1.533,2.08,2.441l.039-.02q-.059-1.143-.059-2.383v-4.8h3.1V.137H96.758L91.8-5.3Q90.771-6.426,89.414-8.1l-.039.02q.059,1.348.059,2.676V0Zm13.779-6.377a6.859,6.859,0,0,1,.405-2.383,5.874,5.874,0,0,1,1.089-1.88,6.874,6.874,0,0,1,1.587-1.328,7.265,7.265,0,0,1,1.895-.82,7.678,7.678,0,0,1,2.017-.269,7.308,7.308,0,0,1,4.063,1.016l-.234,2.725a5.775,5.775,0,0,0-3.506-1.064,4.616,4.616,0,0,0-2.129.488,3.789,3.789,0,0,0-1.533,1.431,4.063,4.063,0,0,0-.576,2.163,3.717,3.717,0,0,0,1.182,2.861,4.188,4.188,0,0,0,2.959,1.094,3.375,3.375,0,0,0,1.738-.381v-1.8h-2.314V-6.9h5.156v5.889A7.423,7.423,0,0,1,107.2.3a8.021,8.021,0,0,1-2.085-.273,7.2,7.2,0,0,1-1.924-.83A6.913,6.913,0,0,1,101.6-2.139a5.885,5.885,0,0,1-1.084-1.875A6.823,6.823,0,0,1,100.117-6.377Zm17.949,0a6.859,6.859,0,0,1,.405-2.383,5.874,5.874,0,0,1,1.089-1.88,6.874,6.874,0,0,1,1.587-1.328,7.265,7.265,0,0,1,1.895-.82,7.678,7.678,0,0,1,2.017-.269,7.308,7.308,0,0,1,4.063,1.016l-.234,2.725a5.775,5.775,0,0,0-3.506-1.064,4.616,4.616,0,0,0-2.129.488,3.789,3.789,0,0,0-1.533,1.431,4.063,4.063,0,0,0-.576,2.163,3.717,3.717,0,0,0,1.182,2.861,4.188,4.188,0,0,0,2.959,1.094,3.375,3.375,0,0,0,1.738-.381v-1.8h-2.314V-6.9h5.156v5.889A7.423,7.423,0,0,1,125.146.3a8.021,8.021,0,0,1-2.085-.273,7.2,7.2,0,0,1-1.924-.83,6.913,6.913,0,0,1-1.587-1.338,5.885,5.885,0,0,1-1.084-1.875A6.823,6.823,0,0,1,118.066-6.377ZM131.924,0V-12.764h4.756a4.258,4.258,0,0,1,2.91,1.064A3.551,3.551,0,0,1,140.8-8.9a3.5,3.5,0,0,1-.557,1.943,3.314,3.314,0,0,1-1.406,1.25L142.9,0h-3.457L136-5.02H134.9V0ZM134.9-7.461h1.318a1.784,1.784,0,0,0,1.133-.366,1.275,1.275,0,0,0,.469-1.069,1.265,1.265,0,0,0-.474-1.05,1.759,1.759,0,0,0-1.128-.376H134.9ZM143.77,0V-12.764h3.105V0Zm5.5,0V-12.764H156.7v2.539h-4.336v2.549h3.545V-5.1h-3.545v2.559h4.9V0Zm8.33-12.764h3.174l2,5.625q.391,1.094.84,2.842h.039q.449-1.748.84-2.842l2-5.625h2.939L164.795.078h-2.539ZM168.564,0l5.029-12.861h2.139L180.752,0h-3.086l-1-2.656h-4.2L171.484,0Zm4.668-5h2.676l-.918-2.559a11.142,11.142,0,0,1-.4-1.3h-.039a9.339,9.339,0,0,1-.4,1.3Zm8.818,5V-12.764h2.5L188.867-8q1.377,1.533,2.08,2.441l.039-.02q-.059-1.143-.059-2.383v-4.8h3.1V.137h-1.553L187.51-5.3q-1.025-1.123-2.383-2.793l-.039.02q.059,1.348.059,2.676V0ZM195.83-6.377a6.935,6.935,0,0,1,.4-2.383,5.8,5.8,0,0,1,1.084-1.88,6.961,6.961,0,0,1,1.577-1.328,7.111,7.111,0,0,1,1.885-.82,7.642,7.642,0,0,1,2.007-.269,7.244,7.244,0,0,1,3.623.781l-.215,2.7a5.594,5.594,0,0,0-3.047-.8,4.226,4.226,0,0,0-2.979,1.108,3.756,3.756,0,0,0-1.2,2.9A3.693,3.693,0,0,0,200.181-3.5a4.394,4.394,0,0,0,3.062,1.1,5.675,5.675,0,0,0,3.145-.762l-.264,2.783a6.694,6.694,0,0,1-3.34.684,7.7,7.7,0,0,1-2.012-.269,7.007,7.007,0,0,1-1.89-.825,6.969,6.969,0,0,1-1.572-1.333A5.855,5.855,0,0,1,196.23-4,6.905,6.905,0,0,1,195.83-6.377ZM208.086,0V-12.764h7.432v2.539h-4.336v2.549h3.545V-5.1h-3.545v2.559h4.9V0Zm8.965-3.76a6.336,6.336,0,0,0,4,1.455,2.257,2.257,0,0,0,1.313-.327,1.045,1.045,0,0,0,.464-.9,1.179,1.179,0,0,0-.42-.937,5.334,5.334,0,0,0-1.6-.771,5.785,5.785,0,0,1-2.524-1.606,3.505,3.505,0,0,1-.874-2.349,3.62,3.62,0,0,1,1.191-2.773,4.57,4.57,0,0,1,3.232-1.1,5.671,5.671,0,0,1,3.115.752l-.234,2.607a4.749,4.749,0,0,0-1.216-.566,4.649,4.649,0,0,0-1.431-.234,2.006,2.006,0,0,0-1.2.3.939.939,0,0,0-.41.791.984.984,0,0,0,.42.791,5.3,5.3,0,0,0,1.533.693,6,6,0,0,1,2.573,1.6,3.583,3.583,0,0,1,.972,2.5,3.886,3.886,0,0,1-1.226,3.027A5.09,5.09,0,0,1,221.191.3a6.3,6.3,0,0,1-3.857-1.084Z" transform="translate(-1428 7024.831)" fill="#fff"/>
    <path id="compliance_grievances" data-name="compliance grievances" d="M.563-5.1a5.548,5.548,0,0,1,.32-1.906,4.644,4.644,0,0,1,.867-1.5A5.569,5.569,0,0,1,3.012-9.574,5.689,5.689,0,0,1,4.52-10.23a6.113,6.113,0,0,1,1.605-.215,5.8,5.8,0,0,1,2.9.625L8.852-7.664A4.475,4.475,0,0,0,6.414-8.3a3.381,3.381,0,0,0-2.383.887A3.005,3.005,0,0,0,3.07-5.1a2.954,2.954,0,0,0,.973,2.3,3.515,3.515,0,0,0,2.449.879,4.54,4.54,0,0,0,2.516-.609L8.8-.3A5.355,5.355,0,0,1,6.125.242,6.157,6.157,0,0,1,4.516.027,5.606,5.606,0,0,1,3-.633,5.575,5.575,0,0,1,1.746-1.7,4.684,4.684,0,0,1,.883-3.2,5.524,5.524,0,0,1,.563-5.1ZM9.8-3.617a3.653,3.653,0,0,1,1.141-2.766,3.923,3.923,0,0,1,2.813-1.086,4.114,4.114,0,0,1,1.984.484,3.643,3.643,0,0,1,1.426,1.371,3.83,3.83,0,0,1,.527,2,3.815,3.815,0,0,1-.527,1.988A3.643,3.643,0,0,1,15.742-.258a4.114,4.114,0,0,1-1.984.484,4.153,4.153,0,0,1-2-.484,3.636,3.636,0,0,1-1.43-1.371A3.815,3.815,0,0,1,9.8-3.617Zm2.273,0A1.855,1.855,0,0,0,12.57-2.3a1.566,1.566,0,0,0,1.188.527A1.57,1.57,0,0,0,14.941-2.3a1.847,1.847,0,0,0,.5-1.316,1.885,1.885,0,0,0-.5-1.332,1.56,1.56,0,0,0-1.184-.535,1.561,1.561,0,0,0-1.187.531A1.89,1.89,0,0,0,12.078-3.617ZM18.891,0V-7.25h2.063l.07.719a2.161,2.161,0,0,1,.84-.652,2.969,2.969,0,0,1,1.27-.254,2.447,2.447,0,0,1,2.063.922,2.459,2.459,0,0,1,.992-.66,3.8,3.8,0,0,1,1.422-.262,2.7,2.7,0,0,1,1.961.688,2.4,2.4,0,0,1,.711,1.8V0H27.93V-4.461a.761.761,0,0,0-.281-.621,1.16,1.16,0,0,0-.758-.23,1.276,1.276,0,0,0-.8.242.771.771,0,0,0-.312.641V0H23.422V-4.461a.757.757,0,0,0-.285-.621,1.216,1.216,0,0,0-.785-.23,1.263,1.263,0,0,0-.8.242.771.771,0,0,0-.312.641V0ZM31.8,3.7V-7.25h1.844l.063.531a1.682,1.682,0,0,1,.8-.535,3.576,3.576,0,0,1,1.188-.184,3.477,3.477,0,0,1,1.3.258,4.06,4.06,0,0,1,1.172.719,3.39,3.39,0,0,1,.852,1.18,3.774,3.774,0,0,1,.324,1.57,4.115,4.115,0,0,1-.512,2.066,3.528,3.528,0,0,1-1.4,1.387,4.1,4.1,0,0,1-2,.484,2.577,2.577,0,0,1-1.359-.3V3.7ZM34.07-2.242a1.9,1.9,0,0,0,1.313.453A1.6,1.6,0,0,0,36.594-2.3a1.816,1.816,0,0,0,.484-1.3,1.8,1.8,0,0,0-.484-1.3,1.6,1.6,0,0,0-1.211-.508,1.824,1.824,0,0,0-1.312.492Zm6.7-.062v-9.086h2.32v8.914a1.16,1.16,0,0,0,.254.781,1.15,1.15,0,0,0,.645.383L42.945.32a2.019,2.019,0,0,1-.75-.2,2.625,2.625,0,0,1-.7-.5,2.317,2.317,0,0,1-.523-.82A2.981,2.981,0,0,1,40.773-2.3Zm4.945-6.578a1.237,1.237,0,0,1-.453-.75,1.264,1.264,0,0,1,.453-.758,1.233,1.233,0,0,1,.742-.461,1.259,1.259,0,0,1,.758.461,1.259,1.259,0,0,1,.461.758,1.232,1.232,0,0,1-.461.75,1.264,1.264,0,0,1-.758.453A1.238,1.238,0,0,1,45.719-8.883ZM45.3,0V-7.25h2.367V0Zm3.734-2.156a2.1,2.1,0,0,1,.691-1.613A2.983,2.983,0,0,1,51.5-4.516l1.438-.141v-.258q0-.75-1.133-.75a5.071,5.071,0,0,0-1.187.141,3.5,3.5,0,0,0-.945.352L49.5-6.961a3.868,3.868,0,0,1,1.078-.367,6.58,6.58,0,0,1,1.352-.141,3.554,3.554,0,0,1,2.406.758,2.689,2.689,0,0,1,.875,2.148v2.086a.935.935,0,0,0,.828,1.07L55.227.227a1.814,1.814,0,0,1-1.539-.82,2.6,2.6,0,0,1-2.031.82,2.761,2.761,0,0,1-1.879-.648A2.183,2.183,0,0,1,49.031-2.156Zm2.055.031a.659.659,0,0,0,.219.5.764.764,0,0,0,.547.207,1.167,1.167,0,0,0,.8-.312A.978.978,0,0,0,53-2.492v-.68l-.977.1a1.034,1.034,0,0,0-.7.313A.924.924,0,0,0,51.086-2.125ZM57.031,0V-7.25h2.063l.07.719a2.512,2.512,0,0,1,2.172-.906,2.7,2.7,0,0,1,1.945.711,2.506,2.506,0,0,1,.742,1.9V0H61.672V-4.32a.979.979,0,0,0-.289-.715,1.09,1.09,0,0,0-.812-.293,1.232,1.232,0,0,0-.859.3.959.959,0,0,0-.328.742V0Zm8.188-3.617a3.861,3.861,0,0,1,.332-1.609,3.511,3.511,0,0,1,.887-1.219A4.112,4.112,0,0,1,67.711-7.2a4.259,4.259,0,0,1,1.508-.27,4.7,4.7,0,0,1,2.3.508L71.336-4.93a3.5,3.5,0,0,0-1.8-.461,2.038,2.038,0,0,0-1.391.484,1.626,1.626,0,0,0-.555,1.289,1.609,1.609,0,0,0,.6,1.3,2.217,2.217,0,0,0,1.465.5,3.787,3.787,0,0,0,1.789-.453L71.258-.18a4.352,4.352,0,0,1-2.023.406,4.268,4.268,0,0,1-1.516-.273A4.151,4.151,0,0,1,66.438-.8a3.511,3.511,0,0,1-.887-1.219A3.823,3.823,0,0,1,65.219-3.617Zm7.063-.047a3.871,3.871,0,0,1,.523-2.02,3.489,3.489,0,0,1,1.379-1.332,3.951,3.951,0,0,1,1.879-.453,3.519,3.519,0,0,1,1.723.414,2.9,2.9,0,0,1,1.137,1.063,2.7,2.7,0,0,1,.383,1.4,3.3,3.3,0,0,1-.078.719l-.945.93H74.672a1.83,1.83,0,0,0,.7.965,2.3,2.3,0,0,0,1.426.41,4.061,4.061,0,0,0,2.094-.555l-.2,1.93a4.9,4.9,0,0,1-2.164.422,4.8,4.8,0,0,1-2.148-.473,3.71,3.71,0,0,1-1.527-1.367A3.751,3.751,0,0,1,72.281-3.664Zm2.3-.781h2.563a.588.588,0,0,0,.016-.164,1.072,1.072,0,0,0-.3-.766,1.05,1.05,0,0,0-.8-.32,1.42,1.42,0,0,0-.945.352A1.579,1.579,0,0,0,74.586-4.445ZM83.922-5.1a5.487,5.487,0,0,1,.324-1.906,4.7,4.7,0,0,1,.871-1.5,5.5,5.5,0,0,1,1.27-1.062A5.812,5.812,0,0,1,87.9-10.23a6.142,6.142,0,0,1,1.613-.215,5.847,5.847,0,0,1,3.25.813l-.187,2.18a4.62,4.62,0,0,0-2.8-.852,3.693,3.693,0,0,0-1.7.391A3.031,3.031,0,0,0,86.844-6.77a3.25,3.25,0,0,0-.461,1.73,2.974,2.974,0,0,0,.945,2.289,3.351,3.351,0,0,0,2.367.875,2.7,2.7,0,0,0,1.391-.3V-3.617H89.234V-5.523h4.125V-.812A5.939,5.939,0,0,1,89.586.242,6.417,6.417,0,0,1,87.918.023a5.761,5.761,0,0,1-1.539-.664,5.531,5.531,0,0,1-1.27-1.07,4.708,4.708,0,0,1-.867-1.5A5.458,5.458,0,0,1,83.922-5.1ZM94.977,0V-7.25h2.156L97.2-6.109a2.532,2.532,0,0,1,2.531-1.266L99.9-5.344h-.187A2.448,2.448,0,0,0,98-4.719a2.377,2.377,0,0,0-.687,1.852V0Zm6.547-8.883a1.237,1.237,0,0,1-.453-.75,1.264,1.264,0,0,1,.453-.758,1.233,1.233,0,0,1,.742-.461,1.259,1.259,0,0,1,.758.461,1.259,1.259,0,0,1,.461.758,1.232,1.232,0,0,1-.461.75,1.264,1.264,0,0,1-.758.453A1.238,1.238,0,0,1,101.523-8.883ZM101.1,0V-7.25h2.367V0Zm3.734-3.664a3.871,3.871,0,0,1,.523-2.02,3.489,3.489,0,0,1,1.379-1.332,3.951,3.951,0,0,1,1.879-.453,3.519,3.519,0,0,1,1.723.414,2.9,2.9,0,0,1,1.137,1.063,2.7,2.7,0,0,1,.383,1.4,3.3,3.3,0,0,1-.078.719l-.945.93h-3.609a1.83,1.83,0,0,0,.7.965,2.3,2.3,0,0,0,1.426.41,4.061,4.061,0,0,0,2.094-.555l-.2,1.93a4.9,4.9,0,0,1-2.164.422,4.8,4.8,0,0,1-2.148-.473A3.71,3.71,0,0,1,105.4-1.613,3.751,3.751,0,0,1,104.836-3.664Zm2.3-.781H109.7a.588.588,0,0,0,.016-.164,1.072,1.072,0,0,0-.3-.766,1.05,1.05,0,0,0-.8-.32,1.42,1.42,0,0,0-.945.352A1.579,1.579,0,0,0,107.141-4.445Zm5.18-2.8h2.273L115.6-4.492a12.95,12.95,0,0,1,.414,1.375h.031q.086-.336.414-1.375l1.023-2.758h2.18l-2.8,7.313H115.1Zm7.641,5.094a2.1,2.1,0,0,1,.691-1.613,2.983,2.983,0,0,1,1.777-.746l1.438-.141v-.258q0-.75-1.133-.75a5.071,5.071,0,0,0-1.187.141,3.5,3.5,0,0,0-.945.352l-.172-1.789a3.868,3.868,0,0,1,1.078-.367,6.58,6.58,0,0,1,1.352-.141,3.554,3.554,0,0,1,2.406.758,2.689,2.689,0,0,1,.875,2.148v2.086a.935.935,0,0,0,.828,1.07L126.156.227a1.814,1.814,0,0,1-1.539-.82,2.6,2.6,0,0,1-2.031.82,2.761,2.761,0,0,1-1.879-.648A2.182,2.182,0,0,1,119.961-2.156Zm2.055.031a.659.659,0,0,0,.219.5.764.764,0,0,0,.547.207,1.167,1.167,0,0,0,.8-.312.978.978,0,0,0,.352-.758v-.68l-.977.1a1.034,1.034,0,0,0-.7.313A.924.924,0,0,0,122.016-2.125ZM127.961,0V-7.25h2.063l.07.719a2.512,2.512,0,0,1,2.172-.906,2.7,2.7,0,0,1,1.945.711,2.506,2.506,0,0,1,.742,1.9V0H132.6V-4.32a.979.979,0,0,0-.289-.715,1.09,1.09,0,0,0-.812-.293,1.232,1.232,0,0,0-.859.3.959.959,0,0,0-.328.742V0Zm8.188-3.617a3.861,3.861,0,0,1,.332-1.609,3.511,3.511,0,0,1,.887-1.219,4.112,4.112,0,0,1,1.273-.754,4.259,4.259,0,0,1,1.508-.27,4.7,4.7,0,0,1,2.3.508l-.187,2.031a3.5,3.5,0,0,0-1.8-.461,2.038,2.038,0,0,0-1.391.484,1.626,1.626,0,0,0-.555,1.289,1.609,1.609,0,0,0,.6,1.3,2.217,2.217,0,0,0,1.465.5,3.787,3.787,0,0,0,1.789-.453L142.188-.18a4.352,4.352,0,0,1-2.023.406,4.268,4.268,0,0,1-1.516-.273A4.151,4.151,0,0,1,137.367-.8a3.511,3.511,0,0,1-.887-1.219A3.823,3.823,0,0,1,136.148-3.617Zm7.063-.047a3.871,3.871,0,0,1,.523-2.02,3.489,3.489,0,0,1,1.379-1.332,3.951,3.951,0,0,1,1.879-.453,3.519,3.519,0,0,1,1.723.414,2.9,2.9,0,0,1,1.137,1.063,2.7,2.7,0,0,1,.383,1.4,3.3,3.3,0,0,1-.078.719l-.945.93H145.6a1.83,1.83,0,0,0,.7.965,2.3,2.3,0,0,0,1.426.41,4.061,4.061,0,0,0,2.094-.555l-.2,1.93a4.9,4.9,0,0,1-2.164.422A4.8,4.8,0,0,1,145.3-.246a3.71,3.71,0,0,1-1.527-1.367A3.751,3.751,0,0,1,143.211-3.664Zm2.3-.781h2.563a.588.588,0,0,0,.016-.164,1.072,1.072,0,0,0-.3-.766,1.05,1.05,0,0,0-.8-.32,1.42,1.42,0,0,0-.945.352A1.579,1.579,0,0,0,145.516-4.445Zm5.594,2.016a3.6,3.6,0,0,0,1.125.648,3.81,3.81,0,0,0,1.328.242.96.96,0,0,0,.559-.145.443.443,0,0,0,.207-.379.482.482,0,0,0-.187-.4,2.545,2.545,0,0,0-.648-.32,3.729,3.729,0,0,1-1.582-.965,2.071,2.071,0,0,1-.559-1.441,2.067,2.067,0,0,1,.742-1.645,2.859,2.859,0,0,1,1.93-.637,4.567,4.567,0,0,1,1.156.141,3.082,3.082,0,0,1,.828.32l-.18,1.773a2.828,2.828,0,0,0-1.664-.492.779.779,0,0,0-.492.141.444.444,0,0,0-.18.367.438.438,0,0,0,.188.367,2.6,2.6,0,0,0,.68.3q2.156.68,2.156,2.453a2.148,2.148,0,0,1-.727,1.66,3.072,3.072,0,0,1-2.133.66,4.885,4.885,0,0,1-1.328-.176,3.513,3.513,0,0,1-1.008-.434Z" transform="translate(-1543.345 6817.831)" fill="#fff"/>
    <path id="dispute_grievances" data-name="dispute grievances" d="M.883,0V-10.211H4.32a6.15,6.15,0,0,1,2.1.355,5.489,5.489,0,0,1,1.738,1A4.607,4.607,0,0,1,9.348-7.238,5.11,5.11,0,0,1,9.789-5.1a5.11,5.11,0,0,1-.441,2.137A4.568,4.568,0,0,1,8.156-1.352a5.529,5.529,0,0,1-1.738,1A6.15,6.15,0,0,1,4.32,0ZM3.266-2.125h.766A3.549,3.549,0,0,0,6.375-2.9a2.7,2.7,0,0,0,.938-2.2,2.7,2.7,0,0,0-.937-2.2,3.549,3.549,0,0,0-2.344-.777H3.266ZM11.7-8.883a1.237,1.237,0,0,1-.453-.75,1.264,1.264,0,0,1,.453-.758,1.233,1.233,0,0,1,.742-.461,1.259,1.259,0,0,1,.758.461,1.259,1.259,0,0,1,.461.758,1.232,1.232,0,0,1-.461.75,1.264,1.264,0,0,1-.758.453A1.238,1.238,0,0,1,11.7-8.883ZM11.281,0V-7.25h2.367V0Zm3.688-2.43a3.6,3.6,0,0,0,1.125.648,3.81,3.81,0,0,0,1.328.242.96.96,0,0,0,.559-.145.443.443,0,0,0,.207-.379.482.482,0,0,0-.187-.4,2.545,2.545,0,0,0-.648-.32,3.729,3.729,0,0,1-1.582-.965,2.071,2.071,0,0,1-.559-1.441,2.067,2.067,0,0,1,.742-1.645,2.859,2.859,0,0,1,1.93-.637,4.567,4.567,0,0,1,1.156.141,3.082,3.082,0,0,1,.828.32l-.18,1.773a2.828,2.828,0,0,0-1.664-.492.779.779,0,0,0-.492.141.444.444,0,0,0-.18.367.438.438,0,0,0,.188.367,2.6,2.6,0,0,0,.68.3q2.156.68,2.156,2.453a2.148,2.148,0,0,1-.727,1.66,3.072,3.072,0,0,1-2.133.66A4.885,4.885,0,0,1,16.188.051,3.513,3.513,0,0,1,15.18-.383ZM21.633,3.7V-7.25h1.844l.063.531a1.682,1.682,0,0,1,.8-.535,3.576,3.576,0,0,1,1.188-.184,3.477,3.477,0,0,1,1.3.258A4.06,4.06,0,0,1,28-6.461a3.39,3.39,0,0,1,.852,1.18,3.774,3.774,0,0,1,.324,1.57,4.115,4.115,0,0,1-.512,2.066,3.528,3.528,0,0,1-1.4,1.387,4.1,4.1,0,0,1-2,.484,2.577,2.577,0,0,1-1.359-.3V3.7Zm2.273-5.937a1.9,1.9,0,0,0,1.313.453A1.6,1.6,0,0,0,26.43-2.3a1.816,1.816,0,0,0,.484-1.3,1.8,1.8,0,0,0-.484-1.3,1.6,1.6,0,0,0-1.211-.508,1.824,1.824,0,0,0-1.312.492Zm6.461-.172V-7.25h2.352v4.32a.973.973,0,0,0,.293.715,1.1,1.1,0,0,0,.816.293,1.217,1.217,0,0,0,.855-.3.964.964,0,0,0,.324-.742V-7.25h2.352V0H35.3l-.062-.719A2.524,2.524,0,0,1,33.055.2a2.7,2.7,0,0,1-1.945-.711A2.506,2.506,0,0,1,30.367-2.414Zm7.867-2.914V-7.25h1.281V-8.656l2.242-.852V-7.25h2.273l-.18,1.922H41.789V-2.7a.8.8,0,0,0,.246.621.935.935,0,0,0,.652.223,2.195,2.195,0,0,0,.75-.109L43.266-.047a2.806,2.806,0,0,1-1.109.172,2.724,2.724,0,0,1-1.941-.7,2.348,2.348,0,0,1-.746-1.793V-5.328ZM44.6-3.664a3.871,3.871,0,0,1,.523-2.02A3.489,3.489,0,0,1,46.5-7.016a3.951,3.951,0,0,1,1.879-.453,3.519,3.519,0,0,1,1.723.414,2.9,2.9,0,0,1,1.137,1.063,2.7,2.7,0,0,1,.383,1.4,3.3,3.3,0,0,1-.078.719l-.945.93H46.992a1.83,1.83,0,0,0,.7.965,2.3,2.3,0,0,0,1.426.41,4.061,4.061,0,0,0,2.094-.555l-.2,1.93a4.9,4.9,0,0,1-2.164.422A4.8,4.8,0,0,1,46.7-.246a3.71,3.71,0,0,1-1.527-1.367A3.751,3.751,0,0,1,44.6-3.664Zm2.3-.781h2.563a.588.588,0,0,0,.016-.164,1.072,1.072,0,0,0-.3-.766,1.05,1.05,0,0,0-.8-.32,1.42,1.42,0,0,0-.945.352A1.579,1.579,0,0,0,46.906-4.445ZM56.242-5.1a5.487,5.487,0,0,1,.324-1.906,4.7,4.7,0,0,1,.871-1.5,5.5,5.5,0,0,1,1.27-1.062,5.812,5.812,0,0,1,1.516-.656,6.142,6.142,0,0,1,1.613-.215,5.847,5.847,0,0,1,3.25.813L64.9-7.453a4.62,4.62,0,0,0-2.8-.852,3.693,3.693,0,0,0-1.7.391A3.031,3.031,0,0,0,59.164-6.77a3.25,3.25,0,0,0-.461,1.73,2.974,2.974,0,0,0,.945,2.289,3.351,3.351,0,0,0,2.367.875,2.7,2.7,0,0,0,1.391-.3V-3.617H61.555V-5.523H65.68V-.812A5.939,5.939,0,0,1,61.906.242,6.417,6.417,0,0,1,60.238.023,5.761,5.761,0,0,1,58.7-.641a5.531,5.531,0,0,1-1.27-1.07,4.708,4.708,0,0,1-.867-1.5A5.458,5.458,0,0,1,56.242-5.1ZM67.3,0V-7.25h2.156l.063,1.141a2.532,2.532,0,0,1,2.531-1.266l.172,2.031h-.187a2.448,2.448,0,0,0-1.711.625,2.377,2.377,0,0,0-.687,1.852V0Zm6.547-8.883a1.237,1.237,0,0,1-.453-.75,1.264,1.264,0,0,1,.453-.758,1.233,1.233,0,0,1,.742-.461,1.259,1.259,0,0,1,.758.461,1.259,1.259,0,0,1,.461.758,1.232,1.232,0,0,1-.461.75,1.264,1.264,0,0,1-.758.453A1.238,1.238,0,0,1,73.844-8.883ZM73.422,0V-7.25h2.367V0Zm3.734-3.664a3.871,3.871,0,0,1,.523-2.02,3.489,3.489,0,0,1,1.379-1.332,3.951,3.951,0,0,1,1.879-.453,3.519,3.519,0,0,1,1.723.414A2.9,2.9,0,0,1,83.8-5.992a2.7,2.7,0,0,1,.383,1.4,3.3,3.3,0,0,1-.078.719l-.945.93H79.547a1.83,1.83,0,0,0,.7.965,2.3,2.3,0,0,0,1.426.41,4.061,4.061,0,0,0,2.094-.555l-.2,1.93A4.9,4.9,0,0,1,81.4.227,4.8,4.8,0,0,1,79.25-.246a3.71,3.71,0,0,1-1.527-1.367A3.751,3.751,0,0,1,77.156-3.664Zm2.3-.781h2.563a.588.588,0,0,0,.016-.164,1.072,1.072,0,0,0-.3-.766,1.05,1.05,0,0,0-.8-.32,1.42,1.42,0,0,0-.945.352A1.579,1.579,0,0,0,79.461-4.445Zm5.18-2.8h2.273l1.008,2.758a12.95,12.95,0,0,1,.414,1.375h.031q.086-.336.414-1.375L89.8-7.25h2.18L89.18.063H87.422Zm7.641,5.094a2.1,2.1,0,0,1,.691-1.613,2.983,2.983,0,0,1,1.777-.746l1.438-.141v-.258q0-.75-1.133-.75a5.071,5.071,0,0,0-1.187.141,3.5,3.5,0,0,0-.945.352L92.75-6.961a3.868,3.868,0,0,1,1.078-.367,6.58,6.58,0,0,1,1.352-.141,3.554,3.554,0,0,1,2.406.758,2.689,2.689,0,0,1,.875,2.148v2.086a.935.935,0,0,0,.828,1.07L98.477.227a1.814,1.814,0,0,1-1.539-.82,2.6,2.6,0,0,1-2.031.82,2.761,2.761,0,0,1-1.879-.648A2.182,2.182,0,0,1,92.281-2.156Zm2.055.031a.659.659,0,0,0,.219.5.764.764,0,0,0,.547.207,1.167,1.167,0,0,0,.8-.312.978.978,0,0,0,.352-.758v-.68l-.977.1a1.034,1.034,0,0,0-.7.313A.924.924,0,0,0,94.336-2.125ZM100.281,0V-7.25h2.063l.07.719a2.512,2.512,0,0,1,2.172-.906,2.7,2.7,0,0,1,1.945.711,2.506,2.506,0,0,1,.742,1.9V0h-2.352V-4.32a.979.979,0,0,0-.289-.715,1.09,1.09,0,0,0-.812-.293,1.232,1.232,0,0,0-.859.3.959.959,0,0,0-.328.742V0Zm8.188-3.617a3.861,3.861,0,0,1,.332-1.609,3.511,3.511,0,0,1,.887-1.219,4.112,4.112,0,0,1,1.273-.754,4.259,4.259,0,0,1,1.508-.27,4.7,4.7,0,0,1,2.3.508l-.187,2.031a3.5,3.5,0,0,0-1.8-.461,2.038,2.038,0,0,0-1.391.484,1.626,1.626,0,0,0-.555,1.289,1.609,1.609,0,0,0,.6,1.3,2.217,2.217,0,0,0,1.465.5,3.787,3.787,0,0,0,1.789-.453L114.508-.18a4.352,4.352,0,0,1-2.023.406,4.268,4.268,0,0,1-1.516-.273A4.151,4.151,0,0,1,109.688-.8a3.511,3.511,0,0,1-.887-1.219A3.823,3.823,0,0,1,108.469-3.617Zm7.063-.047a3.871,3.871,0,0,1,.523-2.02,3.489,3.489,0,0,1,1.379-1.332,3.951,3.951,0,0,1,1.879-.453,3.519,3.519,0,0,1,1.723.414,2.9,2.9,0,0,1,1.137,1.063,2.7,2.7,0,0,1,.383,1.4,3.3,3.3,0,0,1-.078.719l-.945.93h-3.609a1.83,1.83,0,0,0,.7.965,2.3,2.3,0,0,0,1.426.41,4.061,4.061,0,0,0,2.094-.555l-.2,1.93a4.9,4.9,0,0,1-2.164.422,4.8,4.8,0,0,1-2.148-.473A3.71,3.71,0,0,1,116.1-1.613,3.751,3.751,0,0,1,115.531-3.664Zm2.3-.781H120.4a.588.588,0,0,0,.016-.164,1.072,1.072,0,0,0-.3-.766,1.05,1.05,0,0,0-.8-.32,1.42,1.42,0,0,0-.945.352A1.579,1.579,0,0,0,117.836-4.445ZM123.43-2.43a3.6,3.6,0,0,0,1.125.648,3.81,3.81,0,0,0,1.328.242.96.96,0,0,0,.559-.145.443.443,0,0,0,.207-.379.482.482,0,0,0-.187-.4,2.545,2.545,0,0,0-.648-.32,3.729,3.729,0,0,1-1.582-.965,2.071,2.071,0,0,1-.559-1.441,2.067,2.067,0,0,1,.742-1.645,2.859,2.859,0,0,1,1.93-.637,4.567,4.567,0,0,1,1.156.141,3.082,3.082,0,0,1,.828.32l-.18,1.773a2.828,2.828,0,0,0-1.664-.492.779.779,0,0,0-.492.141.444.444,0,0,0-.18.367.438.438,0,0,0,.188.367,2.6,2.6,0,0,0,.68.3q2.156.68,2.156,2.453a2.148,2.148,0,0,1-.727,1.66,3.072,3.072,0,0,1-2.133.66,4.885,4.885,0,0,1-1.328-.176,3.514,3.514,0,0,1-1.008-.434Z" transform="translate(-1244.505 6817.831)" fill="#fff"/>
    <path id="Polygon_1" data-name="Polygon 1" d="M8,0l8,11H0Z" transform="translate(-1314.082 6784) rotate(180)" fill="#797979"/>
    <path id="Polygon_2" data-name="Polygon 2" d="M8,0l8,11H0Z" transform="translate(-1314.082 6886) rotate(180)" fill="#797979"/>
    <path id="Polygon_3" data-name="Polygon 3" d="M8,0l8,11H0Z" transform="translate(-1314.082 6990) rotate(180)" fill="#797979"/>
  </g>
</svg>
