<svg xmlns="http://www.w3.org/2000/svg" width="17.587" height="17.557" viewBox="0 0 17.587 17.557">
  <g id="icon-in" transform="translate(0 -0.08)">
    <g id="Group_243" data-name="Group 243" transform="translate(0 0.08)">
      <path id="Path_18550" data-name="Path 18550" d="M2.114.08A2.113,2.113,0,1,0,4.226,2.193,2.114,2.114,0,0,0,2.114.08Z" transform="translate(0 -0.08)" fill="#fff"/>
      <rect id="Rectangle_158" data-name="Rectangle 158" width="3.645" height="11.727" transform="translate(0.291 5.83)" fill="#fff"/>
      <path id="Path_18551" data-name="Path 18551" d="M39.913,29.383a3.83,3.83,0,0,0-3.449,1.894h-.049v-1.6h-3.5V41.4h3.642V35.6c0-1.529.291-3.011,2.188-3.011,1.869,0,1.894,1.749,1.894,3.109v5.7h3.642V34.969C44.286,31.812,43.6,29.383,39.913,29.383Z" transform="translate(-26.699 -23.845)" fill="#fff"/>
    </g>
  </g>
</svg>
