<?xml version="1.0" encoding="utf-8"?>
<svg xmlns="http://www.w3.org/2000/svg" xmlns:xlink="http://www.w3.org/1999/xlink" width="66.137" height="39.326" viewBox="0 0 66.137 39.326">
  <defs>
    <clipPath id="clip-path">
      <path id="Path_23929" data-name="Path 23929" d="M0-10.608H66.137V-49.934H0Z" transform="translate(0 49.934)" fill="none"/>
    </clipPath>
  </defs>
  <g id="Group_1201" data-name="Group 1201" transform="translate(0 49.934)">
    <g id="Group_1200" data-name="Group 1200" transform="translate(0 -49.934)" clip-path="url(#clip-path)">
      <path id="Path_23927" data-name="Path 23927" d="M65.85-29.645H56.037v18.912H65.85Zm0,18.912M60.8-14.441a1.319,1.319,0,0,1-1.319,1.32,1.32,1.32,0,0,1-1.32-1.32,1.32,1.32,0,0,1,1.32-1.319A1.319,1.319,0,0,1,60.8-14.441M.5-10.815H22.556V-13.01H18.985v-6.563h.723v-2.386h-.723V-36.621h.723v-2.386H18.555v-2.149H13.179v-2.689h.182v-1.3H11.193v1.3h.183v2.689h-3.4v.623h-1.6A.988.988,0,0,0,5.354-39.45v.443H3.489v2.386h.187v14.663h-1.8v2.386h1.8v6.563H.514ZM11.528-24.673l2.945-1.7V-36.621h1.952v11.557l-2.946,1.7V-13.01H11.528Zm-4.984,5.1H8.654v6.563H6.545Zm0-17.049H8.654v14.663H6.545Zm8.917-6.505h3V-45h-3Z" transform="translate(-0.106 48.918)" fill="#febb32"/>
      <path id="Path_23928" data-name="Path 23928" d="M65.85-30.556H56.037v18.912H65.85Zm0,18.912M59.477-16.67a1.32,1.32,0,0,0-1.32,1.319,1.32,1.32,0,0,0,1.32,1.32,1.319,1.319,0,0,0,1.319-1.32A1.319,1.319,0,0,0,59.477-16.67Zm-21.17,5.026H53.919V-44.081H38.308Zm21.9-23.2c0-2.036-1.139-2.768-3.2-2.768H52.449v1.8l4.609,0c1.37,0,1.344.333,1.344,1.175v5.563h1.8Zm-18.646-6.71h6.786m-6.786,2.106h6.786m-6.786,2.107h6.786m-6.786,2.106h6.786m-6.786,2.105h6.786m-6.786,2.106h6.786M41.556-22.6h6.786m-6.786-6.319h6.786m-6.786,8.424h6.786m-6.786-6.317h6.786m-6.786,8.424h6.786M41.556-24.7h6.786m-6.786,8.424h6.786m-6.786,2.106h6.786M41.616-10.9V-44.829M48.3-10.9V-44.829M22.556-13.92v2.194H.5L.514-13.92H3.675v-6.563h-1.8v-2.386h1.8V-37.532H3.489v-2.386H5.354v-.443a.988.988,0,0,1,1.025-1.084h1.6v-.623h3.4v-2.689h-.183v-1.3h2.168v1.3h-.182v2.689h5.376v2.149h1.153v2.386h-.723v14.664h.723v2.386h-.723v6.563ZM6.1-39.918Zm2.557,2.386H6.545v14.664H8.654Zm0,17.049H6.545v6.563H8.654Zm7.772-17.049H14.474v10.247l-2.945,1.7V-13.92H13.48V-24.275l2.946-1.7Zm-.965-8.377h3v1.872h-3Zm16,10.061.006-1.416c0-.2-.09-.369-.31-.369-.785,0-4.436,0-5.222,0-.637,0-.835.345-.835.9v5.806H33.27v-1.8H28.91s-.095-2.118,1.51-2.118l.377-1Zm3.6,1c1.5,0,1.509,1.575,1.509,2.312v19.465a1.432,1.432,0,0,1-1.427,1.428h-4.8a1.433,1.433,0,0,1-1.428-1.428v-4.4H25.1v5.744H22.541V-17.47h-.826v-2.1h.826v-3.58h-.826v-2.1h.826V-28.83h-.826v-2.1h.826v-6.844a2.236,2.236,0,0,1,2.351-2.415h7.5a1.772,1.772,0,0,1,1.242.6,1.918,1.918,0,0,1,.392,1.354l-.006,2.387h.662Zm-9.957,9.6H33.27v-1.8H28.91V-28.83H25.1Zm0,2.1v3.58H33.27v-1.8H28.91v-1.78ZM56.267-44.087H35.695l10.286-5.348Z" transform="translate(-0.106 49.828)" fill="none" stroke="#1a4a42" stroke-linecap="round" stroke-linejoin="round" stroke-width="1"/>
    </g>
  </g>
</svg>
