<svg xmlns="http://www.w3.org/2000/svg" width="26" height="26" viewBox="0 0 26 26">
  <g id="Group_1348" data-name="Group 1348" transform="translate(-13071 -1921)">
    <rect id="Rectangle_449" data-name="Rectangle 449" width="26" height="26" transform="translate(13071 1921)" fill="#fff" opacity="0"/>
    <g id="Group_1347" data-name="Group 1347" transform="translate(11232.974 623.822)">
      <path id="Path_21728" data-name="Path 21728" d="M1963.024,1332.314v-2.335a.745.745,0,0,0-.2-.519.65.65,0,0,0-.472-.206.7.7,0,0,0-.677.726v4.309a6.535,6.535,0,0,1,1.353-.8Z" transform="translate(-114.931 -28.782)" fill="none"/>
      <path id="Path_21729" data-name="Path 21729" d="M1891.211,1323.389c-.007-.128-.012-.257-.012-.386a6.5,6.5,0,0,1,1.643-4.324.4.4,0,0,1,.034-.042.351.351,0,0,1,.029-.028l.079-.085v-6.043a.746.746,0,0,0-.2-.519.65.65,0,0,0-.472-.206.7.7,0,0,0-.677.725v6.241h0v.336a.387.387,0,1,1-.775,0v-5.543a.678.678,0,1,0-1.353,0v6.406a.385.385,0,0,1-.014.1v.71a2.242,2.242,0,0,0,.661,1.6Z" transform="translate(-47.019 -12.319)" fill="none"/>
      <path id="Path_21730" data-name="Path 21730" d="M1854.033,1422.5a3.829,3.829,0,0,1,1.129,2.725v4.391h7.378v-3.147a6.509,6.509,0,0,1-4.162-1.931.4.4,0,0,1-.055-.053l-.011-.014a6.54,6.54,0,0,1-1.338-2.065.39.39,0,0,1-.027-.068q-.1-.259-.181-.528a1.743,1.743,0,0,0-.31-.421l-1.554-1.554a3.013,3.013,0,0,1-.888-2.144v-2.178a.7.7,0,0,0-1.407,0v4.517a2.5,2.5,0,0,0,.738,1.781Z" transform="translate(-12.318 -109.277)" fill="none"/>
      <path id="Path_21731" data-name="Path 21731" d="M1948.979,1511.261a7.248,7.248,0,0,1-.725-2.821h-.427a7.213,7.213,0,0,0,.678,2.289,6.948,6.948,0,0,0-.774.5,5.784,5.784,0,0,0,.428.565A6.971,6.971,0,0,1,1948.979,1511.261Z" transform="translate(-101.816 -197.368)" fill="none"/>
      <path id="Path_21732" data-name="Path 21732" d="M1961.266,1410.79l-.1-.063q-.058.053-.115.109a6.151,6.151,0,0,0,.688.487q.1-.169.2-.332a6.81,6.81,0,0,1,1.323-1.5,5.737,5.737,0,0,0-1.808.982Q1961.357,1410.632,1961.266,1410.79Z" transform="translate(-114.348 -104.277)" fill="none"/>
      <path id="Path_21733" data-name="Path 21733" d="M2035.856,1558.576a6.36,6.36,0,0,0-.68-.239,5.877,5.877,0,0,1-1.563,1.453v.8A5.862,5.862,0,0,0,2035.856,1558.576Z" transform="translate(-182.616 -244.314)" fill="none"/>
      <path id="Path_21734" data-name="Path 21734" d="M1972.212,1469.214h-2.481q-.037.264-.053.532h3.008v-1.559q-.237-.017-.473-.051Z" transform="translate(-122.464 -159.45)" fill="none"/>
      <path id="Path_21735" data-name="Path 21735" d="M2035.877,1426.37a6.129,6.129,0,0,0-.795-.979c.113.143.22.292.322.447.061.094.119.189.175.286a6.521,6.521,0,0,1-1.967.524v.565a6.557,6.557,0,0,0,2.44-.557C2036,1426.559,2035.939,1426.464,2035.877,1426.37Z" transform="translate(-182.616 -119.232)" fill="none"/>
      <path id="Path_21736" data-name="Path 21736" d="M2036.4,1458.487c-.08.036-.161.07-.243.1a6.543,6.543,0,0,1,.277,1.545h-2.822v.533h3.3A6.5,6.5,0,0,0,2036.4,1458.487Z" transform="translate(-182.616 -150.371)" fill="none"/>
      <path id="Path_21737" data-name="Path 21737" d="M2036.907,1508.44h-.526a6.429,6.429,0,0,1-.609,1.983,7.318,7.318,0,0,0-2.161-.564v.5a7.342,7.342,0,0,1,2.634.6A6.471,6.471,0,0,0,2036.907,1508.44Z" transform="translate(-182.616 -197.368)" fill="none"/>
      <path id="Path_21738" data-name="Path 21738" d="M1985.944,1412.185a6.577,6.577,0,0,1-1.5-.3l-.008.012c-.058.089-.114.18-.167.271a6.528,6.528,0,0,0,2.144.552V1410q-.244.141-.473.307Z" transform="translate(-136.196 -104.756)" fill="none"/>
      <path id="Path_21739" data-name="Path 21739" d="M1974.167,1567.646l-.055-.086-.069.04a6.78,6.78,0,0,0,.515.586C1974.421,1568.013,1974.289,1567.834,1974.167,1567.646Z" transform="translate(-126.571 -252.991)" fill="none"/>
      <path id="Path_21740" data-name="Path 21740" d="M1965.662,1573.933a5.739,5.739,0,0,1-1.311-.666l-.11.078a5.745,5.745,0,0,0,2.027,1.166A6.618,6.618,0,0,1,1965.662,1573.933Z" transform="translate(-117.349 -258.361)" fill="none"/>
      <path id="Path_21741" data-name="Path 21741" d="M1978.31,1509.834a7.359,7.359,0,0,0-2.151.471,6.4,6.4,0,0,0,.262.616,7.351,7.351,0,0,1,2.362-.555v-1.927h-.473Z" transform="translate(-128.562 -197.368)" fill="none"/>
      <path id="Path_21742" data-name="Path 21742" d="M2107.473,1318.708a.38.38,0,0,1,.031.04,6.5,6.5,0,0,1,1.582,4.254q0,.143-.007.284l.958-.958a2.24,2.24,0,0,0,.661-1.6v-.71a.392.392,0,0,1-.014-.1v-6.406a.678.678,0,1,0-1.353,0v5.543a.387.387,0,1,1-.775,0v-6.578a.7.7,0,0,0-.677-.725.65.65,0,0,0-.472.206.745.745,0,0,0-.2.519v5.943q.123.125.239.256A.339.339,0,0,1,2107.473,1318.708Z" transform="translate(-251.855 -12.319)" fill="none"/>
      <path id="Path_21743" data-name="Path 21743" d="M2072.583,1329.979a.7.7,0,0,0-.677-.726.653.653,0,0,0-.473.206.747.747,0,0,0-.2.519v3.466a6.537,6.537,0,0,1,1.354.77Z" transform="translate(-218.008 -28.782)" fill="none"/>
      <path id="Path_21744" data-name="Path 21744" d="M2062.827,1568.213l-.03.047a6.823,6.823,0,0,1-1.262,1.442,5.759,5.759,0,0,0,1.872-1.112A6.058,6.058,0,0,0,2062.827,1568.213Z" transform="translate(-208.887 -253.606)" fill="none"/>
      <path id="Path_21745" data-name="Path 21745" d="M1998.992,1369.45a.747.747,0,0,0-.2-.519.65.65,0,0,0-.473-.206.7.7,0,0,0-.677.725v.891a6.479,6.479,0,0,1,1.354-.246Z" transform="translate(-148.77 -65.918)" fill="none"/>
      <path id="Path_21746" data-name="Path 21746" d="M2061.53,1410.39c.138.118.271.244.4.374q-.136-.17-.282-.33Z" transform="translate(-208.882 -105.119)" fill="none"/>
      <path id="Path_21747" data-name="Path 21747" d="M2036.609,1369.45a.7.7,0,0,0-.677-.725.65.65,0,0,0-.472.206.746.746,0,0,0-.2.519v.639a6.5,6.5,0,0,1,1.354.224Z" transform="translate(-184.162 -65.918)" fill="none"/>
      <path id="Path_21748" data-name="Path 21748" d="M2041.339,1421.389a1.71,1.71,0,0,0-.141.16,6.469,6.469,0,0,1-.367,1.063.385.385,0,0,1-.018.045l0,.011-.006.014,0,.008a.459.459,0,0,1-.021.042l0,0a6.549,6.549,0,0,1-1.194,1.737l-.011.014a.393.393,0,0,1-.052.051,6.507,6.507,0,0,1-4.262,1.939v3.141h7.378v-4.391a3.827,3.827,0,0,1,1.129-2.725l.688-.687a2.5,2.5,0,0,0,.738-1.781v-4.517a.7.7,0,0,0-1.407,0v2.178a3.013,3.013,0,0,1-.888,2.144Z" transform="translate(-184.162 -109.277)" fill="none"/>
      <path id="Path_21749" data-name="Path 21749" d="M2091.967,1508.44h-.535a5.732,5.732,0,0,1-1.313,2.823c-.062-.047-.125-.092-.188-.137-.027.059-.056.118-.084.177a6.964,6.964,0,0,1,.746.493A5.725,5.725,0,0,0,2091.967,1508.44Z" transform="translate(-235.524 -197.368)" fill="none"/>
      <path id="Path_21750" data-name="Path 21750" d="M2102.6,1445.6h-.949q.033.264.047.532h1.375a5.717,5.717,0,0,0-1.164-3.094l-.078.06A5.708,5.708,0,0,1,2102.6,1445.6Z" transform="translate(-246.633 -135.831)" fill="none"/>
      <path id="Path_21751" data-name="Path 21751" d="M1932.72,1448.345h-.934c-.028.175-.049.353-.061.532h1.468a7.27,7.27,0,0,1,.6-2.559c-.188-.113-.37-.234-.545-.363A7.285,7.285,0,0,0,1932.72,1448.345Z" transform="translate(-86.756 -138.581)" fill="none"/>
      <path id="Path_21752" data-name="Path 21752" d="M2080.083,1425.413c.056.079.111.158.165.24q.113.173.215.351a6.129,6.129,0,0,0,.644-.446,5.753,5.753,0,0,0-.543-.479Q2080.332,1425.257,2080.083,1425.413Z" transform="translate(-226.338 -118.939)" fill="none"/>
      <path id="Path_21753" data-name="Path 21753" d="M1993.69,1555.94a5.753,5.753,0,0,1-1.184-.912,5.836,5.836,0,0,0,1.657,1.444v-2.346c-.159.011-.317.029-.473.051Z" transform="translate(-143.942 -240.352)" fill="none"/>
      <path id="Path_21754" data-name="Path 21754" d="M1988.606,1554.994a6.4,6.4,0,0,0-1.5.406q.151.231.32.444a5.756,5.756,0,0,0,1.184.912Z" transform="translate(-138.857 -241.169)" fill="#f2bd1d"/>
      <path id="Path_21755" data-name="Path 21755" d="M2035.175,1554.206a6.624,6.624,0,0,0-1.563-.26v1.713A5.878,5.878,0,0,0,2035.175,1554.206Z" transform="translate(-182.616 -240.183)" fill="#f2bd1d"/>
      <path id="Path_21756" data-name="Path 21756" d="M1967.084,1568.815a6.884,6.884,0,0,1-.515-.586q-.242.139-.47.3a5.72,5.72,0,0,0,1.312.666Q1967.241,1569.011,1967.084,1568.815Z" transform="translate(-119.097 -253.621)" fill="#f2bd1d"/>
      <path id="Path_21757" data-name="Path 21757" d="M2036.382,1508.44h-2.77v1.419a7.318,7.318,0,0,1,2.161.564A6.429,6.429,0,0,0,2036.382,1508.44Z" transform="translate(-182.616 -197.368)" fill="#f2bd1d"/>
      <path id="Path_21758" data-name="Path 21758" d="M2063.527,1411.14q.146.16.282.33a6.848,6.848,0,0,1,.7.829q.249-.156.481-.334A5.738,5.738,0,0,0,2063.527,1411.14Z" transform="translate(-210.761 -105.824)" fill="#f2bd1d"/>
      <path id="Path_21759" data-name="Path 21759" d="M2035.4,1408.865c-.1-.155-.209-.3-.322-.447a5.723,5.723,0,0,0-1.471-1.067v2.324a6.528,6.528,0,0,0,1.967-.524C2035.523,1409.054,2035.465,1408.958,2035.4,1408.865Z" transform="translate(-182.616 -102.259)" fill="#f2bd1d"/>
      <path id="Path_21760" data-name="Path 21760" d="M2036.157,1460.236a7.36,7.36,0,0,1-2.545.536v1.009h2.822A6.541,6.541,0,0,0,2036.157,1460.236Z" transform="translate(-182.616 -152.016)" fill="#f2bd1d"/>
      <path id="Path_21761" data-name="Path 21761" d="M1932.767,1508.44h-1.042a5.724,5.724,0,0,0,.2,1.177,2.515,2.515,0,0,1,.2.577,5.727,5.727,0,0,0,.546,1.036,6.982,6.982,0,0,1,.774-.5A7.212,7.212,0,0,1,1932.767,1508.44Z" transform="translate(-86.756 -197.368)" fill="#f2bd1d"/>
      <path id="Path_21762" data-name="Path 21762" d="M1963.287,1426.1q-.15.12-.292.25l.1.063Q1963.186,1426.253,1963.287,1426.1Z" transform="translate(-116.176 -119.898)" fill="#b0db43"/>
      <path id="Path_21763" data-name="Path 21763" d="M1934.231,1442.131c-.106-.078-.21-.157-.311-.24a5.726,5.726,0,0,0-1.154,2.63h.934A7.275,7.275,0,0,1,1934.231,1442.131Z" transform="translate(-87.735 -134.756)" fill="#f2bd1d"/>
      <path id="Path_21764" data-name="Path 21764" d="M1988.721,1415.2a5.968,5.968,0,0,0-1.5,1.57,6.6,6.6,0,0,0,1.5.3Z" transform="translate(-138.973 -109.642)" fill="#f2bd1d"/>
      <path id="Path_21765" data-name="Path 21765" d="M1973.052,1458.812a7.284,7.284,0,0,1-2.02-.586,6.457,6.457,0,0,0-.461,1.663h2.482Z" transform="translate(-123.303 -150.125)" fill="#f2bd1d"/>
      <path id="Path_21766" data-name="Path 21766" d="M1972.212,1508.44h-2.534a6.525,6.525,0,0,0,.383,1.866,7.359,7.359,0,0,1,2.151-.471Z" transform="translate(-122.464 -197.368)" fill="#f2bd1d"/>
      <path id="Path_21767" data-name="Path 21767" d="M2092.778,1508.44h-.841a7.254,7.254,0,0,1-.661,2.686c.063.045.126.09.188.137A5.73,5.73,0,0,0,2092.778,1508.44Z" transform="translate(-236.87 -197.368)" fill="#f2bd1d"/>
      <path id="Path_21768" data-name="Path 21768" d="M2093.13,1444.046a6.924,6.924,0,0,1-.728.5,7.225,7.225,0,0,1,.547,2.006h.949A5.7,5.7,0,0,0,2093.13,1444.046Z" transform="translate(-237.929 -136.784)" fill="#f2bd1d"/>
      <path id="Path_21769" data-name="Path 21769" d="M1841.167,1313.77a3.06,3.06,0,0,1,.9,2.177v4.778a.387.387,0,0,0,.387.387h8.153a.421.421,0,0,0,.049,0,.429.429,0,0,0,.049,0h8.153a.387.387,0,0,0,.387-.387v-4.778a3.058,3.058,0,0,1,.9-2.177l.688-.688a3.274,3.274,0,0,0,.965-2.329v-4.517a1.479,1.479,0,0,0-2.2-1.292V1301.2a1.478,1.478,0,0,0-1.451-1.5,1.4,1.4,0,0,0-.7.188,1.467,1.467,0,0,0-1.426-1.223,1.417,1.417,0,0,0-1.032.445,1.505,1.505,0,0,0-.394.777,1.4,1.4,0,0,0-.7-.187,1.419,1.419,0,0,0-1.033.445,1.516,1.516,0,0,0-.419,1.055v1.009a1.4,1.4,0,0,0-.677-.174,1.418,1.418,0,0,0-1.032.446c-.028.03-.055.06-.08.092-.026-.031-.052-.062-.08-.092a1.418,1.418,0,0,0-1.032-.446,1.4,1.4,0,0,0-.677.174V1301.2a1.517,1.517,0,0,0-.419-1.055,1.414,1.414,0,0,0-1.733-.258,1.509,1.509,0,0,0-.394-.777,1.418,1.418,0,0,0-1.032-.445,1.467,1.467,0,0,0-1.426,1.222,1.408,1.408,0,0,0-.7-.187,1.478,1.478,0,0,0-1.451,1.5v3.747a1.479,1.479,0,0,0-2.2,1.293v4.517a3.273,3.273,0,0,0,.965,2.329Zm9.055,2.35a5.845,5.845,0,0,1-1.657-1.444q-.168-.213-.32-.444a6.389,6.389,0,0,1,1.5-.406c.156-.023.314-.041.473-.052Zm-3.784-5.823h-1.469c.012-.18.033-.357.062-.532a5.723,5.723,0,0,1,1.154-2.63c.1.083.2.163.311.241q.263.194.545.363A7.265,7.265,0,0,0,1846.438,1310.3Zm-1.068,2.528a2.508,2.508,0,0,0-.2-.577,5.73,5.73,0,0,1-.2-1.177h1.469a7.248,7.248,0,0,0,.725,2.821,6.926,6.926,0,0,0-.818.534,5.764,5.764,0,0,1-.975-1.6Zm1.633,2.081q.228-.159.47-.3l.068-.04.055.086c.123.187.254.367.392.539q.157.2.326.379a6.645,6.645,0,0,0,.6.578,5.756,5.756,0,0,1-2.026-1.166C1846.928,1314.958,1846.965,1314.932,1847,1314.906Zm3.219-1.908a7.341,7.341,0,0,0-2.362.555,6.374,6.374,0,0,1-.262-.616,6.525,6.525,0,0,1-.383-1.866h3.008Zm0-2.7h-3.008c.01-.179.028-.356.053-.532a6.452,6.452,0,0,1,.461-1.664,7.267,7.267,0,0,0,2.02.586q.236.033.473.051Zm0-2.336a6.532,6.532,0,0,1-2.144-.552c.053-.092.109-.182.167-.271l.008-.012a5.969,5.969,0,0,1,1.5-1.57c.153-.11.311-.213.473-.307Zm.774,7.515v-1.713a6.613,6.613,0,0,1,1.564.26,6.425,6.425,0,0,1,.68.239,5.859,5.859,0,0,1-2.244,2.015Zm0-2.986v-1.418h3.3a6.467,6.467,0,0,1-.661,2.515,7.341,7.341,0,0,0-2.634-.6Zm0-2.725v-1.009a7.351,7.351,0,0,0,2.546-.536c.081-.033.162-.067.243-.1a6.5,6.5,0,0,1,.507,2.181H1851Zm0-2.349v-2.324a5.729,5.729,0,0,1,1.471,1.067,6.13,6.13,0,0,1,.8.979c.061.094.119.19.175.286a6.559,6.559,0,0,1-2.441.557Zm2.914,7.239.03-.047a6.135,6.135,0,0,1,.58.377,5.76,5.76,0,0,1-1.872,1.113A6.83,6.83,0,0,0,1853.91,1314.655Zm.413-.721c.029-.059.057-.117.085-.177a7.26,7.26,0,0,0,.661-2.686h1.375a5.726,5.726,0,0,1-1.375,3.356A6.984,6.984,0,0,0,1854.322,1313.934Zm5.3-5.52v-2.178a.7.7,0,0,1,1.407,0v4.517a2.5,2.5,0,0,1-.738,1.781l-.688.688a3.827,3.827,0,0,0-1.129,2.725v4.391h-7.378V1317.2a6.507,6.507,0,0,0,4.262-1.94.363.363,0,0,0,.052-.05l.011-.014a6.555,6.555,0,0,0,1.194-1.738v0a.42.42,0,0,0,.022-.042l0-.008.006-.014,0-.011a.358.358,0,0,0,.018-.045,6.473,6.473,0,0,0,.367-1.062,1.717,1.717,0,0,1,.141-.16l1.554-1.554A3.012,3.012,0,0,0,1859.619,1308.414Zm-4.269-7.217v-1.036a.746.746,0,0,1,.2-.519.649.649,0,0,1,.472-.206.7.7,0,0,1,.677.725v6.578a.387.387,0,0,0,.774,0V1301.2a.678.678,0,1,1,1.354,0v6.406a.4.4,0,0,0,.014.1v.71a2.242,2.242,0,0,1-.661,1.6l-.958.958c0-.094.007-.189.007-.284a6.5,6.5,0,0,0-1.582-4.254.463.463,0,0,0-.031-.04c-.009-.01-.02-.02-.03-.029q-.116-.131-.239-.256Zm1.094,9.1h-1.375c-.009-.179-.025-.356-.047-.532a7.23,7.23,0,0,0-.547-2.006,6.96,6.96,0,0,0,.728-.5l.078-.06A5.719,5.719,0,0,1,1856.443,1310.3Zm-1.674-3.678a6.235,6.235,0,0,1-.644.447q-.1-.179-.215-.352-.08-.122-.165-.239a6.858,6.858,0,0,0-.7-.829c-.129-.13-.262-.256-.4-.374l.118.045a5.75,5.75,0,0,1,1.46.825A5.812,5.812,0,0,1,1854.769,1306.619Zm-1.548-3.087V1301.2a.746.746,0,0,1,.2-.519.651.651,0,0,1,.473-.206.7.7,0,0,1,.677.725v4.236a6.533,6.533,0,0,0-1.354-.77Zm-2.128,0a.747.747,0,0,1,.2-.519.65.65,0,0,1,.472-.206.7.7,0,0,1,.677.726v.863a6.516,6.516,0,0,0-1.354-.224Zm-2.225,0a.7.7,0,0,1,.677-.726.65.65,0,0,1,.472.206.747.747,0,0,1,.2.519v.645a6.472,6.472,0,0,0-1.354.246Zm.051,1.686a6.813,6.813,0,0,0-1.323,1.5q-.107.164-.2.333a6.169,6.169,0,0,1-.687-.487l.115-.109c.094-.087.192-.17.292-.25A5.743,5.743,0,0,1,1848.919,1305.218Zm-2.179-4.021a.7.7,0,0,1,.677-.725.651.651,0,0,1,.472.206.747.747,0,0,1,.2.52v3.508a6.527,6.527,0,0,0-1.353.8Zm-4.27,6.507a.39.39,0,0,0,.014-.1V1301.2a.678.678,0,1,1,1.354,0v5.543a.387.387,0,0,0,.774,0v-.337h0v-6.241a.7.7,0,0,1,.677-.725.65.65,0,0,1,.472.206.747.747,0,0,1,.2.519v6.043l-.079.085-.029.028a.389.389,0,0,0-.034.042,6.5,6.5,0,0,0-1.644,4.324c0,.13,0,.259.012.386l-1.061-1.061a2.242,2.242,0,0,1-.661-1.6Zm-2.182-1.468a.7.7,0,0,1,.7-.7.7.7,0,0,1,.7.7v2.178a3.011,3.011,0,0,0,.888,2.144l1.554,1.554a1.741,1.741,0,0,1,.31.421q.08.269.181.528a.372.372,0,0,0,.027.068,6.549,6.549,0,0,0,1.338,2.065l.011.014a.409.409,0,0,0,.054.053,6.508,6.508,0,0,0,4.162,1.931v3.147h-7.378v-4.391a3.83,3.83,0,0,0-1.129-2.725l-.688-.688a2.5,2.5,0,0,1-.738-1.781Z" transform="translate(0 0)" fill="#fff"/>
    </g>
  </g>
</svg>
