<svg xmlns="http://www.w3.org/2000/svg" width="61.039" height="35.663" viewBox="0 0 61.039 35.663">
  <g id="Group_1347" data-name="Group 1347" transform="translate(2611.093 -2686.437)">
    <rect id="Rectangle_449" data-name="Rectangle 449" width="3" height="3" transform="translate(-2606.5 2709.5)" fill="#febb32"/>
    <rect id="Rectangle_453" data-name="Rectangle 453" width="3" height="3" transform="translate(-2606.5 2714.5)" fill="#febb32"/>
    <rect id="Rectangle_450" data-name="Rectangle 450" width="3" height="3" transform="translate(-2601.5 2709.5)" fill="#febb32"/>
    <rect id="Rectangle_454" data-name="Rectangle 454" width="3" height="3" transform="translate(-2601.5 2714.5)" fill="#febb32"/>
    <rect id="Rectangle_451" data-name="Rectangle 451" width="3" height="3" transform="translate(-2596.5 2709.5)" fill="#febb32"/>
    <rect id="Rectangle_455" data-name="Rectangle 455" width="23" height="3" transform="translate(-2575.5 2709.5)" fill="#febb32"/>
    <rect id="Rectangle_452" data-name="Rectangle 452" width="3" height="3" transform="translate(-2596.5 2714.5)" fill="#febb32"/>
    <path id="Path_24073" data-name="Path 24073" d="M-13.58-7.487a1.56,1.56,0,0,1-1.56,1.56h-35.4v-5.2h35.4a1.561,1.561,0,0,1,1.56,1.561ZM-29.746-38.174h-3.982v10.062h3.982Zm2.27,13.073h10.647v3.722H-27.476Zm0,3.722,11.86-.01v10.267H-50.554V-40.59h16.816v19.2Zm-34.7-5.6h2.337V-35.9H-44.6v8.907H-43.5v2.516H-44.6v13.328h-3.382V-24.474h-2.337M-33.8-35.917h-7.73v1.744h7.73Zm0,5.29h-7.73v-1.744h7.73Zm18.173,12.882H-38.912v2.23h23.289Zm-7.729-12.086c0-1.925-1.078-2.619-3.03-2.619h-4.773v1.7l4.828,0c1.3,0,1.271.315,1.271,1.111v5.683h1.7Zm3.617,5.877h-1.7v-9.228c0-.8.024-1.112-1.271-1.112l-8.446,0v-1.7h8.391c1.952,0,3.029.692,3.029,2.618ZM-73.619-5.927V-25.279l7.506-4.026v4.026l6.842-4.026-.053,4.026,8.752-4.782.029,24.126Zm14.293-12.191h3v3h-3Zm0,8.322h3v-3h-3Zm-5.153-8.322h3v3h-3Zm0,8.322h3v-3h-3Zm-5.158-8.322h3v3h-3Zm0,8.322h3v-3h-3Z" transform="translate(-2536.974 2727.527)" fill="none" stroke="#1a4a42" stroke-linecap="round" stroke-linejoin="round" stroke-width="1"/>
  </g>
</svg>
